G04 #@! TF.GenerationSoftware,KiCad,Pcbnew,(5.1.2)-2*
G04 #@! TF.CreationDate,2019-11-04T12:19:55+09:00*
G04 #@! TF.ProjectId,Kicad_sehd_mv,4b696361-645f-4736-9568-645f6d762e6b,1.0*
G04 #@! TF.SameCoordinates,Original*
G04 #@! TF.FileFunction,Copper,L2,Bot*
G04 #@! TF.FilePolarity,Positive*
%FSLAX46Y46*%
G04 Gerber Fmt 4.6, Leading zero omitted, Abs format (unit mm)*
G04 Created by KiCad (PCBNEW (5.1.2)-2) date 2019-11-04 12:19:55*
%MOMM*%
%LPD*%
G04 APERTURE LIST*
%ADD10R,1.524000X1.524000*%
%ADD11C,1.524000*%
%ADD12R,1.500000X1.250000*%
%ADD13R,1.250000X1.500000*%
%ADD14O,3.000000X2.350000*%
%ADD15R,3.000000X2.350000*%
%ADD16R,1.700000X1.700000*%
%ADD17O,1.700000X1.700000*%
%ADD18C,0.889000*%
%ADD19C,0.406400*%
%ADD20C,0.203200*%
%ADD21C,0.254000*%
G04 APERTURE END LIST*
D10*
X68580000Y-59690000D03*
D11*
X66040000Y-59690000D03*
X68580000Y-62230000D03*
X66040000Y-62230000D03*
X68580000Y-64770000D03*
X66040000Y-64770000D03*
X68580000Y-67310000D03*
X66040000Y-67310000D03*
X68580000Y-69850000D03*
X66040000Y-69850000D03*
X68580000Y-72390000D03*
X66040000Y-72390000D03*
D12*
X94194000Y-61722000D03*
X91694000Y-61722000D03*
D13*
X93599000Y-70973000D03*
X93599000Y-68473000D03*
D12*
X82042000Y-63373000D03*
X84542000Y-63373000D03*
X84582000Y-69215000D03*
X82082000Y-69215000D03*
D14*
X122301000Y-65682000D03*
D15*
X122301000Y-61722000D03*
D16*
X150495000Y-58928000D03*
D17*
X153035000Y-58928000D03*
X155575000Y-58928000D03*
X155575000Y-73152000D03*
X153035000Y-73152000D03*
D16*
X150495000Y-73152000D03*
D17*
X126619000Y-70866000D03*
D16*
X124079000Y-70866000D03*
D18*
X86233000Y-67310000D03*
X84582000Y-60325000D03*
X90551000Y-68453000D03*
X96012000Y-59944000D03*
X78867000Y-73279000D03*
X104013000Y-60452000D03*
X99695000Y-69850000D03*
X110871000Y-69850000D03*
X113571000Y-70518000D03*
X132428000Y-72677000D03*
X127254000Y-63246000D03*
X137795000Y-71501000D03*
X144018000Y-60452000D03*
X136017000Y-61214000D03*
X157567000Y-66254000D03*
X157607000Y-62611000D03*
X157567000Y-69683000D03*
X96012000Y-57277000D03*
X86233000Y-63373000D03*
X86233000Y-69088000D03*
X139954000Y-58801000D03*
X100838000Y-58928000D03*
X98806000Y-73406000D03*
X95250000Y-75184000D03*
X129286000Y-67310000D03*
X152996901Y-70650099D03*
X136779000Y-69215000D03*
X139827000Y-66421000D03*
X95230000Y-70973000D03*
X91694000Y-63246000D03*
X82042000Y-70739000D03*
X82062000Y-64877000D03*
X72009000Y-57785000D03*
X72390000Y-64516000D03*
X81026000Y-59690000D03*
X83439000Y-59055000D03*
X79121000Y-66802000D03*
X96012000Y-61849000D03*
X79502000Y-59563000D03*
X86233000Y-61722000D03*
X80772000Y-72009000D03*
X83312000Y-72009000D03*
D19*
X66040000Y-69850000D02*
X68580000Y-69850000D01*
X84582000Y-69215000D02*
X85738400Y-69215000D01*
X85738400Y-69215000D02*
X86233000Y-68720400D01*
X86233000Y-68720400D02*
X86233000Y-67310000D01*
X84582000Y-60325000D02*
X84582000Y-63391702D01*
X84582000Y-63391702D02*
X84542000Y-63431702D01*
X93579000Y-68453000D02*
X93599000Y-68473000D01*
X90551000Y-68453000D02*
X93579000Y-68453000D01*
X95972000Y-59944000D02*
X94194000Y-61722000D01*
X96012000Y-59944000D02*
X95972000Y-59944000D01*
X96520000Y-60452000D02*
X96012000Y-59944000D01*
X99695000Y-69850000D02*
X99695000Y-60452000D01*
X104013000Y-60452000D02*
X99695000Y-60452000D01*
X110871000Y-69850000D02*
X99695000Y-69850000D01*
X111539000Y-70518000D02*
X110871000Y-69850000D01*
X113571000Y-70518000D02*
X111539000Y-70518000D01*
X118407000Y-65682000D02*
X113571000Y-70518000D01*
X122301000Y-65682000D02*
X117137000Y-65682000D01*
X125433000Y-65682000D02*
X122301000Y-65682000D01*
X132428000Y-72677000D02*
X125433000Y-65682000D01*
X124207400Y-65682000D02*
X122301000Y-65682000D01*
X125446617Y-65682000D02*
X124207400Y-65682000D01*
X127254000Y-63874617D02*
X125446617Y-65682000D01*
X127254000Y-63246000D02*
X127254000Y-63874617D01*
X133604000Y-71501000D02*
X132428000Y-72677000D01*
X137795000Y-71501000D02*
X133604000Y-71501000D01*
X129286000Y-61214000D02*
X127254000Y-63246000D01*
X136017000Y-61214000D02*
X129286000Y-61214000D01*
X154051000Y-60452000D02*
X155575000Y-58928000D01*
X144018000Y-60452000D02*
X153162000Y-60452000D01*
X153162000Y-60452000D02*
X154051000Y-60452000D01*
X154178000Y-60579000D02*
X154051000Y-60452000D01*
X155575000Y-60579000D02*
X154178000Y-60579000D01*
X157607000Y-62611000D02*
X155575000Y-60579000D01*
X153329000Y-66254000D02*
X153162000Y-66421000D01*
X157567000Y-66254000D02*
X153329000Y-66254000D01*
X153162000Y-66421000D02*
X153162000Y-60452000D01*
X155575000Y-71675000D02*
X155575000Y-73152000D01*
X157567000Y-69683000D02*
X155575000Y-71675000D01*
X96012000Y-59944000D02*
X96012000Y-57277000D01*
X101473000Y-71374000D02*
X100457000Y-72390000D01*
X69341999Y-70611999D02*
X68580000Y-69850000D01*
X70485000Y-70612000D02*
X69341999Y-70611999D01*
X70485000Y-74930000D02*
X70485000Y-70612000D01*
X78359000Y-74930000D02*
X70485000Y-74930000D01*
X78867000Y-73279000D02*
X78867000Y-74422000D01*
X78867000Y-74422000D02*
X78359000Y-74930000D01*
X89662000Y-74930000D02*
X90297000Y-74295000D01*
X86233000Y-74803000D02*
X86106000Y-74930000D01*
X78359000Y-74930000D02*
X86106000Y-74930000D01*
X84542000Y-63373000D02*
X86233000Y-63373000D01*
X86233000Y-69088000D02*
X86233000Y-74803000D01*
X86233000Y-67310000D02*
X86233000Y-69088000D01*
X136017000Y-61214000D02*
X139446000Y-61214000D01*
X139446000Y-61214000D02*
X139954000Y-60706000D01*
X139954000Y-60706000D02*
X139954000Y-58801000D01*
X100838000Y-60325000D02*
X100711000Y-60452000D01*
X100838000Y-58928000D02*
X100838000Y-60325000D01*
X101473000Y-60452000D02*
X98806000Y-60452000D01*
X100711000Y-60452000D02*
X96520000Y-60452000D01*
X100457000Y-72390000D02*
X96774000Y-72390000D01*
X90551000Y-74041000D02*
X90297000Y-74295000D01*
X90551000Y-68453000D02*
X90551000Y-74041000D01*
X95250000Y-72390000D02*
X95250000Y-73914000D01*
X95250000Y-73914000D02*
X90297000Y-73914000D01*
X90297000Y-73914000D02*
X90297000Y-74295000D01*
X98679000Y-72390000D02*
X95250000Y-72390000D01*
X98679000Y-72650383D02*
X98679000Y-72390000D01*
X98806000Y-73406000D02*
X98806000Y-72777383D01*
X98806000Y-72777383D02*
X98679000Y-72650383D01*
X89281000Y-74930000D02*
X94996000Y-74930000D01*
X89281000Y-74930000D02*
X89662000Y-74930000D01*
X86106000Y-74930000D02*
X89281000Y-74930000D01*
X94996000Y-74930000D02*
X95250000Y-75184000D01*
X129286000Y-67310000D02*
X132588000Y-70612000D01*
X132626099Y-70650099D02*
X150456901Y-70650099D01*
X132588000Y-70612000D02*
X132626099Y-70650099D01*
X150456901Y-70650099D02*
X152996901Y-70650099D01*
D20*
X139827000Y-67945000D02*
X139827000Y-66421000D01*
X136779000Y-69215000D02*
X138557000Y-69215000D01*
X138557000Y-69215000D02*
X139827000Y-67945000D01*
D19*
X93599000Y-70973000D02*
X95230000Y-70973000D01*
X91694000Y-61722000D02*
X91694000Y-63246000D01*
X82042000Y-69255000D02*
X82082000Y-69215000D01*
X82042000Y-70739000D02*
X82042000Y-69255000D01*
X82062000Y-63393000D02*
X82042000Y-63373000D01*
X82062000Y-64877000D02*
X82062000Y-63393000D01*
X72009000Y-64135000D02*
X72390000Y-64516000D01*
X72009000Y-57785000D02*
X72009000Y-64135000D01*
D20*
X81661000Y-59055000D02*
X81026000Y-59690000D01*
X83439000Y-59055000D02*
X81661000Y-59055000D01*
X96012000Y-65405000D02*
X96012000Y-61849000D01*
X95504000Y-65913000D02*
X96012000Y-65405000D01*
X81026000Y-65913000D02*
X95504000Y-65913000D01*
X79121000Y-66802000D02*
X80137000Y-66802000D01*
X80137000Y-66802000D02*
X81026000Y-65913000D01*
X85788501Y-61277501D02*
X85661501Y-61277501D01*
X86233000Y-61722000D02*
X85788501Y-61277501D01*
X85661501Y-61277501D02*
X85598000Y-61214000D01*
X85598000Y-61214000D02*
X85598000Y-58674000D01*
X85598000Y-58674000D02*
X84836000Y-57912000D01*
X81153000Y-57912000D02*
X79502000Y-59563000D01*
X84836000Y-57912000D02*
X81153000Y-57912000D01*
X80772000Y-72009000D02*
X83312000Y-72009000D01*
D21*
G36*
X158750000Y-75540000D02*
G01*
X62992000Y-75540000D01*
X62992000Y-72252408D01*
X64643000Y-72252408D01*
X64643000Y-72527592D01*
X64696686Y-72797490D01*
X64801995Y-73051727D01*
X64954880Y-73280535D01*
X65149465Y-73475120D01*
X65378273Y-73628005D01*
X65632510Y-73733314D01*
X65902408Y-73787000D01*
X66177592Y-73787000D01*
X66447490Y-73733314D01*
X66701727Y-73628005D01*
X66930535Y-73475120D01*
X67125120Y-73280535D01*
X67278005Y-73051727D01*
X67310000Y-72974485D01*
X67341995Y-73051727D01*
X67494880Y-73280535D01*
X67689465Y-73475120D01*
X67918273Y-73628005D01*
X68172510Y-73733314D01*
X68442408Y-73787000D01*
X68717592Y-73787000D01*
X68987490Y-73733314D01*
X69241727Y-73628005D01*
X69470535Y-73475120D01*
X69665120Y-73280535D01*
X69818005Y-73051727D01*
X69923314Y-72797490D01*
X69977000Y-72527592D01*
X69977000Y-72252408D01*
X69923314Y-71982510D01*
X69890247Y-71902679D01*
X79692500Y-71902679D01*
X79692500Y-72115321D01*
X79733985Y-72323878D01*
X79815360Y-72520335D01*
X79933498Y-72697141D01*
X80083859Y-72847502D01*
X80260665Y-72965640D01*
X80457122Y-73047015D01*
X80665679Y-73088500D01*
X80878321Y-73088500D01*
X81086878Y-73047015D01*
X81283335Y-72965640D01*
X81460141Y-72847502D01*
X81562043Y-72745600D01*
X82521957Y-72745600D01*
X82623859Y-72847502D01*
X82800665Y-72965640D01*
X82997122Y-73047015D01*
X83205679Y-73088500D01*
X83418321Y-73088500D01*
X83626878Y-73047015D01*
X83823335Y-72965640D01*
X84000141Y-72847502D01*
X84150502Y-72697141D01*
X84268640Y-72520335D01*
X84350015Y-72323878D01*
X84391500Y-72115321D01*
X84391500Y-71902679D01*
X84350015Y-71694122D01*
X84268640Y-71497665D01*
X84150502Y-71320859D01*
X84000141Y-71170498D01*
X83823335Y-71052360D01*
X83626878Y-70970985D01*
X83418321Y-70929500D01*
X83205679Y-70929500D01*
X83100598Y-70950402D01*
X83121500Y-70845321D01*
X83121500Y-70632679D01*
X83080614Y-70427132D01*
X83186494Y-70370537D01*
X83283185Y-70291185D01*
X83332000Y-70231704D01*
X83380815Y-70291185D01*
X83477506Y-70370537D01*
X83587820Y-70429502D01*
X83707518Y-70465812D01*
X83832000Y-70478072D01*
X84296250Y-70475000D01*
X84455000Y-70316250D01*
X84455000Y-69342000D01*
X84709000Y-69342000D01*
X84709000Y-70316250D01*
X84867750Y-70475000D01*
X85332000Y-70478072D01*
X85456482Y-70465812D01*
X85576180Y-70429502D01*
X85686494Y-70370537D01*
X85783185Y-70291185D01*
X85862537Y-70194494D01*
X85921502Y-70084180D01*
X85957812Y-69964482D01*
X85970072Y-69840000D01*
X85967000Y-69500750D01*
X85808250Y-69342000D01*
X84709000Y-69342000D01*
X84455000Y-69342000D01*
X84435000Y-69342000D01*
X84435000Y-69223000D01*
X92335928Y-69223000D01*
X92348188Y-69347482D01*
X92384498Y-69467180D01*
X92443463Y-69577494D01*
X92522815Y-69674185D01*
X92582296Y-69723000D01*
X92522815Y-69771815D01*
X92443463Y-69868506D01*
X92384498Y-69978820D01*
X92348188Y-70098518D01*
X92335928Y-70223000D01*
X92335928Y-71723000D01*
X92348188Y-71847482D01*
X92384498Y-71967180D01*
X92443463Y-72077494D01*
X92522815Y-72174185D01*
X92619506Y-72253537D01*
X92729820Y-72312502D01*
X92849518Y-72348812D01*
X92974000Y-72361072D01*
X94224000Y-72361072D01*
X94348482Y-72348812D01*
X94468180Y-72312502D01*
X94578494Y-72253537D01*
X94675185Y-72174185D01*
X94754537Y-72077494D01*
X94812739Y-71968607D01*
X94915122Y-72011015D01*
X95123679Y-72052500D01*
X95336321Y-72052500D01*
X95544878Y-72011015D01*
X95741335Y-71929640D01*
X95918141Y-71811502D01*
X96068502Y-71661141D01*
X96186640Y-71484335D01*
X96268015Y-71287878D01*
X96309500Y-71079321D01*
X96309500Y-70866679D01*
X96268015Y-70658122D01*
X96186640Y-70461665D01*
X96068502Y-70284859D01*
X95918141Y-70134498D01*
X95741335Y-70016360D01*
X95740466Y-70016000D01*
X122590928Y-70016000D01*
X122590928Y-71716000D01*
X122603188Y-71840482D01*
X122639498Y-71960180D01*
X122698463Y-72070494D01*
X122777815Y-72167185D01*
X122874506Y-72246537D01*
X122984820Y-72305502D01*
X123104518Y-72341812D01*
X123229000Y-72354072D01*
X124929000Y-72354072D01*
X125053482Y-72341812D01*
X125173180Y-72305502D01*
X125283494Y-72246537D01*
X125380185Y-72167185D01*
X125459537Y-72070494D01*
X125518502Y-71960180D01*
X125539393Y-71891313D01*
X125563866Y-71921134D01*
X125789986Y-72106706D01*
X126047966Y-72244599D01*
X126327889Y-72329513D01*
X126546050Y-72351000D01*
X126691950Y-72351000D01*
X126910111Y-72329513D01*
X127190034Y-72244599D01*
X127448014Y-72106706D01*
X127674134Y-71921134D01*
X127859706Y-71695014D01*
X127997599Y-71437034D01*
X128082513Y-71157111D01*
X128111185Y-70866000D01*
X128082513Y-70574889D01*
X127997599Y-70294966D01*
X127859706Y-70036986D01*
X127674134Y-69810866D01*
X127448014Y-69625294D01*
X127190034Y-69487401D01*
X126910111Y-69402487D01*
X126691950Y-69381000D01*
X126546050Y-69381000D01*
X126327889Y-69402487D01*
X126047966Y-69487401D01*
X125789986Y-69625294D01*
X125563866Y-69810866D01*
X125539393Y-69840687D01*
X125518502Y-69771820D01*
X125459537Y-69661506D01*
X125380185Y-69564815D01*
X125283494Y-69485463D01*
X125173180Y-69426498D01*
X125053482Y-69390188D01*
X124929000Y-69377928D01*
X123229000Y-69377928D01*
X123104518Y-69390188D01*
X122984820Y-69426498D01*
X122874506Y-69485463D01*
X122777815Y-69564815D01*
X122698463Y-69661506D01*
X122639498Y-69771820D01*
X122603188Y-69891518D01*
X122590928Y-70016000D01*
X95740466Y-70016000D01*
X95544878Y-69934985D01*
X95336321Y-69893500D01*
X95123679Y-69893500D01*
X94915122Y-69934985D01*
X94812739Y-69977393D01*
X94754537Y-69868506D01*
X94675185Y-69771815D01*
X94615704Y-69723000D01*
X94675185Y-69674185D01*
X94754537Y-69577494D01*
X94813502Y-69467180D01*
X94849812Y-69347482D01*
X94862072Y-69223000D01*
X94859000Y-68758750D01*
X94700250Y-68600000D01*
X93726000Y-68600000D01*
X93726000Y-68620000D01*
X93472000Y-68620000D01*
X93472000Y-68600000D01*
X92497750Y-68600000D01*
X92339000Y-68758750D01*
X92335928Y-69223000D01*
X84435000Y-69223000D01*
X84435000Y-69088000D01*
X84455000Y-69088000D01*
X84455000Y-68113750D01*
X84709000Y-68113750D01*
X84709000Y-69088000D01*
X85808250Y-69088000D01*
X85967000Y-68929250D01*
X85970072Y-68590000D01*
X85957812Y-68465518D01*
X85921502Y-68345820D01*
X85862537Y-68235506D01*
X85783185Y-68138815D01*
X85686494Y-68059463D01*
X85576180Y-68000498D01*
X85456482Y-67964188D01*
X85332000Y-67951928D01*
X84867750Y-67955000D01*
X84709000Y-68113750D01*
X84455000Y-68113750D01*
X84296250Y-67955000D01*
X83832000Y-67951928D01*
X83707518Y-67964188D01*
X83587820Y-68000498D01*
X83477506Y-68059463D01*
X83380815Y-68138815D01*
X83332000Y-68198296D01*
X83283185Y-68138815D01*
X83186494Y-68059463D01*
X83076180Y-68000498D01*
X82956482Y-67964188D01*
X82832000Y-67951928D01*
X81332000Y-67951928D01*
X81207518Y-67964188D01*
X81087820Y-68000498D01*
X80977506Y-68059463D01*
X80880815Y-68138815D01*
X80801463Y-68235506D01*
X80742498Y-68345820D01*
X80706188Y-68465518D01*
X80693928Y-68590000D01*
X80693928Y-69840000D01*
X80706188Y-69964482D01*
X80742498Y-70084180D01*
X80801463Y-70194494D01*
X80880815Y-70291185D01*
X80977506Y-70370537D01*
X81017357Y-70391838D01*
X81003985Y-70424122D01*
X80962500Y-70632679D01*
X80962500Y-70845321D01*
X80983402Y-70950402D01*
X80878321Y-70929500D01*
X80665679Y-70929500D01*
X80457122Y-70970985D01*
X80260665Y-71052360D01*
X80083859Y-71170498D01*
X79933498Y-71320859D01*
X79815360Y-71497665D01*
X79733985Y-71694122D01*
X79692500Y-71902679D01*
X69890247Y-71902679D01*
X69818005Y-71728273D01*
X69665120Y-71499465D01*
X69470535Y-71304880D01*
X69241727Y-71151995D01*
X69170057Y-71122308D01*
X69183023Y-71117636D01*
X69298980Y-71055656D01*
X69365960Y-70815565D01*
X68580000Y-70029605D01*
X67794040Y-70815565D01*
X67861020Y-71055656D01*
X67996760Y-71119485D01*
X67918273Y-71151995D01*
X67689465Y-71304880D01*
X67494880Y-71499465D01*
X67341995Y-71728273D01*
X67310000Y-71805515D01*
X67278005Y-71728273D01*
X67125120Y-71499465D01*
X66930535Y-71304880D01*
X66701727Y-71151995D01*
X66630057Y-71122308D01*
X66643023Y-71117636D01*
X66758980Y-71055656D01*
X66825960Y-70815565D01*
X66040000Y-70029605D01*
X65254040Y-70815565D01*
X65321020Y-71055656D01*
X65456760Y-71119485D01*
X65378273Y-71151995D01*
X65149465Y-71304880D01*
X64954880Y-71499465D01*
X64801995Y-71728273D01*
X64696686Y-71982510D01*
X64643000Y-72252408D01*
X62992000Y-72252408D01*
X62992000Y-69922017D01*
X64638090Y-69922017D01*
X64679078Y-70194133D01*
X64772364Y-70453023D01*
X64834344Y-70568980D01*
X65074435Y-70635960D01*
X65860395Y-69850000D01*
X66219605Y-69850000D01*
X67005565Y-70635960D01*
X67245656Y-70568980D01*
X67307079Y-70438356D01*
X67312364Y-70453023D01*
X67374344Y-70568980D01*
X67614435Y-70635960D01*
X68400395Y-69850000D01*
X68759605Y-69850000D01*
X69545565Y-70635960D01*
X69785656Y-70568980D01*
X69902756Y-70319952D01*
X69969023Y-70052865D01*
X69981910Y-69777983D01*
X69940922Y-69505867D01*
X69847636Y-69246977D01*
X69785656Y-69131020D01*
X69545565Y-69064040D01*
X68759605Y-69850000D01*
X68400395Y-69850000D01*
X67614435Y-69064040D01*
X67374344Y-69131020D01*
X67312921Y-69261644D01*
X67307636Y-69246977D01*
X67245656Y-69131020D01*
X67005565Y-69064040D01*
X66219605Y-69850000D01*
X65860395Y-69850000D01*
X65074435Y-69064040D01*
X64834344Y-69131020D01*
X64717244Y-69380048D01*
X64650977Y-69647135D01*
X64638090Y-69922017D01*
X62992000Y-69922017D01*
X62992000Y-59552408D01*
X64643000Y-59552408D01*
X64643000Y-59827592D01*
X64696686Y-60097490D01*
X64801995Y-60351727D01*
X64954880Y-60580535D01*
X65149465Y-60775120D01*
X65378273Y-60928005D01*
X65455515Y-60960000D01*
X65378273Y-60991995D01*
X65149465Y-61144880D01*
X64954880Y-61339465D01*
X64801995Y-61568273D01*
X64696686Y-61822510D01*
X64643000Y-62092408D01*
X64643000Y-62367592D01*
X64696686Y-62637490D01*
X64801995Y-62891727D01*
X64954880Y-63120535D01*
X65149465Y-63315120D01*
X65378273Y-63468005D01*
X65455515Y-63500000D01*
X65378273Y-63531995D01*
X65149465Y-63684880D01*
X64954880Y-63879465D01*
X64801995Y-64108273D01*
X64696686Y-64362510D01*
X64643000Y-64632408D01*
X64643000Y-64907592D01*
X64696686Y-65177490D01*
X64801995Y-65431727D01*
X64954880Y-65660535D01*
X65149465Y-65855120D01*
X65378273Y-66008005D01*
X65455515Y-66040000D01*
X65378273Y-66071995D01*
X65149465Y-66224880D01*
X64954880Y-66419465D01*
X64801995Y-66648273D01*
X64696686Y-66902510D01*
X64643000Y-67172408D01*
X64643000Y-67447592D01*
X64696686Y-67717490D01*
X64801995Y-67971727D01*
X64954880Y-68200535D01*
X65149465Y-68395120D01*
X65378273Y-68548005D01*
X65449943Y-68577692D01*
X65436977Y-68582364D01*
X65321020Y-68644344D01*
X65254040Y-68884435D01*
X66040000Y-69670395D01*
X66825960Y-68884435D01*
X66758980Y-68644344D01*
X66623240Y-68580515D01*
X66701727Y-68548005D01*
X66930535Y-68395120D01*
X67125120Y-68200535D01*
X67278005Y-67971727D01*
X67310000Y-67894485D01*
X67341995Y-67971727D01*
X67494880Y-68200535D01*
X67689465Y-68395120D01*
X67918273Y-68548005D01*
X67989943Y-68577692D01*
X67976977Y-68582364D01*
X67861020Y-68644344D01*
X67794040Y-68884435D01*
X68580000Y-69670395D01*
X69365960Y-68884435D01*
X69298980Y-68644344D01*
X69163240Y-68580515D01*
X69241727Y-68548005D01*
X69470535Y-68395120D01*
X69665120Y-68200535D01*
X69818005Y-67971727D01*
X69923314Y-67717490D01*
X69977000Y-67447592D01*
X69977000Y-67172408D01*
X69923314Y-66902510D01*
X69837642Y-66695679D01*
X78041500Y-66695679D01*
X78041500Y-66908321D01*
X78082985Y-67116878D01*
X78164360Y-67313335D01*
X78282498Y-67490141D01*
X78432859Y-67640502D01*
X78609665Y-67758640D01*
X78806122Y-67840015D01*
X79014679Y-67881500D01*
X79227321Y-67881500D01*
X79435878Y-67840015D01*
X79632335Y-67758640D01*
X79685674Y-67723000D01*
X92335928Y-67723000D01*
X92339000Y-68187250D01*
X92497750Y-68346000D01*
X93472000Y-68346000D01*
X93472000Y-67246750D01*
X93726000Y-67246750D01*
X93726000Y-68346000D01*
X94700250Y-68346000D01*
X94859000Y-68187250D01*
X94862072Y-67723000D01*
X94849812Y-67598518D01*
X94813502Y-67478820D01*
X94754537Y-67368506D01*
X94675185Y-67271815D01*
X94578494Y-67192463D01*
X94468180Y-67133498D01*
X94348482Y-67097188D01*
X94224000Y-67084928D01*
X93884750Y-67088000D01*
X93726000Y-67246750D01*
X93472000Y-67246750D01*
X93313250Y-67088000D01*
X92974000Y-67084928D01*
X92849518Y-67097188D01*
X92729820Y-67133498D01*
X92619506Y-67192463D01*
X92522815Y-67271815D01*
X92443463Y-67368506D01*
X92384498Y-67478820D01*
X92348188Y-67598518D01*
X92335928Y-67723000D01*
X79685674Y-67723000D01*
X79809141Y-67640502D01*
X79911043Y-67538600D01*
X80100817Y-67538600D01*
X80137000Y-67542164D01*
X80173183Y-67538600D01*
X80173186Y-67538600D01*
X80281399Y-67527942D01*
X80420249Y-67485822D01*
X80548213Y-67417424D01*
X80660375Y-67325375D01*
X80683445Y-67297264D01*
X81331110Y-66649600D01*
X95467817Y-66649600D01*
X95504000Y-66653164D01*
X95540183Y-66649600D01*
X95540186Y-66649600D01*
X95648399Y-66638942D01*
X95787249Y-66596822D01*
X95915213Y-66528424D01*
X96027375Y-66436375D01*
X96050446Y-66408263D01*
X96368824Y-66089885D01*
X120212557Y-66089885D01*
X120255178Y-66257324D01*
X120400483Y-66581985D01*
X120606334Y-66872060D01*
X120864821Y-67116402D01*
X121166010Y-67305621D01*
X121498327Y-67432445D01*
X121849000Y-67492000D01*
X122174000Y-67492000D01*
X122174000Y-65809000D01*
X122428000Y-65809000D01*
X122428000Y-67492000D01*
X122753000Y-67492000D01*
X123103673Y-67432445D01*
X123435990Y-67305621D01*
X123598255Y-67203679D01*
X128206500Y-67203679D01*
X128206500Y-67416321D01*
X128247985Y-67624878D01*
X128329360Y-67821335D01*
X128447498Y-67998141D01*
X128597859Y-68148502D01*
X128774665Y-68266640D01*
X128971122Y-68348015D01*
X129179679Y-68389500D01*
X129180107Y-68389500D01*
X132004293Y-71213687D01*
X132030535Y-71245663D01*
X132158167Y-71350408D01*
X132303782Y-71428241D01*
X132461783Y-71476170D01*
X132584929Y-71488299D01*
X132584936Y-71488299D01*
X132626098Y-71492353D01*
X132667261Y-71488299D01*
X152308458Y-71488299D01*
X152308760Y-71488601D01*
X152485566Y-71606739D01*
X152682023Y-71688114D01*
X152720130Y-71695694D01*
X152463966Y-71773401D01*
X152205986Y-71911294D01*
X151979866Y-72096866D01*
X151955393Y-72126687D01*
X151934502Y-72057820D01*
X151875537Y-71947506D01*
X151796185Y-71850815D01*
X151699494Y-71771463D01*
X151589180Y-71712498D01*
X151469482Y-71676188D01*
X151345000Y-71663928D01*
X149645000Y-71663928D01*
X149520518Y-71676188D01*
X149400820Y-71712498D01*
X149290506Y-71771463D01*
X149193815Y-71850815D01*
X149114463Y-71947506D01*
X149055498Y-72057820D01*
X149019188Y-72177518D01*
X149006928Y-72302000D01*
X149006928Y-74002000D01*
X149019188Y-74126482D01*
X149055498Y-74246180D01*
X149114463Y-74356494D01*
X149193815Y-74453185D01*
X149290506Y-74532537D01*
X149400820Y-74591502D01*
X149520518Y-74627812D01*
X149645000Y-74640072D01*
X151345000Y-74640072D01*
X151469482Y-74627812D01*
X151589180Y-74591502D01*
X151699494Y-74532537D01*
X151796185Y-74453185D01*
X151875537Y-74356494D01*
X151934502Y-74246180D01*
X151955393Y-74177313D01*
X151979866Y-74207134D01*
X152205986Y-74392706D01*
X152463966Y-74530599D01*
X152743889Y-74615513D01*
X152962050Y-74637000D01*
X153107950Y-74637000D01*
X153326111Y-74615513D01*
X153606034Y-74530599D01*
X153864014Y-74392706D01*
X154090134Y-74207134D01*
X154275706Y-73981014D01*
X154310201Y-73916477D01*
X154379822Y-74033355D01*
X154574731Y-74249588D01*
X154808080Y-74423641D01*
X155070901Y-74548825D01*
X155218110Y-74593476D01*
X155448000Y-74472155D01*
X155448000Y-73279000D01*
X155702000Y-73279000D01*
X155702000Y-74472155D01*
X155931890Y-74593476D01*
X156079099Y-74548825D01*
X156341920Y-74423641D01*
X156575269Y-74249588D01*
X156770178Y-74033355D01*
X156919157Y-73783252D01*
X157016481Y-73508891D01*
X156895814Y-73279000D01*
X155702000Y-73279000D01*
X155448000Y-73279000D01*
X155428000Y-73279000D01*
X155428000Y-73025000D01*
X155448000Y-73025000D01*
X155448000Y-71831845D01*
X155702000Y-71831845D01*
X155702000Y-73025000D01*
X156895814Y-73025000D01*
X157016481Y-72795109D01*
X156919157Y-72520748D01*
X156770178Y-72270645D01*
X156575269Y-72054412D01*
X156341920Y-71880359D01*
X156079099Y-71755175D01*
X155931890Y-71710524D01*
X155702000Y-71831845D01*
X155448000Y-71831845D01*
X155218110Y-71710524D01*
X155070901Y-71755175D01*
X154808080Y-71880359D01*
X154574731Y-72054412D01*
X154379822Y-72270645D01*
X154310201Y-72387523D01*
X154275706Y-72322986D01*
X154090134Y-72096866D01*
X153864014Y-71911294D01*
X153606034Y-71773401D01*
X153326111Y-71688487D01*
X153313805Y-71687275D01*
X153508236Y-71606739D01*
X153685042Y-71488601D01*
X153835403Y-71338240D01*
X153953541Y-71161434D01*
X154034916Y-70964977D01*
X154076401Y-70756420D01*
X154076401Y-70543778D01*
X154034916Y-70335221D01*
X153953541Y-70138764D01*
X153835403Y-69961958D01*
X153685042Y-69811597D01*
X153508236Y-69693459D01*
X153311779Y-69612084D01*
X153103222Y-69570599D01*
X152890580Y-69570599D01*
X152682023Y-69612084D01*
X152485566Y-69693459D01*
X152308760Y-69811597D01*
X152308458Y-69811899D01*
X138990786Y-69811899D01*
X139080375Y-69738375D01*
X139103445Y-69710264D01*
X140322273Y-68491437D01*
X140350374Y-68468375D01*
X140373437Y-68440273D01*
X140373442Y-68440268D01*
X140442423Y-68356214D01*
X140442425Y-68356212D01*
X140510822Y-68228249D01*
X140552942Y-68089399D01*
X140563600Y-67981186D01*
X140563600Y-67981177D01*
X140567163Y-67945001D01*
X140563600Y-67908825D01*
X140563600Y-67211043D01*
X140665502Y-67109141D01*
X140783640Y-66932335D01*
X140865015Y-66735878D01*
X140906500Y-66527321D01*
X140906500Y-66314679D01*
X140865015Y-66106122D01*
X140783640Y-65909665D01*
X140665502Y-65732859D01*
X140515141Y-65582498D01*
X140338335Y-65464360D01*
X140141878Y-65382985D01*
X139933321Y-65341500D01*
X139720679Y-65341500D01*
X139512122Y-65382985D01*
X139315665Y-65464360D01*
X139138859Y-65582498D01*
X138988498Y-65732859D01*
X138870360Y-65909665D01*
X138788985Y-66106122D01*
X138747500Y-66314679D01*
X138747500Y-66527321D01*
X138788985Y-66735878D01*
X138870360Y-66932335D01*
X138988498Y-67109141D01*
X139090400Y-67211043D01*
X139090400Y-67639890D01*
X138251891Y-68478400D01*
X137569043Y-68478400D01*
X137467141Y-68376498D01*
X137290335Y-68258360D01*
X137093878Y-68176985D01*
X136885321Y-68135500D01*
X136672679Y-68135500D01*
X136464122Y-68176985D01*
X136267665Y-68258360D01*
X136090859Y-68376498D01*
X135940498Y-68526859D01*
X135822360Y-68703665D01*
X135740985Y-68900122D01*
X135699500Y-69108679D01*
X135699500Y-69321321D01*
X135740985Y-69529878D01*
X135822360Y-69726335D01*
X135879532Y-69811899D01*
X132973293Y-69811899D01*
X130365500Y-67204107D01*
X130365500Y-67203679D01*
X130324015Y-66995122D01*
X130242640Y-66798665D01*
X130124502Y-66621859D01*
X129974141Y-66471498D01*
X129797335Y-66353360D01*
X129600878Y-66271985D01*
X129392321Y-66230500D01*
X129179679Y-66230500D01*
X128971122Y-66271985D01*
X128774665Y-66353360D01*
X128597859Y-66471498D01*
X128447498Y-66621859D01*
X128329360Y-66798665D01*
X128247985Y-66995122D01*
X128206500Y-67203679D01*
X123598255Y-67203679D01*
X123737179Y-67116402D01*
X123995666Y-66872060D01*
X124201517Y-66581985D01*
X124346822Y-66257324D01*
X124389443Y-66089885D01*
X124272359Y-65809000D01*
X122428000Y-65809000D01*
X122174000Y-65809000D01*
X120329641Y-65809000D01*
X120212557Y-66089885D01*
X96368824Y-66089885D01*
X96507268Y-65951441D01*
X96535374Y-65928375D01*
X96627424Y-65816213D01*
X96695822Y-65688249D01*
X96737942Y-65549399D01*
X96748600Y-65441186D01*
X96748600Y-65441177D01*
X96752163Y-65405001D01*
X96748600Y-65368825D01*
X96748600Y-65274115D01*
X120212557Y-65274115D01*
X120329641Y-65555000D01*
X122174000Y-65555000D01*
X122174000Y-63872000D01*
X122428000Y-63872000D01*
X122428000Y-65555000D01*
X124272359Y-65555000D01*
X124389443Y-65274115D01*
X124346822Y-65106676D01*
X124201517Y-64782015D01*
X123995666Y-64491940D01*
X123737179Y-64247598D01*
X123435990Y-64058379D01*
X123103673Y-63931555D01*
X122753000Y-63872000D01*
X122428000Y-63872000D01*
X122174000Y-63872000D01*
X121849000Y-63872000D01*
X121498327Y-63931555D01*
X121166010Y-64058379D01*
X120864821Y-64247598D01*
X120606334Y-64491940D01*
X120400483Y-64782015D01*
X120255178Y-65106676D01*
X120212557Y-65274115D01*
X96748600Y-65274115D01*
X96748600Y-62639043D01*
X96850502Y-62537141D01*
X96968640Y-62360335D01*
X97050015Y-62163878D01*
X97091500Y-61955321D01*
X97091500Y-61742679D01*
X97050015Y-61534122D01*
X96968640Y-61337665D01*
X96850502Y-61160859D01*
X96700141Y-61010498D01*
X96523335Y-60892360D01*
X96326878Y-60810985D01*
X96118321Y-60769500D01*
X95905679Y-60769500D01*
X95697122Y-60810985D01*
X95540492Y-60875863D01*
X95533502Y-60852820D01*
X95474537Y-60742506D01*
X95395185Y-60645815D01*
X95298494Y-60566463D01*
X95262082Y-60547000D01*
X120162928Y-60547000D01*
X120162928Y-62897000D01*
X120175188Y-63021482D01*
X120211498Y-63141180D01*
X120270463Y-63251494D01*
X120349815Y-63348185D01*
X120446506Y-63427537D01*
X120556820Y-63486502D01*
X120676518Y-63522812D01*
X120801000Y-63535072D01*
X123801000Y-63535072D01*
X123925482Y-63522812D01*
X124045180Y-63486502D01*
X124155494Y-63427537D01*
X124252185Y-63348185D01*
X124331537Y-63251494D01*
X124390502Y-63141180D01*
X124426812Y-63021482D01*
X124439072Y-62897000D01*
X124439072Y-60547000D01*
X124426812Y-60422518D01*
X124390502Y-60302820D01*
X124331537Y-60192506D01*
X124252185Y-60095815D01*
X124155494Y-60016463D01*
X124045180Y-59957498D01*
X123925482Y-59921188D01*
X123801000Y-59908928D01*
X120801000Y-59908928D01*
X120676518Y-59921188D01*
X120556820Y-59957498D01*
X120446506Y-60016463D01*
X120349815Y-60095815D01*
X120270463Y-60192506D01*
X120211498Y-60302820D01*
X120175188Y-60422518D01*
X120162928Y-60547000D01*
X95262082Y-60547000D01*
X95188180Y-60507498D01*
X95068482Y-60471188D01*
X94944000Y-60458928D01*
X94479750Y-60462000D01*
X94321000Y-60620750D01*
X94321000Y-61595000D01*
X94341000Y-61595000D01*
X94341000Y-61849000D01*
X94321000Y-61849000D01*
X94321000Y-62823250D01*
X94479750Y-62982000D01*
X94944000Y-62985072D01*
X95068482Y-62972812D01*
X95188180Y-62936502D01*
X95275401Y-62889881D01*
X95275400Y-65099891D01*
X95198891Y-65176400D01*
X83103094Y-65176400D01*
X83141500Y-64983321D01*
X83141500Y-64770679D01*
X83100015Y-64562122D01*
X83097051Y-64554965D01*
X83146494Y-64528537D01*
X83243185Y-64449185D01*
X83292000Y-64389704D01*
X83340815Y-64449185D01*
X83437506Y-64528537D01*
X83547820Y-64587502D01*
X83667518Y-64623812D01*
X83792000Y-64636072D01*
X84256250Y-64633000D01*
X84415000Y-64474250D01*
X84415000Y-63500000D01*
X84669000Y-63500000D01*
X84669000Y-64474250D01*
X84827750Y-64633000D01*
X85292000Y-64636072D01*
X85416482Y-64623812D01*
X85536180Y-64587502D01*
X85646494Y-64528537D01*
X85743185Y-64449185D01*
X85822537Y-64352494D01*
X85881502Y-64242180D01*
X85917812Y-64122482D01*
X85930072Y-63998000D01*
X85927000Y-63658750D01*
X85768250Y-63500000D01*
X84669000Y-63500000D01*
X84415000Y-63500000D01*
X84395000Y-63500000D01*
X84395000Y-63246000D01*
X84415000Y-63246000D01*
X84415000Y-62271750D01*
X84256250Y-62113000D01*
X83792000Y-62109928D01*
X83667518Y-62122188D01*
X83547820Y-62158498D01*
X83437506Y-62217463D01*
X83340815Y-62296815D01*
X83292000Y-62356296D01*
X83243185Y-62296815D01*
X83146494Y-62217463D01*
X83036180Y-62158498D01*
X82916482Y-62122188D01*
X82792000Y-62109928D01*
X81292000Y-62109928D01*
X81167518Y-62122188D01*
X81047820Y-62158498D01*
X80937506Y-62217463D01*
X80840815Y-62296815D01*
X80761463Y-62393506D01*
X80702498Y-62503820D01*
X80666188Y-62623518D01*
X80653928Y-62748000D01*
X80653928Y-63998000D01*
X80666188Y-64122482D01*
X80702498Y-64242180D01*
X80761463Y-64352494D01*
X80840815Y-64449185D01*
X80937506Y-64528537D01*
X81021712Y-64573547D01*
X80982500Y-64770679D01*
X80982500Y-64983321D01*
X81020309Y-65173397D01*
X80989814Y-65176400D01*
X80881601Y-65187058D01*
X80742751Y-65229178D01*
X80614787Y-65297576D01*
X80540851Y-65358254D01*
X80502625Y-65389625D01*
X80479559Y-65417731D01*
X79871467Y-66025824D01*
X79809141Y-65963498D01*
X79632335Y-65845360D01*
X79435878Y-65763985D01*
X79227321Y-65722500D01*
X79014679Y-65722500D01*
X78806122Y-65763985D01*
X78609665Y-65845360D01*
X78432859Y-65963498D01*
X78282498Y-66113859D01*
X78164360Y-66290665D01*
X78082985Y-66487122D01*
X78041500Y-66695679D01*
X69837642Y-66695679D01*
X69818005Y-66648273D01*
X69665120Y-66419465D01*
X69470535Y-66224880D01*
X69241727Y-66071995D01*
X69164485Y-66040000D01*
X69241727Y-66008005D01*
X69470535Y-65855120D01*
X69665120Y-65660535D01*
X69818005Y-65431727D01*
X69923314Y-65177490D01*
X69977000Y-64907592D01*
X69977000Y-64632408D01*
X69923314Y-64362510D01*
X69818005Y-64108273D01*
X69665120Y-63879465D01*
X69470535Y-63684880D01*
X69241727Y-63531995D01*
X69164485Y-63500000D01*
X69241727Y-63468005D01*
X69470535Y-63315120D01*
X69665120Y-63120535D01*
X69818005Y-62891727D01*
X69923314Y-62637490D01*
X69977000Y-62367592D01*
X69977000Y-62092408D01*
X69923314Y-61822510D01*
X69818005Y-61568273D01*
X69665120Y-61339465D01*
X69470535Y-61144880D01*
X69382535Y-61086080D01*
X69466482Y-61077812D01*
X69586180Y-61041502D01*
X69696494Y-60982537D01*
X69793185Y-60903185D01*
X69872537Y-60806494D01*
X69931502Y-60696180D01*
X69967812Y-60576482D01*
X69980072Y-60452000D01*
X69980072Y-58928000D01*
X69967812Y-58803518D01*
X69931502Y-58683820D01*
X69872537Y-58573506D01*
X69793185Y-58476815D01*
X69696494Y-58397463D01*
X69586180Y-58338498D01*
X69466482Y-58302188D01*
X69342000Y-58289928D01*
X67818000Y-58289928D01*
X67693518Y-58302188D01*
X67573820Y-58338498D01*
X67463506Y-58397463D01*
X67366815Y-58476815D01*
X67287463Y-58573506D01*
X67228498Y-58683820D01*
X67192188Y-58803518D01*
X67183920Y-58887465D01*
X67125120Y-58799465D01*
X66930535Y-58604880D01*
X66701727Y-58451995D01*
X66447490Y-58346686D01*
X66177592Y-58293000D01*
X65902408Y-58293000D01*
X65632510Y-58346686D01*
X65378273Y-58451995D01*
X65149465Y-58604880D01*
X64954880Y-58799465D01*
X64801995Y-59028273D01*
X64696686Y-59282510D01*
X64643000Y-59552408D01*
X62992000Y-59552408D01*
X62992000Y-57678679D01*
X70929500Y-57678679D01*
X70929500Y-57891321D01*
X70970985Y-58099878D01*
X71052360Y-58296335D01*
X71170498Y-58473141D01*
X71170800Y-58473443D01*
X71170801Y-64093827D01*
X71166746Y-64135000D01*
X71182929Y-64299315D01*
X71230858Y-64457316D01*
X71308691Y-64602931D01*
X71310500Y-64605135D01*
X71310500Y-64622321D01*
X71351985Y-64830878D01*
X71433360Y-65027335D01*
X71551498Y-65204141D01*
X71701859Y-65354502D01*
X71878665Y-65472640D01*
X72075122Y-65554015D01*
X72283679Y-65595500D01*
X72496321Y-65595500D01*
X72704878Y-65554015D01*
X72901335Y-65472640D01*
X73078141Y-65354502D01*
X73228502Y-65204141D01*
X73346640Y-65027335D01*
X73428015Y-64830878D01*
X73469500Y-64622321D01*
X73469500Y-64409679D01*
X73428015Y-64201122D01*
X73346640Y-64004665D01*
X73228502Y-63827859D01*
X73078141Y-63677498D01*
X72901335Y-63559360D01*
X72847200Y-63536937D01*
X72847200Y-59456679D01*
X78422500Y-59456679D01*
X78422500Y-59669321D01*
X78463985Y-59877878D01*
X78545360Y-60074335D01*
X78663498Y-60251141D01*
X78813859Y-60401502D01*
X78990665Y-60519640D01*
X79187122Y-60601015D01*
X79395679Y-60642500D01*
X79608321Y-60642500D01*
X79816878Y-60601015D01*
X80013335Y-60519640D01*
X80190141Y-60401502D01*
X80200500Y-60391143D01*
X80337859Y-60528502D01*
X80514665Y-60646640D01*
X80711122Y-60728015D01*
X80919679Y-60769500D01*
X81132321Y-60769500D01*
X81340878Y-60728015D01*
X81537335Y-60646640D01*
X81714141Y-60528502D01*
X81864502Y-60378141D01*
X81982640Y-60201335D01*
X82064015Y-60004878D01*
X82105500Y-59796321D01*
X82105500Y-59791600D01*
X82648957Y-59791600D01*
X82750859Y-59893502D01*
X82927665Y-60011640D01*
X83124122Y-60093015D01*
X83332679Y-60134500D01*
X83545321Y-60134500D01*
X83753878Y-60093015D01*
X83950335Y-60011640D01*
X84127141Y-59893502D01*
X84277502Y-59743141D01*
X84395640Y-59566335D01*
X84477015Y-59369878D01*
X84518500Y-59161321D01*
X84518500Y-58948679D01*
X84477015Y-58740122D01*
X84439105Y-58648600D01*
X84530891Y-58648600D01*
X84861401Y-58979111D01*
X84861400Y-61177816D01*
X84857836Y-61214000D01*
X84861400Y-61250183D01*
X84861400Y-61250185D01*
X84872058Y-61358398D01*
X84914178Y-61497248D01*
X84977481Y-61615679D01*
X84982576Y-61625212D01*
X85028221Y-61680830D01*
X85074625Y-61737374D01*
X85102732Y-61760441D01*
X85115055Y-61772764D01*
X85138126Y-61800876D01*
X85153500Y-61813493D01*
X85153500Y-61828321D01*
X85194985Y-62036878D01*
X85225426Y-62110369D01*
X84827750Y-62113000D01*
X84669000Y-62271750D01*
X84669000Y-63246000D01*
X85768250Y-63246000D01*
X85927000Y-63087250D01*
X85929942Y-62762366D01*
X86126679Y-62801500D01*
X86339321Y-62801500D01*
X86547878Y-62760015D01*
X86744335Y-62678640D01*
X86921141Y-62560502D01*
X87071502Y-62410141D01*
X87189640Y-62233335D01*
X87271015Y-62036878D01*
X87312500Y-61828321D01*
X87312500Y-61615679D01*
X87271015Y-61407122D01*
X87189640Y-61210665D01*
X87113692Y-61097000D01*
X90305928Y-61097000D01*
X90305928Y-62347000D01*
X90318188Y-62471482D01*
X90354498Y-62591180D01*
X90413463Y-62701494D01*
X90492815Y-62798185D01*
X90589506Y-62877537D01*
X90662106Y-62916343D01*
X90655985Y-62931122D01*
X90614500Y-63139679D01*
X90614500Y-63352321D01*
X90655985Y-63560878D01*
X90737360Y-63757335D01*
X90855498Y-63934141D01*
X91005859Y-64084502D01*
X91182665Y-64202640D01*
X91379122Y-64284015D01*
X91587679Y-64325500D01*
X91800321Y-64325500D01*
X92008878Y-64284015D01*
X92205335Y-64202640D01*
X92382141Y-64084502D01*
X92532502Y-63934141D01*
X92650640Y-63757335D01*
X92732015Y-63560878D01*
X92773500Y-63352321D01*
X92773500Y-63139679D01*
X92732015Y-62931122D01*
X92725894Y-62916343D01*
X92798494Y-62877537D01*
X92895185Y-62798185D01*
X92944000Y-62738704D01*
X92992815Y-62798185D01*
X93089506Y-62877537D01*
X93199820Y-62936502D01*
X93319518Y-62972812D01*
X93444000Y-62985072D01*
X93908250Y-62982000D01*
X94067000Y-62823250D01*
X94067000Y-61849000D01*
X94047000Y-61849000D01*
X94047000Y-61595000D01*
X94067000Y-61595000D01*
X94067000Y-60620750D01*
X93908250Y-60462000D01*
X93444000Y-60458928D01*
X93319518Y-60471188D01*
X93199820Y-60507498D01*
X93089506Y-60566463D01*
X92992815Y-60645815D01*
X92944000Y-60705296D01*
X92895185Y-60645815D01*
X92798494Y-60566463D01*
X92688180Y-60507498D01*
X92568482Y-60471188D01*
X92444000Y-60458928D01*
X90944000Y-60458928D01*
X90819518Y-60471188D01*
X90699820Y-60507498D01*
X90589506Y-60566463D01*
X90492815Y-60645815D01*
X90413463Y-60742506D01*
X90354498Y-60852820D01*
X90318188Y-60972518D01*
X90305928Y-61097000D01*
X87113692Y-61097000D01*
X87071502Y-61033859D01*
X86921141Y-60883498D01*
X86744335Y-60765360D01*
X86547878Y-60683985D01*
X86339321Y-60642500D01*
X86334600Y-60642500D01*
X86334600Y-58710186D01*
X86338164Y-58674000D01*
X86323942Y-58529601D01*
X86296633Y-58439576D01*
X86281822Y-58390751D01*
X86213424Y-58262787D01*
X86121375Y-58150625D01*
X86093269Y-58127559D01*
X86043710Y-58078000D01*
X149006928Y-58078000D01*
X149006928Y-59778000D01*
X149019188Y-59902482D01*
X149055498Y-60022180D01*
X149114463Y-60132494D01*
X149193815Y-60229185D01*
X149290506Y-60308537D01*
X149400820Y-60367502D01*
X149520518Y-60403812D01*
X149645000Y-60416072D01*
X151345000Y-60416072D01*
X151469482Y-60403812D01*
X151589180Y-60367502D01*
X151699494Y-60308537D01*
X151796185Y-60229185D01*
X151875537Y-60132494D01*
X151934502Y-60022180D01*
X151955393Y-59953313D01*
X151979866Y-59983134D01*
X152205986Y-60168706D01*
X152463966Y-60306599D01*
X152743889Y-60391513D01*
X152962050Y-60413000D01*
X153107950Y-60413000D01*
X153326111Y-60391513D01*
X153606034Y-60306599D01*
X153864014Y-60168706D01*
X154090134Y-59983134D01*
X154275706Y-59757014D01*
X154310201Y-59692477D01*
X154379822Y-59809355D01*
X154574731Y-60025588D01*
X154808080Y-60199641D01*
X155070901Y-60324825D01*
X155218110Y-60369476D01*
X155448000Y-60248155D01*
X155448000Y-59055000D01*
X155702000Y-59055000D01*
X155702000Y-60248155D01*
X155931890Y-60369476D01*
X156079099Y-60324825D01*
X156341920Y-60199641D01*
X156575269Y-60025588D01*
X156770178Y-59809355D01*
X156919157Y-59559252D01*
X157016481Y-59284891D01*
X156895814Y-59055000D01*
X155702000Y-59055000D01*
X155448000Y-59055000D01*
X155428000Y-59055000D01*
X155428000Y-58801000D01*
X155448000Y-58801000D01*
X155448000Y-57607845D01*
X155702000Y-57607845D01*
X155702000Y-58801000D01*
X156895814Y-58801000D01*
X157016481Y-58571109D01*
X156919157Y-58296748D01*
X156770178Y-58046645D01*
X156575269Y-57830412D01*
X156341920Y-57656359D01*
X156079099Y-57531175D01*
X155931890Y-57486524D01*
X155702000Y-57607845D01*
X155448000Y-57607845D01*
X155218110Y-57486524D01*
X155070901Y-57531175D01*
X154808080Y-57656359D01*
X154574731Y-57830412D01*
X154379822Y-58046645D01*
X154310201Y-58163523D01*
X154275706Y-58098986D01*
X154090134Y-57872866D01*
X153864014Y-57687294D01*
X153606034Y-57549401D01*
X153326111Y-57464487D01*
X153107950Y-57443000D01*
X152962050Y-57443000D01*
X152743889Y-57464487D01*
X152463966Y-57549401D01*
X152205986Y-57687294D01*
X151979866Y-57872866D01*
X151955393Y-57902687D01*
X151934502Y-57833820D01*
X151875537Y-57723506D01*
X151796185Y-57626815D01*
X151699494Y-57547463D01*
X151589180Y-57488498D01*
X151469482Y-57452188D01*
X151345000Y-57439928D01*
X149645000Y-57439928D01*
X149520518Y-57452188D01*
X149400820Y-57488498D01*
X149290506Y-57547463D01*
X149193815Y-57626815D01*
X149114463Y-57723506D01*
X149055498Y-57833820D01*
X149019188Y-57953518D01*
X149006928Y-58078000D01*
X86043710Y-58078000D01*
X85382445Y-57416736D01*
X85359375Y-57388625D01*
X85247213Y-57296576D01*
X85119249Y-57228178D01*
X84980399Y-57186058D01*
X84872186Y-57175400D01*
X84872183Y-57175400D01*
X84836000Y-57171836D01*
X84799817Y-57175400D01*
X81189186Y-57175400D01*
X81153000Y-57171836D01*
X81116814Y-57175400D01*
X81008601Y-57186058D01*
X80869751Y-57228178D01*
X80741787Y-57296576D01*
X80629625Y-57388625D01*
X80606559Y-57416731D01*
X79539791Y-58483500D01*
X79395679Y-58483500D01*
X79187122Y-58524985D01*
X78990665Y-58606360D01*
X78813859Y-58724498D01*
X78663498Y-58874859D01*
X78545360Y-59051665D01*
X78463985Y-59248122D01*
X78422500Y-59456679D01*
X72847200Y-59456679D01*
X72847200Y-58473443D01*
X72847502Y-58473141D01*
X72965640Y-58296335D01*
X73047015Y-58099878D01*
X73088500Y-57891321D01*
X73088500Y-57678679D01*
X73047015Y-57470122D01*
X72965640Y-57273665D01*
X72847502Y-57096859D01*
X72697141Y-56946498D01*
X72520335Y-56828360D01*
X72323878Y-56746985D01*
X72115321Y-56705500D01*
X71902679Y-56705500D01*
X71694122Y-56746985D01*
X71497665Y-56828360D01*
X71320859Y-56946498D01*
X71170498Y-57096859D01*
X71052360Y-57273665D01*
X70970985Y-57470122D01*
X70929500Y-57678679D01*
X62992000Y-57678679D01*
X62992000Y-56540000D01*
X158750000Y-56540000D01*
X158750000Y-75540000D01*
X158750000Y-75540000D01*
G37*
X158750000Y-75540000D02*
X62992000Y-75540000D01*
X62992000Y-72252408D01*
X64643000Y-72252408D01*
X64643000Y-72527592D01*
X64696686Y-72797490D01*
X64801995Y-73051727D01*
X64954880Y-73280535D01*
X65149465Y-73475120D01*
X65378273Y-73628005D01*
X65632510Y-73733314D01*
X65902408Y-73787000D01*
X66177592Y-73787000D01*
X66447490Y-73733314D01*
X66701727Y-73628005D01*
X66930535Y-73475120D01*
X67125120Y-73280535D01*
X67278005Y-73051727D01*
X67310000Y-72974485D01*
X67341995Y-73051727D01*
X67494880Y-73280535D01*
X67689465Y-73475120D01*
X67918273Y-73628005D01*
X68172510Y-73733314D01*
X68442408Y-73787000D01*
X68717592Y-73787000D01*
X68987490Y-73733314D01*
X69241727Y-73628005D01*
X69470535Y-73475120D01*
X69665120Y-73280535D01*
X69818005Y-73051727D01*
X69923314Y-72797490D01*
X69977000Y-72527592D01*
X69977000Y-72252408D01*
X69923314Y-71982510D01*
X69890247Y-71902679D01*
X79692500Y-71902679D01*
X79692500Y-72115321D01*
X79733985Y-72323878D01*
X79815360Y-72520335D01*
X79933498Y-72697141D01*
X80083859Y-72847502D01*
X80260665Y-72965640D01*
X80457122Y-73047015D01*
X80665679Y-73088500D01*
X80878321Y-73088500D01*
X81086878Y-73047015D01*
X81283335Y-72965640D01*
X81460141Y-72847502D01*
X81562043Y-72745600D01*
X82521957Y-72745600D01*
X82623859Y-72847502D01*
X82800665Y-72965640D01*
X82997122Y-73047015D01*
X83205679Y-73088500D01*
X83418321Y-73088500D01*
X83626878Y-73047015D01*
X83823335Y-72965640D01*
X84000141Y-72847502D01*
X84150502Y-72697141D01*
X84268640Y-72520335D01*
X84350015Y-72323878D01*
X84391500Y-72115321D01*
X84391500Y-71902679D01*
X84350015Y-71694122D01*
X84268640Y-71497665D01*
X84150502Y-71320859D01*
X84000141Y-71170498D01*
X83823335Y-71052360D01*
X83626878Y-70970985D01*
X83418321Y-70929500D01*
X83205679Y-70929500D01*
X83100598Y-70950402D01*
X83121500Y-70845321D01*
X83121500Y-70632679D01*
X83080614Y-70427132D01*
X83186494Y-70370537D01*
X83283185Y-70291185D01*
X83332000Y-70231704D01*
X83380815Y-70291185D01*
X83477506Y-70370537D01*
X83587820Y-70429502D01*
X83707518Y-70465812D01*
X83832000Y-70478072D01*
X84296250Y-70475000D01*
X84455000Y-70316250D01*
X84455000Y-69342000D01*
X84709000Y-69342000D01*
X84709000Y-70316250D01*
X84867750Y-70475000D01*
X85332000Y-70478072D01*
X85456482Y-70465812D01*
X85576180Y-70429502D01*
X85686494Y-70370537D01*
X85783185Y-70291185D01*
X85862537Y-70194494D01*
X85921502Y-70084180D01*
X85957812Y-69964482D01*
X85970072Y-69840000D01*
X85967000Y-69500750D01*
X85808250Y-69342000D01*
X84709000Y-69342000D01*
X84455000Y-69342000D01*
X84435000Y-69342000D01*
X84435000Y-69223000D01*
X92335928Y-69223000D01*
X92348188Y-69347482D01*
X92384498Y-69467180D01*
X92443463Y-69577494D01*
X92522815Y-69674185D01*
X92582296Y-69723000D01*
X92522815Y-69771815D01*
X92443463Y-69868506D01*
X92384498Y-69978820D01*
X92348188Y-70098518D01*
X92335928Y-70223000D01*
X92335928Y-71723000D01*
X92348188Y-71847482D01*
X92384498Y-71967180D01*
X92443463Y-72077494D01*
X92522815Y-72174185D01*
X92619506Y-72253537D01*
X92729820Y-72312502D01*
X92849518Y-72348812D01*
X92974000Y-72361072D01*
X94224000Y-72361072D01*
X94348482Y-72348812D01*
X94468180Y-72312502D01*
X94578494Y-72253537D01*
X94675185Y-72174185D01*
X94754537Y-72077494D01*
X94812739Y-71968607D01*
X94915122Y-72011015D01*
X95123679Y-72052500D01*
X95336321Y-72052500D01*
X95544878Y-72011015D01*
X95741335Y-71929640D01*
X95918141Y-71811502D01*
X96068502Y-71661141D01*
X96186640Y-71484335D01*
X96268015Y-71287878D01*
X96309500Y-71079321D01*
X96309500Y-70866679D01*
X96268015Y-70658122D01*
X96186640Y-70461665D01*
X96068502Y-70284859D01*
X95918141Y-70134498D01*
X95741335Y-70016360D01*
X95740466Y-70016000D01*
X122590928Y-70016000D01*
X122590928Y-71716000D01*
X122603188Y-71840482D01*
X122639498Y-71960180D01*
X122698463Y-72070494D01*
X122777815Y-72167185D01*
X122874506Y-72246537D01*
X122984820Y-72305502D01*
X123104518Y-72341812D01*
X123229000Y-72354072D01*
X124929000Y-72354072D01*
X125053482Y-72341812D01*
X125173180Y-72305502D01*
X125283494Y-72246537D01*
X125380185Y-72167185D01*
X125459537Y-72070494D01*
X125518502Y-71960180D01*
X125539393Y-71891313D01*
X125563866Y-71921134D01*
X125789986Y-72106706D01*
X126047966Y-72244599D01*
X126327889Y-72329513D01*
X126546050Y-72351000D01*
X126691950Y-72351000D01*
X126910111Y-72329513D01*
X127190034Y-72244599D01*
X127448014Y-72106706D01*
X127674134Y-71921134D01*
X127859706Y-71695014D01*
X127997599Y-71437034D01*
X128082513Y-71157111D01*
X128111185Y-70866000D01*
X128082513Y-70574889D01*
X127997599Y-70294966D01*
X127859706Y-70036986D01*
X127674134Y-69810866D01*
X127448014Y-69625294D01*
X127190034Y-69487401D01*
X126910111Y-69402487D01*
X126691950Y-69381000D01*
X126546050Y-69381000D01*
X126327889Y-69402487D01*
X126047966Y-69487401D01*
X125789986Y-69625294D01*
X125563866Y-69810866D01*
X125539393Y-69840687D01*
X125518502Y-69771820D01*
X125459537Y-69661506D01*
X125380185Y-69564815D01*
X125283494Y-69485463D01*
X125173180Y-69426498D01*
X125053482Y-69390188D01*
X124929000Y-69377928D01*
X123229000Y-69377928D01*
X123104518Y-69390188D01*
X122984820Y-69426498D01*
X122874506Y-69485463D01*
X122777815Y-69564815D01*
X122698463Y-69661506D01*
X122639498Y-69771820D01*
X122603188Y-69891518D01*
X122590928Y-70016000D01*
X95740466Y-70016000D01*
X95544878Y-69934985D01*
X95336321Y-69893500D01*
X95123679Y-69893500D01*
X94915122Y-69934985D01*
X94812739Y-69977393D01*
X94754537Y-69868506D01*
X94675185Y-69771815D01*
X94615704Y-69723000D01*
X94675185Y-69674185D01*
X94754537Y-69577494D01*
X94813502Y-69467180D01*
X94849812Y-69347482D01*
X94862072Y-69223000D01*
X94859000Y-68758750D01*
X94700250Y-68600000D01*
X93726000Y-68600000D01*
X93726000Y-68620000D01*
X93472000Y-68620000D01*
X93472000Y-68600000D01*
X92497750Y-68600000D01*
X92339000Y-68758750D01*
X92335928Y-69223000D01*
X84435000Y-69223000D01*
X84435000Y-69088000D01*
X84455000Y-69088000D01*
X84455000Y-68113750D01*
X84709000Y-68113750D01*
X84709000Y-69088000D01*
X85808250Y-69088000D01*
X85967000Y-68929250D01*
X85970072Y-68590000D01*
X85957812Y-68465518D01*
X85921502Y-68345820D01*
X85862537Y-68235506D01*
X85783185Y-68138815D01*
X85686494Y-68059463D01*
X85576180Y-68000498D01*
X85456482Y-67964188D01*
X85332000Y-67951928D01*
X84867750Y-67955000D01*
X84709000Y-68113750D01*
X84455000Y-68113750D01*
X84296250Y-67955000D01*
X83832000Y-67951928D01*
X83707518Y-67964188D01*
X83587820Y-68000498D01*
X83477506Y-68059463D01*
X83380815Y-68138815D01*
X83332000Y-68198296D01*
X83283185Y-68138815D01*
X83186494Y-68059463D01*
X83076180Y-68000498D01*
X82956482Y-67964188D01*
X82832000Y-67951928D01*
X81332000Y-67951928D01*
X81207518Y-67964188D01*
X81087820Y-68000498D01*
X80977506Y-68059463D01*
X80880815Y-68138815D01*
X80801463Y-68235506D01*
X80742498Y-68345820D01*
X80706188Y-68465518D01*
X80693928Y-68590000D01*
X80693928Y-69840000D01*
X80706188Y-69964482D01*
X80742498Y-70084180D01*
X80801463Y-70194494D01*
X80880815Y-70291185D01*
X80977506Y-70370537D01*
X81017357Y-70391838D01*
X81003985Y-70424122D01*
X80962500Y-70632679D01*
X80962500Y-70845321D01*
X80983402Y-70950402D01*
X80878321Y-70929500D01*
X80665679Y-70929500D01*
X80457122Y-70970985D01*
X80260665Y-71052360D01*
X80083859Y-71170498D01*
X79933498Y-71320859D01*
X79815360Y-71497665D01*
X79733985Y-71694122D01*
X79692500Y-71902679D01*
X69890247Y-71902679D01*
X69818005Y-71728273D01*
X69665120Y-71499465D01*
X69470535Y-71304880D01*
X69241727Y-71151995D01*
X69170057Y-71122308D01*
X69183023Y-71117636D01*
X69298980Y-71055656D01*
X69365960Y-70815565D01*
X68580000Y-70029605D01*
X67794040Y-70815565D01*
X67861020Y-71055656D01*
X67996760Y-71119485D01*
X67918273Y-71151995D01*
X67689465Y-71304880D01*
X67494880Y-71499465D01*
X67341995Y-71728273D01*
X67310000Y-71805515D01*
X67278005Y-71728273D01*
X67125120Y-71499465D01*
X66930535Y-71304880D01*
X66701727Y-71151995D01*
X66630057Y-71122308D01*
X66643023Y-71117636D01*
X66758980Y-71055656D01*
X66825960Y-70815565D01*
X66040000Y-70029605D01*
X65254040Y-70815565D01*
X65321020Y-71055656D01*
X65456760Y-71119485D01*
X65378273Y-71151995D01*
X65149465Y-71304880D01*
X64954880Y-71499465D01*
X64801995Y-71728273D01*
X64696686Y-71982510D01*
X64643000Y-72252408D01*
X62992000Y-72252408D01*
X62992000Y-69922017D01*
X64638090Y-69922017D01*
X64679078Y-70194133D01*
X64772364Y-70453023D01*
X64834344Y-70568980D01*
X65074435Y-70635960D01*
X65860395Y-69850000D01*
X66219605Y-69850000D01*
X67005565Y-70635960D01*
X67245656Y-70568980D01*
X67307079Y-70438356D01*
X67312364Y-70453023D01*
X67374344Y-70568980D01*
X67614435Y-70635960D01*
X68400395Y-69850000D01*
X68759605Y-69850000D01*
X69545565Y-70635960D01*
X69785656Y-70568980D01*
X69902756Y-70319952D01*
X69969023Y-70052865D01*
X69981910Y-69777983D01*
X69940922Y-69505867D01*
X69847636Y-69246977D01*
X69785656Y-69131020D01*
X69545565Y-69064040D01*
X68759605Y-69850000D01*
X68400395Y-69850000D01*
X67614435Y-69064040D01*
X67374344Y-69131020D01*
X67312921Y-69261644D01*
X67307636Y-69246977D01*
X67245656Y-69131020D01*
X67005565Y-69064040D01*
X66219605Y-69850000D01*
X65860395Y-69850000D01*
X65074435Y-69064040D01*
X64834344Y-69131020D01*
X64717244Y-69380048D01*
X64650977Y-69647135D01*
X64638090Y-69922017D01*
X62992000Y-69922017D01*
X62992000Y-59552408D01*
X64643000Y-59552408D01*
X64643000Y-59827592D01*
X64696686Y-60097490D01*
X64801995Y-60351727D01*
X64954880Y-60580535D01*
X65149465Y-60775120D01*
X65378273Y-60928005D01*
X65455515Y-60960000D01*
X65378273Y-60991995D01*
X65149465Y-61144880D01*
X64954880Y-61339465D01*
X64801995Y-61568273D01*
X64696686Y-61822510D01*
X64643000Y-62092408D01*
X64643000Y-62367592D01*
X64696686Y-62637490D01*
X64801995Y-62891727D01*
X64954880Y-63120535D01*
X65149465Y-63315120D01*
X65378273Y-63468005D01*
X65455515Y-63500000D01*
X65378273Y-63531995D01*
X65149465Y-63684880D01*
X64954880Y-63879465D01*
X64801995Y-64108273D01*
X64696686Y-64362510D01*
X64643000Y-64632408D01*
X64643000Y-64907592D01*
X64696686Y-65177490D01*
X64801995Y-65431727D01*
X64954880Y-65660535D01*
X65149465Y-65855120D01*
X65378273Y-66008005D01*
X65455515Y-66040000D01*
X65378273Y-66071995D01*
X65149465Y-66224880D01*
X64954880Y-66419465D01*
X64801995Y-66648273D01*
X64696686Y-66902510D01*
X64643000Y-67172408D01*
X64643000Y-67447592D01*
X64696686Y-67717490D01*
X64801995Y-67971727D01*
X64954880Y-68200535D01*
X65149465Y-68395120D01*
X65378273Y-68548005D01*
X65449943Y-68577692D01*
X65436977Y-68582364D01*
X65321020Y-68644344D01*
X65254040Y-68884435D01*
X66040000Y-69670395D01*
X66825960Y-68884435D01*
X66758980Y-68644344D01*
X66623240Y-68580515D01*
X66701727Y-68548005D01*
X66930535Y-68395120D01*
X67125120Y-68200535D01*
X67278005Y-67971727D01*
X67310000Y-67894485D01*
X67341995Y-67971727D01*
X67494880Y-68200535D01*
X67689465Y-68395120D01*
X67918273Y-68548005D01*
X67989943Y-68577692D01*
X67976977Y-68582364D01*
X67861020Y-68644344D01*
X67794040Y-68884435D01*
X68580000Y-69670395D01*
X69365960Y-68884435D01*
X69298980Y-68644344D01*
X69163240Y-68580515D01*
X69241727Y-68548005D01*
X69470535Y-68395120D01*
X69665120Y-68200535D01*
X69818005Y-67971727D01*
X69923314Y-67717490D01*
X69977000Y-67447592D01*
X69977000Y-67172408D01*
X69923314Y-66902510D01*
X69837642Y-66695679D01*
X78041500Y-66695679D01*
X78041500Y-66908321D01*
X78082985Y-67116878D01*
X78164360Y-67313335D01*
X78282498Y-67490141D01*
X78432859Y-67640502D01*
X78609665Y-67758640D01*
X78806122Y-67840015D01*
X79014679Y-67881500D01*
X79227321Y-67881500D01*
X79435878Y-67840015D01*
X79632335Y-67758640D01*
X79685674Y-67723000D01*
X92335928Y-67723000D01*
X92339000Y-68187250D01*
X92497750Y-68346000D01*
X93472000Y-68346000D01*
X93472000Y-67246750D01*
X93726000Y-67246750D01*
X93726000Y-68346000D01*
X94700250Y-68346000D01*
X94859000Y-68187250D01*
X94862072Y-67723000D01*
X94849812Y-67598518D01*
X94813502Y-67478820D01*
X94754537Y-67368506D01*
X94675185Y-67271815D01*
X94578494Y-67192463D01*
X94468180Y-67133498D01*
X94348482Y-67097188D01*
X94224000Y-67084928D01*
X93884750Y-67088000D01*
X93726000Y-67246750D01*
X93472000Y-67246750D01*
X93313250Y-67088000D01*
X92974000Y-67084928D01*
X92849518Y-67097188D01*
X92729820Y-67133498D01*
X92619506Y-67192463D01*
X92522815Y-67271815D01*
X92443463Y-67368506D01*
X92384498Y-67478820D01*
X92348188Y-67598518D01*
X92335928Y-67723000D01*
X79685674Y-67723000D01*
X79809141Y-67640502D01*
X79911043Y-67538600D01*
X80100817Y-67538600D01*
X80137000Y-67542164D01*
X80173183Y-67538600D01*
X80173186Y-67538600D01*
X80281399Y-67527942D01*
X80420249Y-67485822D01*
X80548213Y-67417424D01*
X80660375Y-67325375D01*
X80683445Y-67297264D01*
X81331110Y-66649600D01*
X95467817Y-66649600D01*
X95504000Y-66653164D01*
X95540183Y-66649600D01*
X95540186Y-66649600D01*
X95648399Y-66638942D01*
X95787249Y-66596822D01*
X95915213Y-66528424D01*
X96027375Y-66436375D01*
X96050446Y-66408263D01*
X96368824Y-66089885D01*
X120212557Y-66089885D01*
X120255178Y-66257324D01*
X120400483Y-66581985D01*
X120606334Y-66872060D01*
X120864821Y-67116402D01*
X121166010Y-67305621D01*
X121498327Y-67432445D01*
X121849000Y-67492000D01*
X122174000Y-67492000D01*
X122174000Y-65809000D01*
X122428000Y-65809000D01*
X122428000Y-67492000D01*
X122753000Y-67492000D01*
X123103673Y-67432445D01*
X123435990Y-67305621D01*
X123598255Y-67203679D01*
X128206500Y-67203679D01*
X128206500Y-67416321D01*
X128247985Y-67624878D01*
X128329360Y-67821335D01*
X128447498Y-67998141D01*
X128597859Y-68148502D01*
X128774665Y-68266640D01*
X128971122Y-68348015D01*
X129179679Y-68389500D01*
X129180107Y-68389500D01*
X132004293Y-71213687D01*
X132030535Y-71245663D01*
X132158167Y-71350408D01*
X132303782Y-71428241D01*
X132461783Y-71476170D01*
X132584929Y-71488299D01*
X132584936Y-71488299D01*
X132626098Y-71492353D01*
X132667261Y-71488299D01*
X152308458Y-71488299D01*
X152308760Y-71488601D01*
X152485566Y-71606739D01*
X152682023Y-71688114D01*
X152720130Y-71695694D01*
X152463966Y-71773401D01*
X152205986Y-71911294D01*
X151979866Y-72096866D01*
X151955393Y-72126687D01*
X151934502Y-72057820D01*
X151875537Y-71947506D01*
X151796185Y-71850815D01*
X151699494Y-71771463D01*
X151589180Y-71712498D01*
X151469482Y-71676188D01*
X151345000Y-71663928D01*
X149645000Y-71663928D01*
X149520518Y-71676188D01*
X149400820Y-71712498D01*
X149290506Y-71771463D01*
X149193815Y-71850815D01*
X149114463Y-71947506D01*
X149055498Y-72057820D01*
X149019188Y-72177518D01*
X149006928Y-72302000D01*
X149006928Y-74002000D01*
X149019188Y-74126482D01*
X149055498Y-74246180D01*
X149114463Y-74356494D01*
X149193815Y-74453185D01*
X149290506Y-74532537D01*
X149400820Y-74591502D01*
X149520518Y-74627812D01*
X149645000Y-74640072D01*
X151345000Y-74640072D01*
X151469482Y-74627812D01*
X151589180Y-74591502D01*
X151699494Y-74532537D01*
X151796185Y-74453185D01*
X151875537Y-74356494D01*
X151934502Y-74246180D01*
X151955393Y-74177313D01*
X151979866Y-74207134D01*
X152205986Y-74392706D01*
X152463966Y-74530599D01*
X152743889Y-74615513D01*
X152962050Y-74637000D01*
X153107950Y-74637000D01*
X153326111Y-74615513D01*
X153606034Y-74530599D01*
X153864014Y-74392706D01*
X154090134Y-74207134D01*
X154275706Y-73981014D01*
X154310201Y-73916477D01*
X154379822Y-74033355D01*
X154574731Y-74249588D01*
X154808080Y-74423641D01*
X155070901Y-74548825D01*
X155218110Y-74593476D01*
X155448000Y-74472155D01*
X155448000Y-73279000D01*
X155702000Y-73279000D01*
X155702000Y-74472155D01*
X155931890Y-74593476D01*
X156079099Y-74548825D01*
X156341920Y-74423641D01*
X156575269Y-74249588D01*
X156770178Y-74033355D01*
X156919157Y-73783252D01*
X157016481Y-73508891D01*
X156895814Y-73279000D01*
X155702000Y-73279000D01*
X155448000Y-73279000D01*
X155428000Y-73279000D01*
X155428000Y-73025000D01*
X155448000Y-73025000D01*
X155448000Y-71831845D01*
X155702000Y-71831845D01*
X155702000Y-73025000D01*
X156895814Y-73025000D01*
X157016481Y-72795109D01*
X156919157Y-72520748D01*
X156770178Y-72270645D01*
X156575269Y-72054412D01*
X156341920Y-71880359D01*
X156079099Y-71755175D01*
X155931890Y-71710524D01*
X155702000Y-71831845D01*
X155448000Y-71831845D01*
X155218110Y-71710524D01*
X155070901Y-71755175D01*
X154808080Y-71880359D01*
X154574731Y-72054412D01*
X154379822Y-72270645D01*
X154310201Y-72387523D01*
X154275706Y-72322986D01*
X154090134Y-72096866D01*
X153864014Y-71911294D01*
X153606034Y-71773401D01*
X153326111Y-71688487D01*
X153313805Y-71687275D01*
X153508236Y-71606739D01*
X153685042Y-71488601D01*
X153835403Y-71338240D01*
X153953541Y-71161434D01*
X154034916Y-70964977D01*
X154076401Y-70756420D01*
X154076401Y-70543778D01*
X154034916Y-70335221D01*
X153953541Y-70138764D01*
X153835403Y-69961958D01*
X153685042Y-69811597D01*
X153508236Y-69693459D01*
X153311779Y-69612084D01*
X153103222Y-69570599D01*
X152890580Y-69570599D01*
X152682023Y-69612084D01*
X152485566Y-69693459D01*
X152308760Y-69811597D01*
X152308458Y-69811899D01*
X138990786Y-69811899D01*
X139080375Y-69738375D01*
X139103445Y-69710264D01*
X140322273Y-68491437D01*
X140350374Y-68468375D01*
X140373437Y-68440273D01*
X140373442Y-68440268D01*
X140442423Y-68356214D01*
X140442425Y-68356212D01*
X140510822Y-68228249D01*
X140552942Y-68089399D01*
X140563600Y-67981186D01*
X140563600Y-67981177D01*
X140567163Y-67945001D01*
X140563600Y-67908825D01*
X140563600Y-67211043D01*
X140665502Y-67109141D01*
X140783640Y-66932335D01*
X140865015Y-66735878D01*
X140906500Y-66527321D01*
X140906500Y-66314679D01*
X140865015Y-66106122D01*
X140783640Y-65909665D01*
X140665502Y-65732859D01*
X140515141Y-65582498D01*
X140338335Y-65464360D01*
X140141878Y-65382985D01*
X139933321Y-65341500D01*
X139720679Y-65341500D01*
X139512122Y-65382985D01*
X139315665Y-65464360D01*
X139138859Y-65582498D01*
X138988498Y-65732859D01*
X138870360Y-65909665D01*
X138788985Y-66106122D01*
X138747500Y-66314679D01*
X138747500Y-66527321D01*
X138788985Y-66735878D01*
X138870360Y-66932335D01*
X138988498Y-67109141D01*
X139090400Y-67211043D01*
X139090400Y-67639890D01*
X138251891Y-68478400D01*
X137569043Y-68478400D01*
X137467141Y-68376498D01*
X137290335Y-68258360D01*
X137093878Y-68176985D01*
X136885321Y-68135500D01*
X136672679Y-68135500D01*
X136464122Y-68176985D01*
X136267665Y-68258360D01*
X136090859Y-68376498D01*
X135940498Y-68526859D01*
X135822360Y-68703665D01*
X135740985Y-68900122D01*
X135699500Y-69108679D01*
X135699500Y-69321321D01*
X135740985Y-69529878D01*
X135822360Y-69726335D01*
X135879532Y-69811899D01*
X132973293Y-69811899D01*
X130365500Y-67204107D01*
X130365500Y-67203679D01*
X130324015Y-66995122D01*
X130242640Y-66798665D01*
X130124502Y-66621859D01*
X129974141Y-66471498D01*
X129797335Y-66353360D01*
X129600878Y-66271985D01*
X129392321Y-66230500D01*
X129179679Y-66230500D01*
X128971122Y-66271985D01*
X128774665Y-66353360D01*
X128597859Y-66471498D01*
X128447498Y-66621859D01*
X128329360Y-66798665D01*
X128247985Y-66995122D01*
X128206500Y-67203679D01*
X123598255Y-67203679D01*
X123737179Y-67116402D01*
X123995666Y-66872060D01*
X124201517Y-66581985D01*
X124346822Y-66257324D01*
X124389443Y-66089885D01*
X124272359Y-65809000D01*
X122428000Y-65809000D01*
X122174000Y-65809000D01*
X120329641Y-65809000D01*
X120212557Y-66089885D01*
X96368824Y-66089885D01*
X96507268Y-65951441D01*
X96535374Y-65928375D01*
X96627424Y-65816213D01*
X96695822Y-65688249D01*
X96737942Y-65549399D01*
X96748600Y-65441186D01*
X96748600Y-65441177D01*
X96752163Y-65405001D01*
X96748600Y-65368825D01*
X96748600Y-65274115D01*
X120212557Y-65274115D01*
X120329641Y-65555000D01*
X122174000Y-65555000D01*
X122174000Y-63872000D01*
X122428000Y-63872000D01*
X122428000Y-65555000D01*
X124272359Y-65555000D01*
X124389443Y-65274115D01*
X124346822Y-65106676D01*
X124201517Y-64782015D01*
X123995666Y-64491940D01*
X123737179Y-64247598D01*
X123435990Y-64058379D01*
X123103673Y-63931555D01*
X122753000Y-63872000D01*
X122428000Y-63872000D01*
X122174000Y-63872000D01*
X121849000Y-63872000D01*
X121498327Y-63931555D01*
X121166010Y-64058379D01*
X120864821Y-64247598D01*
X120606334Y-64491940D01*
X120400483Y-64782015D01*
X120255178Y-65106676D01*
X120212557Y-65274115D01*
X96748600Y-65274115D01*
X96748600Y-62639043D01*
X96850502Y-62537141D01*
X96968640Y-62360335D01*
X97050015Y-62163878D01*
X97091500Y-61955321D01*
X97091500Y-61742679D01*
X97050015Y-61534122D01*
X96968640Y-61337665D01*
X96850502Y-61160859D01*
X96700141Y-61010498D01*
X96523335Y-60892360D01*
X96326878Y-60810985D01*
X96118321Y-60769500D01*
X95905679Y-60769500D01*
X95697122Y-60810985D01*
X95540492Y-60875863D01*
X95533502Y-60852820D01*
X95474537Y-60742506D01*
X95395185Y-60645815D01*
X95298494Y-60566463D01*
X95262082Y-60547000D01*
X120162928Y-60547000D01*
X120162928Y-62897000D01*
X120175188Y-63021482D01*
X120211498Y-63141180D01*
X120270463Y-63251494D01*
X120349815Y-63348185D01*
X120446506Y-63427537D01*
X120556820Y-63486502D01*
X120676518Y-63522812D01*
X120801000Y-63535072D01*
X123801000Y-63535072D01*
X123925482Y-63522812D01*
X124045180Y-63486502D01*
X124155494Y-63427537D01*
X124252185Y-63348185D01*
X124331537Y-63251494D01*
X124390502Y-63141180D01*
X124426812Y-63021482D01*
X124439072Y-62897000D01*
X124439072Y-60547000D01*
X124426812Y-60422518D01*
X124390502Y-60302820D01*
X124331537Y-60192506D01*
X124252185Y-60095815D01*
X124155494Y-60016463D01*
X124045180Y-59957498D01*
X123925482Y-59921188D01*
X123801000Y-59908928D01*
X120801000Y-59908928D01*
X120676518Y-59921188D01*
X120556820Y-59957498D01*
X120446506Y-60016463D01*
X120349815Y-60095815D01*
X120270463Y-60192506D01*
X120211498Y-60302820D01*
X120175188Y-60422518D01*
X120162928Y-60547000D01*
X95262082Y-60547000D01*
X95188180Y-60507498D01*
X95068482Y-60471188D01*
X94944000Y-60458928D01*
X94479750Y-60462000D01*
X94321000Y-60620750D01*
X94321000Y-61595000D01*
X94341000Y-61595000D01*
X94341000Y-61849000D01*
X94321000Y-61849000D01*
X94321000Y-62823250D01*
X94479750Y-62982000D01*
X94944000Y-62985072D01*
X95068482Y-62972812D01*
X95188180Y-62936502D01*
X95275401Y-62889881D01*
X95275400Y-65099891D01*
X95198891Y-65176400D01*
X83103094Y-65176400D01*
X83141500Y-64983321D01*
X83141500Y-64770679D01*
X83100015Y-64562122D01*
X83097051Y-64554965D01*
X83146494Y-64528537D01*
X83243185Y-64449185D01*
X83292000Y-64389704D01*
X83340815Y-64449185D01*
X83437506Y-64528537D01*
X83547820Y-64587502D01*
X83667518Y-64623812D01*
X83792000Y-64636072D01*
X84256250Y-64633000D01*
X84415000Y-64474250D01*
X84415000Y-63500000D01*
X84669000Y-63500000D01*
X84669000Y-64474250D01*
X84827750Y-64633000D01*
X85292000Y-64636072D01*
X85416482Y-64623812D01*
X85536180Y-64587502D01*
X85646494Y-64528537D01*
X85743185Y-64449185D01*
X85822537Y-64352494D01*
X85881502Y-64242180D01*
X85917812Y-64122482D01*
X85930072Y-63998000D01*
X85927000Y-63658750D01*
X85768250Y-63500000D01*
X84669000Y-63500000D01*
X84415000Y-63500000D01*
X84395000Y-63500000D01*
X84395000Y-63246000D01*
X84415000Y-63246000D01*
X84415000Y-62271750D01*
X84256250Y-62113000D01*
X83792000Y-62109928D01*
X83667518Y-62122188D01*
X83547820Y-62158498D01*
X83437506Y-62217463D01*
X83340815Y-62296815D01*
X83292000Y-62356296D01*
X83243185Y-62296815D01*
X83146494Y-62217463D01*
X83036180Y-62158498D01*
X82916482Y-62122188D01*
X82792000Y-62109928D01*
X81292000Y-62109928D01*
X81167518Y-62122188D01*
X81047820Y-62158498D01*
X80937506Y-62217463D01*
X80840815Y-62296815D01*
X80761463Y-62393506D01*
X80702498Y-62503820D01*
X80666188Y-62623518D01*
X80653928Y-62748000D01*
X80653928Y-63998000D01*
X80666188Y-64122482D01*
X80702498Y-64242180D01*
X80761463Y-64352494D01*
X80840815Y-64449185D01*
X80937506Y-64528537D01*
X81021712Y-64573547D01*
X80982500Y-64770679D01*
X80982500Y-64983321D01*
X81020309Y-65173397D01*
X80989814Y-65176400D01*
X80881601Y-65187058D01*
X80742751Y-65229178D01*
X80614787Y-65297576D01*
X80540851Y-65358254D01*
X80502625Y-65389625D01*
X80479559Y-65417731D01*
X79871467Y-66025824D01*
X79809141Y-65963498D01*
X79632335Y-65845360D01*
X79435878Y-65763985D01*
X79227321Y-65722500D01*
X79014679Y-65722500D01*
X78806122Y-65763985D01*
X78609665Y-65845360D01*
X78432859Y-65963498D01*
X78282498Y-66113859D01*
X78164360Y-66290665D01*
X78082985Y-66487122D01*
X78041500Y-66695679D01*
X69837642Y-66695679D01*
X69818005Y-66648273D01*
X69665120Y-66419465D01*
X69470535Y-66224880D01*
X69241727Y-66071995D01*
X69164485Y-66040000D01*
X69241727Y-66008005D01*
X69470535Y-65855120D01*
X69665120Y-65660535D01*
X69818005Y-65431727D01*
X69923314Y-65177490D01*
X69977000Y-64907592D01*
X69977000Y-64632408D01*
X69923314Y-64362510D01*
X69818005Y-64108273D01*
X69665120Y-63879465D01*
X69470535Y-63684880D01*
X69241727Y-63531995D01*
X69164485Y-63500000D01*
X69241727Y-63468005D01*
X69470535Y-63315120D01*
X69665120Y-63120535D01*
X69818005Y-62891727D01*
X69923314Y-62637490D01*
X69977000Y-62367592D01*
X69977000Y-62092408D01*
X69923314Y-61822510D01*
X69818005Y-61568273D01*
X69665120Y-61339465D01*
X69470535Y-61144880D01*
X69382535Y-61086080D01*
X69466482Y-61077812D01*
X69586180Y-61041502D01*
X69696494Y-60982537D01*
X69793185Y-60903185D01*
X69872537Y-60806494D01*
X69931502Y-60696180D01*
X69967812Y-60576482D01*
X69980072Y-60452000D01*
X69980072Y-58928000D01*
X69967812Y-58803518D01*
X69931502Y-58683820D01*
X69872537Y-58573506D01*
X69793185Y-58476815D01*
X69696494Y-58397463D01*
X69586180Y-58338498D01*
X69466482Y-58302188D01*
X69342000Y-58289928D01*
X67818000Y-58289928D01*
X67693518Y-58302188D01*
X67573820Y-58338498D01*
X67463506Y-58397463D01*
X67366815Y-58476815D01*
X67287463Y-58573506D01*
X67228498Y-58683820D01*
X67192188Y-58803518D01*
X67183920Y-58887465D01*
X67125120Y-58799465D01*
X66930535Y-58604880D01*
X66701727Y-58451995D01*
X66447490Y-58346686D01*
X66177592Y-58293000D01*
X65902408Y-58293000D01*
X65632510Y-58346686D01*
X65378273Y-58451995D01*
X65149465Y-58604880D01*
X64954880Y-58799465D01*
X64801995Y-59028273D01*
X64696686Y-59282510D01*
X64643000Y-59552408D01*
X62992000Y-59552408D01*
X62992000Y-57678679D01*
X70929500Y-57678679D01*
X70929500Y-57891321D01*
X70970985Y-58099878D01*
X71052360Y-58296335D01*
X71170498Y-58473141D01*
X71170800Y-58473443D01*
X71170801Y-64093827D01*
X71166746Y-64135000D01*
X71182929Y-64299315D01*
X71230858Y-64457316D01*
X71308691Y-64602931D01*
X71310500Y-64605135D01*
X71310500Y-64622321D01*
X71351985Y-64830878D01*
X71433360Y-65027335D01*
X71551498Y-65204141D01*
X71701859Y-65354502D01*
X71878665Y-65472640D01*
X72075122Y-65554015D01*
X72283679Y-65595500D01*
X72496321Y-65595500D01*
X72704878Y-65554015D01*
X72901335Y-65472640D01*
X73078141Y-65354502D01*
X73228502Y-65204141D01*
X73346640Y-65027335D01*
X73428015Y-64830878D01*
X73469500Y-64622321D01*
X73469500Y-64409679D01*
X73428015Y-64201122D01*
X73346640Y-64004665D01*
X73228502Y-63827859D01*
X73078141Y-63677498D01*
X72901335Y-63559360D01*
X72847200Y-63536937D01*
X72847200Y-59456679D01*
X78422500Y-59456679D01*
X78422500Y-59669321D01*
X78463985Y-59877878D01*
X78545360Y-60074335D01*
X78663498Y-60251141D01*
X78813859Y-60401502D01*
X78990665Y-60519640D01*
X79187122Y-60601015D01*
X79395679Y-60642500D01*
X79608321Y-60642500D01*
X79816878Y-60601015D01*
X80013335Y-60519640D01*
X80190141Y-60401502D01*
X80200500Y-60391143D01*
X80337859Y-60528502D01*
X80514665Y-60646640D01*
X80711122Y-60728015D01*
X80919679Y-60769500D01*
X81132321Y-60769500D01*
X81340878Y-60728015D01*
X81537335Y-60646640D01*
X81714141Y-60528502D01*
X81864502Y-60378141D01*
X81982640Y-60201335D01*
X82064015Y-60004878D01*
X82105500Y-59796321D01*
X82105500Y-59791600D01*
X82648957Y-59791600D01*
X82750859Y-59893502D01*
X82927665Y-60011640D01*
X83124122Y-60093015D01*
X83332679Y-60134500D01*
X83545321Y-60134500D01*
X83753878Y-60093015D01*
X83950335Y-60011640D01*
X84127141Y-59893502D01*
X84277502Y-59743141D01*
X84395640Y-59566335D01*
X84477015Y-59369878D01*
X84518500Y-59161321D01*
X84518500Y-58948679D01*
X84477015Y-58740122D01*
X84439105Y-58648600D01*
X84530891Y-58648600D01*
X84861401Y-58979111D01*
X84861400Y-61177816D01*
X84857836Y-61214000D01*
X84861400Y-61250183D01*
X84861400Y-61250185D01*
X84872058Y-61358398D01*
X84914178Y-61497248D01*
X84977481Y-61615679D01*
X84982576Y-61625212D01*
X85028221Y-61680830D01*
X85074625Y-61737374D01*
X85102732Y-61760441D01*
X85115055Y-61772764D01*
X85138126Y-61800876D01*
X85153500Y-61813493D01*
X85153500Y-61828321D01*
X85194985Y-62036878D01*
X85225426Y-62110369D01*
X84827750Y-62113000D01*
X84669000Y-62271750D01*
X84669000Y-63246000D01*
X85768250Y-63246000D01*
X85927000Y-63087250D01*
X85929942Y-62762366D01*
X86126679Y-62801500D01*
X86339321Y-62801500D01*
X86547878Y-62760015D01*
X86744335Y-62678640D01*
X86921141Y-62560502D01*
X87071502Y-62410141D01*
X87189640Y-62233335D01*
X87271015Y-62036878D01*
X87312500Y-61828321D01*
X87312500Y-61615679D01*
X87271015Y-61407122D01*
X87189640Y-61210665D01*
X87113692Y-61097000D01*
X90305928Y-61097000D01*
X90305928Y-62347000D01*
X90318188Y-62471482D01*
X90354498Y-62591180D01*
X90413463Y-62701494D01*
X90492815Y-62798185D01*
X90589506Y-62877537D01*
X90662106Y-62916343D01*
X90655985Y-62931122D01*
X90614500Y-63139679D01*
X90614500Y-63352321D01*
X90655985Y-63560878D01*
X90737360Y-63757335D01*
X90855498Y-63934141D01*
X91005859Y-64084502D01*
X91182665Y-64202640D01*
X91379122Y-64284015D01*
X91587679Y-64325500D01*
X91800321Y-64325500D01*
X92008878Y-64284015D01*
X92205335Y-64202640D01*
X92382141Y-64084502D01*
X92532502Y-63934141D01*
X92650640Y-63757335D01*
X92732015Y-63560878D01*
X92773500Y-63352321D01*
X92773500Y-63139679D01*
X92732015Y-62931122D01*
X92725894Y-62916343D01*
X92798494Y-62877537D01*
X92895185Y-62798185D01*
X92944000Y-62738704D01*
X92992815Y-62798185D01*
X93089506Y-62877537D01*
X93199820Y-62936502D01*
X93319518Y-62972812D01*
X93444000Y-62985072D01*
X93908250Y-62982000D01*
X94067000Y-62823250D01*
X94067000Y-61849000D01*
X94047000Y-61849000D01*
X94047000Y-61595000D01*
X94067000Y-61595000D01*
X94067000Y-60620750D01*
X93908250Y-60462000D01*
X93444000Y-60458928D01*
X93319518Y-60471188D01*
X93199820Y-60507498D01*
X93089506Y-60566463D01*
X92992815Y-60645815D01*
X92944000Y-60705296D01*
X92895185Y-60645815D01*
X92798494Y-60566463D01*
X92688180Y-60507498D01*
X92568482Y-60471188D01*
X92444000Y-60458928D01*
X90944000Y-60458928D01*
X90819518Y-60471188D01*
X90699820Y-60507498D01*
X90589506Y-60566463D01*
X90492815Y-60645815D01*
X90413463Y-60742506D01*
X90354498Y-60852820D01*
X90318188Y-60972518D01*
X90305928Y-61097000D01*
X87113692Y-61097000D01*
X87071502Y-61033859D01*
X86921141Y-60883498D01*
X86744335Y-60765360D01*
X86547878Y-60683985D01*
X86339321Y-60642500D01*
X86334600Y-60642500D01*
X86334600Y-58710186D01*
X86338164Y-58674000D01*
X86323942Y-58529601D01*
X86296633Y-58439576D01*
X86281822Y-58390751D01*
X86213424Y-58262787D01*
X86121375Y-58150625D01*
X86093269Y-58127559D01*
X86043710Y-58078000D01*
X149006928Y-58078000D01*
X149006928Y-59778000D01*
X149019188Y-59902482D01*
X149055498Y-60022180D01*
X149114463Y-60132494D01*
X149193815Y-60229185D01*
X149290506Y-60308537D01*
X149400820Y-60367502D01*
X149520518Y-60403812D01*
X149645000Y-60416072D01*
X151345000Y-60416072D01*
X151469482Y-60403812D01*
X151589180Y-60367502D01*
X151699494Y-60308537D01*
X151796185Y-60229185D01*
X151875537Y-60132494D01*
X151934502Y-60022180D01*
X151955393Y-59953313D01*
X151979866Y-59983134D01*
X152205986Y-60168706D01*
X152463966Y-60306599D01*
X152743889Y-60391513D01*
X152962050Y-60413000D01*
X153107950Y-60413000D01*
X153326111Y-60391513D01*
X153606034Y-60306599D01*
X153864014Y-60168706D01*
X154090134Y-59983134D01*
X154275706Y-59757014D01*
X154310201Y-59692477D01*
X154379822Y-59809355D01*
X154574731Y-60025588D01*
X154808080Y-60199641D01*
X155070901Y-60324825D01*
X155218110Y-60369476D01*
X155448000Y-60248155D01*
X155448000Y-59055000D01*
X155702000Y-59055000D01*
X155702000Y-60248155D01*
X155931890Y-60369476D01*
X156079099Y-60324825D01*
X156341920Y-60199641D01*
X156575269Y-60025588D01*
X156770178Y-59809355D01*
X156919157Y-59559252D01*
X157016481Y-59284891D01*
X156895814Y-59055000D01*
X155702000Y-59055000D01*
X155448000Y-59055000D01*
X155428000Y-59055000D01*
X155428000Y-58801000D01*
X155448000Y-58801000D01*
X155448000Y-57607845D01*
X155702000Y-57607845D01*
X155702000Y-58801000D01*
X156895814Y-58801000D01*
X157016481Y-58571109D01*
X156919157Y-58296748D01*
X156770178Y-58046645D01*
X156575269Y-57830412D01*
X156341920Y-57656359D01*
X156079099Y-57531175D01*
X155931890Y-57486524D01*
X155702000Y-57607845D01*
X155448000Y-57607845D01*
X155218110Y-57486524D01*
X155070901Y-57531175D01*
X154808080Y-57656359D01*
X154574731Y-57830412D01*
X154379822Y-58046645D01*
X154310201Y-58163523D01*
X154275706Y-58098986D01*
X154090134Y-57872866D01*
X153864014Y-57687294D01*
X153606034Y-57549401D01*
X153326111Y-57464487D01*
X153107950Y-57443000D01*
X152962050Y-57443000D01*
X152743889Y-57464487D01*
X152463966Y-57549401D01*
X152205986Y-57687294D01*
X151979866Y-57872866D01*
X151955393Y-57902687D01*
X151934502Y-57833820D01*
X151875537Y-57723506D01*
X151796185Y-57626815D01*
X151699494Y-57547463D01*
X151589180Y-57488498D01*
X151469482Y-57452188D01*
X151345000Y-57439928D01*
X149645000Y-57439928D01*
X149520518Y-57452188D01*
X149400820Y-57488498D01*
X149290506Y-57547463D01*
X149193815Y-57626815D01*
X149114463Y-57723506D01*
X149055498Y-57833820D01*
X149019188Y-57953518D01*
X149006928Y-58078000D01*
X86043710Y-58078000D01*
X85382445Y-57416736D01*
X85359375Y-57388625D01*
X85247213Y-57296576D01*
X85119249Y-57228178D01*
X84980399Y-57186058D01*
X84872186Y-57175400D01*
X84872183Y-57175400D01*
X84836000Y-57171836D01*
X84799817Y-57175400D01*
X81189186Y-57175400D01*
X81153000Y-57171836D01*
X81116814Y-57175400D01*
X81008601Y-57186058D01*
X80869751Y-57228178D01*
X80741787Y-57296576D01*
X80629625Y-57388625D01*
X80606559Y-57416731D01*
X79539791Y-58483500D01*
X79395679Y-58483500D01*
X79187122Y-58524985D01*
X78990665Y-58606360D01*
X78813859Y-58724498D01*
X78663498Y-58874859D01*
X78545360Y-59051665D01*
X78463985Y-59248122D01*
X78422500Y-59456679D01*
X72847200Y-59456679D01*
X72847200Y-58473443D01*
X72847502Y-58473141D01*
X72965640Y-58296335D01*
X73047015Y-58099878D01*
X73088500Y-57891321D01*
X73088500Y-57678679D01*
X73047015Y-57470122D01*
X72965640Y-57273665D01*
X72847502Y-57096859D01*
X72697141Y-56946498D01*
X72520335Y-56828360D01*
X72323878Y-56746985D01*
X72115321Y-56705500D01*
X71902679Y-56705500D01*
X71694122Y-56746985D01*
X71497665Y-56828360D01*
X71320859Y-56946498D01*
X71170498Y-57096859D01*
X71052360Y-57273665D01*
X70970985Y-57470122D01*
X70929500Y-57678679D01*
X62992000Y-57678679D01*
X62992000Y-56540000D01*
X158750000Y-56540000D01*
X158750000Y-75540000D01*
M02*
