G04 #@! TF.GenerationSoftware,KiCad,Pcbnew,(5.1.2)-2*
G04 #@! TF.CreationDate,2019-11-04T12:19:55+09:00*
G04 #@! TF.ProjectId,Kicad_sehd_mv,4b696361-645f-4736-9568-645f6d762e6b,1.0*
G04 #@! TF.SameCoordinates,Original*
G04 #@! TF.FileFunction,Copper,L1,Top*
G04 #@! TF.FilePolarity,Positive*
%FSLAX46Y46*%
G04 Gerber Fmt 4.6, Leading zero omitted, Abs format (unit mm)*
G04 Created by KiCad (PCBNEW (5.1.2)-2) date 2019-11-04 12:19:55*
%MOMM*%
%LPD*%
G04 APERTURE LIST*
%ADD10R,1.524000X1.524000*%
%ADD11C,1.524000*%
%ADD12R,1.500000X1.250000*%
%ADD13R,1.850000X3.200000*%
%ADD14R,1.200000X0.750000*%
%ADD15R,1.300000X1.500000*%
%ADD16R,1.250000X0.600000*%
%ADD17R,1.000000X2.850000*%
%ADD18R,5.550000X5.950000*%
%ADD19R,1.200000X0.600000*%
%ADD20R,0.600000X1.200000*%
%ADD21O,3.000000X2.350000*%
%ADD22R,3.000000X2.350000*%
%ADD23R,1.700000X1.700000*%
%ADD24O,1.700000X1.700000*%
%ADD25R,2.450000X5.100000*%
%ADD26R,1.300000X0.700000*%
%ADD27R,1.500000X1.300000*%
%ADD28R,1.350000X1.050000*%
%ADD29C,0.889000*%
%ADD30C,0.406400*%
%ADD31C,0.203200*%
%ADD32C,0.254000*%
G04 APERTURE END LIST*
D10*
X68580000Y-59690000D03*
D11*
X66040000Y-59690000D03*
X68580000Y-62230000D03*
X66040000Y-62230000D03*
X68580000Y-64770000D03*
X66040000Y-64770000D03*
X68580000Y-67310000D03*
X66040000Y-67310000D03*
X68580000Y-69850000D03*
X66040000Y-69850000D03*
X68580000Y-72390000D03*
X66040000Y-72390000D03*
D12*
X136057000Y-62865000D03*
X138557000Y-62865000D03*
X155067000Y-64516000D03*
X157567000Y-64516000D03*
D13*
X110871000Y-63610000D03*
X110871000Y-67310000D03*
D14*
X133609000Y-69215000D03*
X135509000Y-69215000D03*
D15*
X77216000Y-70579000D03*
X77216000Y-73279000D03*
X115316000Y-70518000D03*
X115316000Y-67818000D03*
X160909000Y-67437000D03*
X160909000Y-70137000D03*
D16*
X137394000Y-67371000D03*
X137394000Y-66421000D03*
X137394000Y-65471000D03*
X134894000Y-65471000D03*
X134894000Y-66421000D03*
X134894000Y-67371000D03*
D17*
X106303000Y-63160000D03*
X104013000Y-63160000D03*
X101723000Y-63160000D03*
D18*
X104013000Y-69910000D03*
D19*
X91714000Y-61783000D03*
X91714000Y-59883000D03*
X94214000Y-59883000D03*
X94214000Y-60833000D03*
X94214000Y-61783000D03*
D20*
X93787000Y-70973000D03*
X91887000Y-70973000D03*
X91887000Y-68473000D03*
X92837000Y-68473000D03*
X93787000Y-68473000D03*
D19*
X84562000Y-63434000D03*
X84562000Y-62484000D03*
X84562000Y-61534000D03*
X82062000Y-61534000D03*
X82062000Y-63434000D03*
X84562000Y-69276000D03*
X84562000Y-68326000D03*
X84562000Y-67376000D03*
X82062000Y-67376000D03*
X82062000Y-69276000D03*
D21*
X122301000Y-65682000D03*
D22*
X122301000Y-61722000D03*
D23*
X150495000Y-58928000D03*
D24*
X153035000Y-58928000D03*
X155575000Y-58928000D03*
X155575000Y-73152000D03*
X153035000Y-73152000D03*
D23*
X150495000Y-73152000D03*
D24*
X126619000Y-70866000D03*
D23*
X124079000Y-70866000D03*
D25*
X143002000Y-66421000D03*
X150502000Y-66421000D03*
D26*
X74930000Y-71760000D03*
X74930000Y-73660000D03*
D15*
X130683000Y-69977000D03*
X130683000Y-72677000D03*
D27*
X131953000Y-65405000D03*
X129253000Y-65405000D03*
X129253000Y-63246000D03*
X131953000Y-63246000D03*
D15*
X74930000Y-67183000D03*
X74930000Y-64483000D03*
X76962000Y-64483000D03*
X76962000Y-67183000D03*
X76962000Y-60960000D03*
X76962000Y-58260000D03*
X74930000Y-58260000D03*
X74930000Y-60960000D03*
X115316000Y-65184000D03*
X115316000Y-62484000D03*
X88392000Y-62564000D03*
X88392000Y-59864000D03*
X88265000Y-71026000D03*
X88265000Y-68326000D03*
X98679000Y-60866000D03*
X98679000Y-58166000D03*
X97155000Y-73914000D03*
X97155000Y-71214000D03*
X160909000Y-62197000D03*
X160909000Y-64897000D03*
D28*
X141859000Y-58286000D03*
X141859000Y-60586000D03*
X139954000Y-71494000D03*
X139954000Y-73794000D03*
D12*
X157567000Y-67945000D03*
X155067000Y-67945000D03*
D29*
X86233000Y-67310000D03*
X84582000Y-60325000D03*
X90551000Y-68453000D03*
X96012000Y-59944000D03*
X78867000Y-73279000D03*
X104013000Y-60452000D03*
X99695000Y-69850000D03*
X110871000Y-69850000D03*
X113571000Y-70518000D03*
X132428000Y-72677000D03*
X127254000Y-63246000D03*
X137795000Y-71501000D03*
X144018000Y-60452000D03*
X136017000Y-61214000D03*
X157567000Y-66254000D03*
X157607000Y-62611000D03*
X157567000Y-69683000D03*
X96012000Y-57277000D03*
X86233000Y-63373000D03*
X86233000Y-69088000D03*
X139954000Y-58801000D03*
X100838000Y-58928000D03*
X98806000Y-73406000D03*
X95250000Y-75184000D03*
X129286000Y-67310000D03*
X152996901Y-70650099D03*
X136779000Y-69215000D03*
X139827000Y-66421000D03*
X95230000Y-70973000D03*
X91694000Y-63246000D03*
X82042000Y-70739000D03*
X82062000Y-64877000D03*
X72009000Y-57785000D03*
X72390000Y-64516000D03*
X81026000Y-59690000D03*
X83439000Y-59055000D03*
X79121000Y-66802000D03*
X96012000Y-61849000D03*
X79502000Y-59563000D03*
X86233000Y-61722000D03*
X80772000Y-72009000D03*
X83312000Y-72009000D03*
D30*
X86167000Y-67376000D02*
X86233000Y-67310000D01*
X84562000Y-67376000D02*
X86167000Y-67376000D01*
X84562000Y-61534000D02*
X84562000Y-60345000D01*
X84562000Y-60345000D02*
X84582000Y-60325000D01*
X91180600Y-68473000D02*
X91160600Y-68453000D01*
X91887000Y-68473000D02*
X91180600Y-68473000D01*
X91160600Y-68453000D02*
X90551000Y-68453000D01*
X95220400Y-59883000D02*
X95286400Y-59817000D01*
X94214000Y-59883000D02*
X95220400Y-59883000D01*
X95286400Y-59817000D02*
X95885000Y-59817000D01*
X95885000Y-59817000D02*
X96012000Y-59944000D01*
X77216000Y-73279000D02*
X78272400Y-73279000D01*
X78272400Y-73279000D02*
X78867000Y-73279000D01*
X104013000Y-63160000D02*
X104013000Y-60452000D01*
X100831600Y-69910000D02*
X100771600Y-69850000D01*
X104013000Y-69910000D02*
X100831600Y-69910000D01*
X100771600Y-69850000D02*
X99695000Y-69850000D01*
X110871000Y-67310000D02*
X110871000Y-69850000D01*
X115316000Y-70518000D02*
X113571000Y-70518000D01*
X130683000Y-72677000D02*
X132428000Y-72677000D01*
X129253000Y-63246000D02*
X128096600Y-63246000D01*
X128096600Y-63246000D02*
X127254000Y-63246000D01*
X138872600Y-71494000D02*
X138865600Y-71501000D01*
X139954000Y-71494000D02*
X138872600Y-71494000D01*
X138865600Y-71501000D02*
X137795000Y-71501000D01*
X142940400Y-60586000D02*
X143074400Y-60452000D01*
X141859000Y-60586000D02*
X142940400Y-60586000D01*
X143074400Y-60452000D02*
X144018000Y-60452000D01*
X136057000Y-61833600D02*
X136017000Y-61793600D01*
X136057000Y-62865000D02*
X136057000Y-61833600D01*
X136017000Y-61793600D02*
X136017000Y-61214000D01*
X157567000Y-66254000D02*
X157567000Y-67945000D01*
X157567000Y-64516000D02*
X157567000Y-66254000D01*
X157567000Y-64516000D02*
X157567000Y-62651000D01*
X157567000Y-62651000D02*
X157607000Y-62611000D01*
X157567000Y-67945000D02*
X157567000Y-69683000D01*
X86172000Y-63434000D02*
X86233000Y-63373000D01*
X84562000Y-63434000D02*
X86172000Y-63434000D01*
X86233000Y-63373000D02*
X86233000Y-67310000D01*
X86045000Y-69276000D02*
X86233000Y-69088000D01*
X84562000Y-69276000D02*
X86045000Y-69276000D01*
X136362600Y-67371000D02*
X137394000Y-67371000D01*
X136057000Y-67065400D02*
X136362600Y-67371000D01*
X136057000Y-62865000D02*
X136057000Y-67065400D01*
X137795000Y-67772000D02*
X137394000Y-67371000D01*
X137795000Y-71501000D02*
X137795000Y-67772000D01*
X139954000Y-58801000D02*
X139573000Y-58420000D01*
X98806000Y-73406000D02*
X99314000Y-73914000D01*
X130683000Y-72898000D02*
X130683000Y-72677000D01*
X98806000Y-73406000D02*
X99339390Y-73939390D01*
X137795000Y-71501000D02*
X137795000Y-73533000D01*
X137388610Y-73939390D02*
X128930390Y-73939390D01*
X137795000Y-73533000D02*
X137388610Y-73939390D01*
X99339390Y-73939390D02*
X128930390Y-73939390D01*
X128930390Y-73939390D02*
X129641610Y-73939390D01*
X139420610Y-58267610D02*
X139954000Y-58801000D01*
X101625390Y-58267610D02*
X139420610Y-58267610D01*
X101473000Y-58420000D02*
X101625390Y-58267610D01*
X100838000Y-58928000D02*
X101346000Y-58420000D01*
X101346000Y-58420000D02*
X101473000Y-58420000D01*
X154001599Y-57354599D02*
X155575000Y-58928000D01*
X96640617Y-57277000D02*
X96908018Y-57009599D01*
X96012000Y-57277000D02*
X96640617Y-57277000D01*
X96908018Y-57009599D02*
X99654121Y-57009599D01*
X99654121Y-57009599D02*
X99735401Y-57090879D01*
X153695391Y-57048391D02*
X154001599Y-57354599D01*
X99735401Y-57090879D02*
X99777890Y-57048390D01*
X99777890Y-57048390D02*
X153695391Y-57048391D01*
X155575000Y-74676000D02*
X155575000Y-73152000D01*
X155092390Y-75158610D02*
X155575000Y-74676000D01*
X98806000Y-75158610D02*
X155092390Y-75158610D01*
X95250000Y-75184000D02*
X98780610Y-75184000D01*
X98780610Y-75184000D02*
X98806000Y-75158610D01*
X158021000Y-70137000D02*
X157567000Y-69683000D01*
X160909000Y-70137000D02*
X158021000Y-70137000D01*
X111997000Y-62484000D02*
X110871000Y-63610000D01*
X115316000Y-62484000D02*
X111997000Y-62484000D01*
X116078000Y-61722000D02*
X115316000Y-62484000D01*
X138557000Y-64308000D02*
X137394000Y-65471000D01*
X138557000Y-62865000D02*
X138557000Y-64308000D01*
X138557000Y-60452000D02*
X137922000Y-59817000D01*
X124079000Y-70866000D02*
X119380000Y-70866000D01*
X118872000Y-70358000D02*
X118872000Y-61722000D01*
X119380000Y-70866000D02*
X118872000Y-70358000D01*
X122301000Y-61722000D02*
X118872000Y-61722000D01*
X118872000Y-61722000D02*
X114808000Y-61722000D01*
X138557000Y-62865000D02*
X138557000Y-60579000D01*
X138557000Y-60579000D02*
X138557000Y-60452000D01*
X106303000Y-63160000D02*
X110421000Y-63160000D01*
X110421000Y-63160000D02*
X110871000Y-63610000D01*
X123063000Y-59817000D02*
X122624600Y-59817000D01*
X137922000Y-59817000D02*
X123063000Y-59817000D01*
X106303000Y-63160000D02*
X106303000Y-61328600D01*
X106303000Y-61328600D02*
X106671600Y-60960000D01*
X119253000Y-60960000D02*
X120396000Y-59817000D01*
X122301000Y-60140600D02*
X122301000Y-59817000D01*
X122301000Y-61722000D02*
X122301000Y-60140600D01*
X120396000Y-59817000D02*
X122301000Y-59817000D01*
X122301000Y-59817000D02*
X123063000Y-59817000D01*
X110871000Y-61603600D02*
X110871000Y-60960000D01*
X110871000Y-63610000D02*
X110871000Y-61603600D01*
X106671600Y-60960000D02*
X110871000Y-60960000D01*
X115316000Y-61327600D02*
X115316000Y-60960000D01*
X115316000Y-62484000D02*
X115316000Y-61327600D01*
X110871000Y-60960000D02*
X115316000Y-60960000D01*
X115316000Y-60960000D02*
X119253000Y-60960000D01*
X154942000Y-67945000D02*
X155067000Y-67945000D01*
X153035000Y-69852000D02*
X154942000Y-67945000D01*
X153035000Y-73152000D02*
X153035000Y-69852000D01*
X155067000Y-67945000D02*
X155067000Y-64516000D01*
X154942000Y-64516000D02*
X155067000Y-64516000D01*
X153035000Y-62609000D02*
X154942000Y-64516000D01*
X153035000Y-58928000D02*
X153035000Y-62609000D01*
X152407000Y-64516000D02*
X150502000Y-66421000D01*
X155067000Y-64516000D02*
X152407000Y-64516000D01*
X129253000Y-65405000D02*
X129253000Y-67277000D01*
X129253000Y-67277000D02*
X129286000Y-67310000D01*
X155067000Y-62738000D02*
X155067000Y-64516000D01*
X156464000Y-61341000D02*
X155067000Y-62738000D01*
X159344600Y-61341000D02*
X156464000Y-61341000D01*
X160909000Y-62197000D02*
X160200600Y-62197000D01*
X160200600Y-62197000D02*
X159344600Y-61341000D01*
D31*
X133609000Y-68636800D02*
X133609000Y-69215000D01*
X133609000Y-68331000D02*
X133609000Y-68636800D01*
X134569000Y-67371000D02*
X133609000Y-68331000D01*
X134894000Y-67371000D02*
X134569000Y-67371000D01*
X135509000Y-69215000D02*
X136779000Y-69215000D01*
X139827000Y-66421000D02*
X143002000Y-66421000D01*
X137394000Y-66421000D02*
X139827000Y-66421000D01*
D30*
X100816600Y-63160000D02*
X100775600Y-63119000D01*
X101723000Y-63160000D02*
X100816600Y-63160000D01*
X98679000Y-63119000D02*
X98679000Y-60866000D01*
X97155000Y-71214000D02*
X97155000Y-63119000D01*
X98679000Y-63119000D02*
X98720000Y-63160000D01*
X91714000Y-62489400D02*
X91694000Y-62509400D01*
X91714000Y-61783000D02*
X91714000Y-62489400D01*
X91694000Y-62509400D02*
X91694000Y-63119000D01*
X96914000Y-70973000D02*
X97155000Y-71214000D01*
X93787000Y-70973000D02*
X96914000Y-70973000D01*
X92449617Y-63119000D02*
X92583000Y-63119000D01*
X92322617Y-63246000D02*
X92449617Y-63119000D01*
X91694000Y-63246000D02*
X92322617Y-63246000D01*
X91694000Y-63119000D02*
X92583000Y-63119000D01*
X92583000Y-63119000D02*
X97155000Y-63119000D01*
X98085000Y-63160000D02*
X98044000Y-63119000D01*
X101723000Y-63160000D02*
X98085000Y-63160000D01*
X97155000Y-63119000D02*
X98044000Y-63119000D01*
X98044000Y-63119000D02*
X98679000Y-63119000D01*
X76962000Y-64483000D02*
X74930000Y-64483000D01*
X82362000Y-63434000D02*
X83312000Y-62484000D01*
X82062000Y-63434000D02*
X82362000Y-63434000D01*
X81120000Y-58260000D02*
X76962000Y-58260000D01*
X83312000Y-60452000D02*
X81120000Y-58260000D01*
X76962000Y-58260000D02*
X74930000Y-58260000D01*
X82362000Y-69276000D02*
X82062000Y-69276000D01*
X83312000Y-68326000D02*
X82362000Y-69276000D01*
X83312000Y-62230000D02*
X83312000Y-68326000D01*
X83312000Y-62230000D02*
X83312000Y-60452000D01*
X83312000Y-62484000D02*
X83312000Y-62230000D01*
X82062000Y-69982400D02*
X82042000Y-70002400D01*
X82062000Y-69276000D02*
X82062000Y-69982400D01*
X82042000Y-70002400D02*
X82042000Y-70739000D01*
X82062000Y-64140400D02*
X82042000Y-64160400D01*
X82062000Y-63434000D02*
X82062000Y-64140400D01*
X82062000Y-64140400D02*
X82062000Y-64623000D01*
X82062000Y-64623000D02*
X82062000Y-64877000D01*
X66040000Y-72390000D02*
X68580000Y-72390000D01*
X69850000Y-73660000D02*
X68580000Y-72390000D01*
X74930000Y-73660000D02*
X69850000Y-73660000D01*
X82042000Y-74168000D02*
X82042000Y-70739000D01*
X81407000Y-74803000D02*
X82042000Y-74168000D01*
X75316600Y-74803000D02*
X81407000Y-74803000D01*
X74930000Y-73660000D02*
X74930000Y-74416400D01*
X74930000Y-74416400D02*
X75316600Y-74803000D01*
X66040000Y-72390000D02*
X64643000Y-72390000D01*
X64643000Y-72390000D02*
X63881000Y-71628000D01*
X63881000Y-71628000D02*
X63881000Y-58547000D01*
X63881000Y-58547000D02*
X64643000Y-57785000D01*
X64643000Y-57785000D02*
X72009000Y-57785000D01*
X74455000Y-57785000D02*
X74930000Y-58260000D01*
X72009000Y-57785000D02*
X74455000Y-57785000D01*
X74930000Y-64483000D02*
X73185000Y-64483000D01*
X73185000Y-64483000D02*
X73152000Y-64516000D01*
X73152000Y-64516000D02*
X72390000Y-64516000D01*
D31*
X74930000Y-71206800D02*
X74930000Y-71760000D01*
X75557800Y-70579000D02*
X74930000Y-71206800D01*
X77216000Y-70579000D02*
X75557800Y-70579000D01*
X115316000Y-65184000D02*
X115316000Y-67818000D01*
X160909000Y-67818000D02*
X161036000Y-67945000D01*
X160909000Y-66483800D02*
X160909000Y-64897000D01*
X160909000Y-67437000D02*
X160909000Y-66483800D01*
X131953000Y-64099200D02*
X131953000Y-65405000D01*
X131953000Y-63246000D02*
X131953000Y-64099200D01*
X132019000Y-65471000D02*
X131953000Y-65405000D01*
X134894000Y-65471000D02*
X132019000Y-65471000D01*
X134894000Y-66421000D02*
X133604000Y-66421000D01*
X130683000Y-67818000D02*
X130683000Y-69977000D01*
X131318000Y-67183000D02*
X130683000Y-67818000D01*
X132842000Y-67183000D02*
X131318000Y-67183000D01*
X133604000Y-66421000D02*
X132842000Y-67183000D01*
X127508000Y-69977000D02*
X126619000Y-70866000D01*
X130683000Y-69977000D02*
X127508000Y-69977000D01*
X88411000Y-59883000D02*
X88392000Y-59864000D01*
X91714000Y-59883000D02*
X88411000Y-59883000D01*
X76962000Y-61913200D02*
X76962000Y-60960000D01*
X76391200Y-62484000D02*
X76962000Y-61913200D01*
X73660000Y-62484000D02*
X76391200Y-62484000D01*
X73406000Y-62230000D02*
X73660000Y-62484000D01*
X68580000Y-62230000D02*
X73406000Y-62230000D01*
X76962000Y-60960000D02*
X77815200Y-60960000D01*
X77815200Y-60960000D02*
X79756000Y-60960000D01*
X79756000Y-60960000D02*
X81026000Y-59690000D01*
X94214000Y-60833000D02*
X93410800Y-60833000D01*
X93410800Y-60833000D02*
X90043000Y-60833000D01*
X90043000Y-60833000D02*
X89789000Y-61087000D01*
X89789000Y-61087000D02*
X86868000Y-61087000D01*
X86868000Y-61087000D02*
X86741000Y-61087000D01*
X86741000Y-61087000D02*
X86360000Y-60706000D01*
X86360000Y-60706000D02*
X86360000Y-59563000D01*
X86360000Y-59563000D02*
X85852000Y-59055000D01*
X85852000Y-59055000D02*
X83439000Y-59055000D01*
X74930000Y-67183000D02*
X74930000Y-66929000D01*
X75730801Y-66128199D02*
X78447199Y-66128199D01*
X74930000Y-66929000D02*
X75730801Y-66128199D01*
X78447199Y-66128199D02*
X79121000Y-66802000D01*
X94214000Y-61783000D02*
X95946000Y-61783000D01*
X95946000Y-61783000D02*
X96012000Y-61849000D01*
X74803000Y-67310000D02*
X74930000Y-67183000D01*
X68580000Y-67310000D02*
X74803000Y-67310000D01*
X91834000Y-71026000D02*
X91887000Y-70973000D01*
X88265000Y-71026000D02*
X91834000Y-71026000D01*
X67310000Y-60960000D02*
X74930000Y-60960000D01*
X66040000Y-62230000D02*
X67310000Y-60960000D01*
X74930000Y-60006800D02*
X75373800Y-59563000D01*
X74930000Y-60960000D02*
X74930000Y-60006800D01*
X75373800Y-59563000D02*
X79502000Y-59563000D01*
X92837000Y-68473000D02*
X92837000Y-67669800D01*
X92837000Y-67669800D02*
X92837000Y-67183000D01*
X92837000Y-67183000D02*
X92202000Y-66548000D01*
X92202000Y-66548000D02*
X90932000Y-66548000D01*
X90932000Y-66548000D02*
X90297000Y-65913000D01*
X90297000Y-65913000D02*
X90043000Y-65659000D01*
X90043000Y-61595000D02*
X89941410Y-61493410D01*
X90043000Y-65659000D02*
X90043000Y-61595000D01*
X89941410Y-61493410D02*
X86461590Y-61493410D01*
X86461590Y-61493410D02*
X86233000Y-61722000D01*
X76962000Y-67183000D02*
X77851000Y-67183000D01*
X77851000Y-67183000D02*
X78867000Y-68199000D01*
X78867000Y-68199000D02*
X78867000Y-71120000D01*
X78867000Y-71120000D02*
X79756000Y-72009000D01*
X79756000Y-72009000D02*
X80772000Y-72009000D01*
X93787000Y-69276200D02*
X93340200Y-69723000D01*
X93787000Y-68473000D02*
X93787000Y-69276200D01*
X93340200Y-69723000D02*
X86741000Y-69723000D01*
X86741000Y-69723000D02*
X86233000Y-70231000D01*
X86233000Y-70231000D02*
X86233000Y-71501000D01*
X86233000Y-71501000D02*
X85725000Y-72009000D01*
X85725000Y-72009000D02*
X83312000Y-72009000D01*
X66801999Y-68071999D02*
X66040000Y-67310000D01*
X67106801Y-68376801D02*
X66801999Y-68071999D01*
X76721399Y-68376801D02*
X67106801Y-68376801D01*
X76962000Y-68136200D02*
X76721399Y-68376801D01*
X76962000Y-67183000D02*
X76962000Y-68136200D01*
X88312000Y-62484000D02*
X88392000Y-62564000D01*
X84562000Y-62484000D02*
X88312000Y-62484000D01*
X80325000Y-61534000D02*
X82062000Y-61534000D01*
X78740000Y-63119000D02*
X80325000Y-61534000D01*
X68580000Y-64770000D02*
X70231000Y-63119000D01*
X70231000Y-63119000D02*
X78740000Y-63119000D01*
X84562000Y-68326000D02*
X88265000Y-68326000D01*
X81219000Y-67376000D02*
X82062000Y-67376000D01*
X79502000Y-65659000D02*
X81219000Y-67376000D01*
X70104000Y-65659000D02*
X79502000Y-65659000D01*
X69723000Y-66040000D02*
X70104000Y-65659000D01*
X66040000Y-64770000D02*
X67310000Y-66040000D01*
X67310000Y-66040000D02*
X69723000Y-66040000D01*
D30*
X91714000Y-59883000D02*
X91714000Y-59035000D01*
X91714000Y-59035000D02*
X92583000Y-58166000D01*
X92583000Y-58166000D02*
X98679000Y-58166000D01*
X98679000Y-58166000D02*
X99060000Y-58166000D01*
X141231000Y-57658000D02*
X141859000Y-58286000D01*
X98679000Y-58166000D02*
X99735400Y-58166000D01*
X99735400Y-58166000D02*
X100243400Y-57658000D01*
X141859000Y-58286000D02*
X149359000Y-58286000D01*
X150001000Y-58928000D02*
X150495000Y-58928000D01*
X149359000Y-58286000D02*
X150001000Y-58928000D01*
X100243400Y-57658000D02*
X141231000Y-57658000D01*
X91887000Y-71979400D02*
X91948000Y-72040400D01*
X91887000Y-70973000D02*
X91887000Y-71979400D01*
X91948000Y-72040400D02*
X91948000Y-73152000D01*
X91948000Y-73152000D02*
X92710000Y-73914000D01*
X92710000Y-73914000D02*
X97155000Y-73914000D01*
X139199000Y-74549000D02*
X139954000Y-73794000D01*
X97155000Y-73914000D02*
X97536000Y-73914000D01*
X97536000Y-73914000D02*
X98171000Y-74549000D01*
X149987000Y-73660000D02*
X150495000Y-73152000D01*
X141169400Y-73660000D02*
X149987000Y-73660000D01*
X139954000Y-73794000D02*
X141035400Y-73794000D01*
X141035400Y-73794000D02*
X141169400Y-73660000D01*
X98171000Y-74549000D02*
X139199000Y-74549000D01*
D32*
G36*
X98806000Y-62092250D02*
G01*
X98964750Y-62251000D01*
X99060000Y-62251803D01*
X99060000Y-62484000D01*
X99062440Y-62508776D01*
X99069667Y-62532601D01*
X99081403Y-62554557D01*
X99097197Y-62573803D01*
X99116443Y-62589597D01*
X99138399Y-62601333D01*
X99162224Y-62608560D01*
X99187000Y-62611000D01*
X100587290Y-62611000D01*
X100588000Y-62874250D01*
X100746750Y-63033000D01*
X101219000Y-63033000D01*
X101219000Y-63287000D01*
X100746750Y-63287000D01*
X100588000Y-63445750D01*
X100587511Y-63627000D01*
X97663000Y-63627000D01*
X97638224Y-63629440D01*
X97614399Y-63636667D01*
X97592443Y-63648403D01*
X97573197Y-63664197D01*
X97557403Y-63683443D01*
X97545667Y-63705399D01*
X97538440Y-63729224D01*
X97536000Y-63754000D01*
X97536000Y-69828197D01*
X97440750Y-69829000D01*
X97282000Y-69987750D01*
X97282000Y-70485000D01*
X97028000Y-70485000D01*
X97028000Y-69987750D01*
X96869250Y-69829000D01*
X96505000Y-69825928D01*
X96380518Y-69838188D01*
X96260820Y-69874498D01*
X96150506Y-69933463D01*
X96053815Y-70012815D01*
X95974463Y-70109506D01*
X95915498Y-70219820D01*
X95879188Y-70339518D01*
X95866928Y-70464000D01*
X95870000Y-70928250D01*
X96028750Y-71087000D01*
X96393000Y-71087000D01*
X96393000Y-71341000D01*
X96028750Y-71341000D01*
X95870000Y-71499750D01*
X95869151Y-71628000D01*
X94742000Y-71628000D01*
X94742000Y-71501000D01*
X94739560Y-71476224D01*
X94732333Y-71452399D01*
X94723736Y-71436315D01*
X94722000Y-71258750D01*
X94563250Y-71100000D01*
X94107000Y-71100000D01*
X94107000Y-70846000D01*
X94563250Y-70846000D01*
X94722000Y-70687250D01*
X94723338Y-70550430D01*
X94732333Y-70533601D01*
X94739560Y-70509776D01*
X94742000Y-70485000D01*
X94742000Y-64008000D01*
X94739560Y-63983224D01*
X94732333Y-63959399D01*
X94720597Y-63937443D01*
X94704803Y-63918197D01*
X94685557Y-63902403D01*
X94663601Y-63890667D01*
X94639776Y-63883440D01*
X94615000Y-63881000D01*
X91186000Y-63881000D01*
X91186000Y-62865000D01*
X91313000Y-62865000D01*
X91337776Y-62862560D01*
X91361601Y-62855333D01*
X91383557Y-62843597D01*
X91402803Y-62827803D01*
X91418597Y-62808557D01*
X91430333Y-62786601D01*
X91437560Y-62762776D01*
X91440000Y-62738000D01*
X91440000Y-62706250D01*
X91587000Y-62559250D01*
X91587000Y-62103000D01*
X91841000Y-62103000D01*
X91841000Y-62559250D01*
X91999750Y-62718000D01*
X92075000Y-62718736D01*
X92075000Y-62738000D01*
X92077440Y-62762776D01*
X92084667Y-62786601D01*
X92096403Y-62808557D01*
X92112197Y-62827803D01*
X92131443Y-62843597D01*
X92153399Y-62855333D01*
X92177224Y-62862560D01*
X92202000Y-62865000D01*
X95643973Y-62865000D01*
X95697122Y-62887015D01*
X95905679Y-62928500D01*
X96118321Y-62928500D01*
X96326878Y-62887015D01*
X96380027Y-62865000D01*
X98171000Y-62865000D01*
X98195776Y-62862560D01*
X98219601Y-62855333D01*
X98241557Y-62843597D01*
X98260803Y-62827803D01*
X98276597Y-62808557D01*
X98288333Y-62786601D01*
X98295560Y-62762776D01*
X98298000Y-62738000D01*
X98298000Y-62251803D01*
X98393250Y-62251000D01*
X98552000Y-62092250D01*
X98552000Y-61722000D01*
X98806000Y-61722000D01*
X98806000Y-62092250D01*
X98806000Y-62092250D01*
G37*
X98806000Y-62092250D02*
X98964750Y-62251000D01*
X99060000Y-62251803D01*
X99060000Y-62484000D01*
X99062440Y-62508776D01*
X99069667Y-62532601D01*
X99081403Y-62554557D01*
X99097197Y-62573803D01*
X99116443Y-62589597D01*
X99138399Y-62601333D01*
X99162224Y-62608560D01*
X99187000Y-62611000D01*
X100587290Y-62611000D01*
X100588000Y-62874250D01*
X100746750Y-63033000D01*
X101219000Y-63033000D01*
X101219000Y-63287000D01*
X100746750Y-63287000D01*
X100588000Y-63445750D01*
X100587511Y-63627000D01*
X97663000Y-63627000D01*
X97638224Y-63629440D01*
X97614399Y-63636667D01*
X97592443Y-63648403D01*
X97573197Y-63664197D01*
X97557403Y-63683443D01*
X97545667Y-63705399D01*
X97538440Y-63729224D01*
X97536000Y-63754000D01*
X97536000Y-69828197D01*
X97440750Y-69829000D01*
X97282000Y-69987750D01*
X97282000Y-70485000D01*
X97028000Y-70485000D01*
X97028000Y-69987750D01*
X96869250Y-69829000D01*
X96505000Y-69825928D01*
X96380518Y-69838188D01*
X96260820Y-69874498D01*
X96150506Y-69933463D01*
X96053815Y-70012815D01*
X95974463Y-70109506D01*
X95915498Y-70219820D01*
X95879188Y-70339518D01*
X95866928Y-70464000D01*
X95870000Y-70928250D01*
X96028750Y-71087000D01*
X96393000Y-71087000D01*
X96393000Y-71341000D01*
X96028750Y-71341000D01*
X95870000Y-71499750D01*
X95869151Y-71628000D01*
X94742000Y-71628000D01*
X94742000Y-71501000D01*
X94739560Y-71476224D01*
X94732333Y-71452399D01*
X94723736Y-71436315D01*
X94722000Y-71258750D01*
X94563250Y-71100000D01*
X94107000Y-71100000D01*
X94107000Y-70846000D01*
X94563250Y-70846000D01*
X94722000Y-70687250D01*
X94723338Y-70550430D01*
X94732333Y-70533601D01*
X94739560Y-70509776D01*
X94742000Y-70485000D01*
X94742000Y-64008000D01*
X94739560Y-63983224D01*
X94732333Y-63959399D01*
X94720597Y-63937443D01*
X94704803Y-63918197D01*
X94685557Y-63902403D01*
X94663601Y-63890667D01*
X94639776Y-63883440D01*
X94615000Y-63881000D01*
X91186000Y-63881000D01*
X91186000Y-62865000D01*
X91313000Y-62865000D01*
X91337776Y-62862560D01*
X91361601Y-62855333D01*
X91383557Y-62843597D01*
X91402803Y-62827803D01*
X91418597Y-62808557D01*
X91430333Y-62786601D01*
X91437560Y-62762776D01*
X91440000Y-62738000D01*
X91440000Y-62706250D01*
X91587000Y-62559250D01*
X91587000Y-62103000D01*
X91841000Y-62103000D01*
X91841000Y-62559250D01*
X91999750Y-62718000D01*
X92075000Y-62718736D01*
X92075000Y-62738000D01*
X92077440Y-62762776D01*
X92084667Y-62786601D01*
X92096403Y-62808557D01*
X92112197Y-62827803D01*
X92131443Y-62843597D01*
X92153399Y-62855333D01*
X92177224Y-62862560D01*
X92202000Y-62865000D01*
X95643973Y-62865000D01*
X95697122Y-62887015D01*
X95905679Y-62928500D01*
X96118321Y-62928500D01*
X96326878Y-62887015D01*
X96380027Y-62865000D01*
X98171000Y-62865000D01*
X98195776Y-62862560D01*
X98219601Y-62855333D01*
X98241557Y-62843597D01*
X98260803Y-62827803D01*
X98276597Y-62808557D01*
X98288333Y-62786601D01*
X98295560Y-62762776D01*
X98298000Y-62738000D01*
X98298000Y-62251803D01*
X98393250Y-62251000D01*
X98552000Y-62092250D01*
X98552000Y-61722000D01*
X98806000Y-61722000D01*
X98806000Y-62092250D01*
G36*
X122047000Y-59943750D02*
G01*
X122015250Y-59912000D01*
X120801000Y-59908928D01*
X120676518Y-59921188D01*
X120556820Y-59957498D01*
X120446506Y-60016463D01*
X120349815Y-60095815D01*
X120270463Y-60192506D01*
X120211498Y-60302820D01*
X120175188Y-60422518D01*
X120162928Y-60547000D01*
X120166000Y-61436250D01*
X120324750Y-61595000D01*
X122047000Y-61595000D01*
X122047000Y-61849000D01*
X120324750Y-61849000D01*
X120166000Y-62007750D01*
X120162928Y-62897000D01*
X120175188Y-63021482D01*
X120211498Y-63141180D01*
X120270463Y-63251494D01*
X120349815Y-63348185D01*
X120380052Y-63373000D01*
X116967000Y-63373000D01*
X116942224Y-63375440D01*
X116918399Y-63382667D01*
X116896443Y-63394403D01*
X116877197Y-63410197D01*
X116660394Y-63627000D01*
X116464936Y-63627000D01*
X116496537Y-63588494D01*
X116555502Y-63478180D01*
X116591812Y-63358482D01*
X116604072Y-63234000D01*
X116601000Y-62769750D01*
X116442250Y-62611000D01*
X115443000Y-62611000D01*
X115443000Y-62631000D01*
X115189000Y-62631000D01*
X115189000Y-62611000D01*
X114189750Y-62611000D01*
X114031000Y-62769750D01*
X114027928Y-63234000D01*
X114040188Y-63358482D01*
X114076498Y-63478180D01*
X114135463Y-63588494D01*
X114167064Y-63627000D01*
X112522000Y-63627000D01*
X112497224Y-63629440D01*
X112473399Y-63636667D01*
X112451443Y-63648403D01*
X112432197Y-63664197D01*
X112315822Y-63780572D01*
X112272250Y-63737000D01*
X110998000Y-63737000D01*
X110998000Y-63757000D01*
X110744000Y-63757000D01*
X110744000Y-63737000D01*
X109469750Y-63737000D01*
X109311000Y-63895750D01*
X109310441Y-64135000D01*
X107439859Y-64135000D01*
X107438000Y-63445750D01*
X107279250Y-63287000D01*
X106430000Y-63287000D01*
X106430000Y-63307000D01*
X106299000Y-63307000D01*
X106299000Y-63013000D01*
X106430000Y-63013000D01*
X106430000Y-63033000D01*
X107279250Y-63033000D01*
X107438000Y-62874250D01*
X107440330Y-62010000D01*
X109307928Y-62010000D01*
X109311000Y-63324250D01*
X109469750Y-63483000D01*
X110744000Y-63483000D01*
X110744000Y-61533750D01*
X110998000Y-61533750D01*
X110998000Y-63483000D01*
X112272250Y-63483000D01*
X112431000Y-63324250D01*
X112434072Y-62010000D01*
X112421812Y-61885518D01*
X112385502Y-61765820D01*
X112368494Y-61734000D01*
X114027928Y-61734000D01*
X114031000Y-62198250D01*
X114189750Y-62357000D01*
X115189000Y-62357000D01*
X115189000Y-61257750D01*
X115443000Y-61257750D01*
X115443000Y-62357000D01*
X116442250Y-62357000D01*
X116601000Y-62198250D01*
X116604072Y-61734000D01*
X116591812Y-61609518D01*
X116555502Y-61489820D01*
X116496537Y-61379506D01*
X116417185Y-61282815D01*
X116320494Y-61203463D01*
X116210180Y-61144498D01*
X116090482Y-61108188D01*
X115966000Y-61095928D01*
X115601750Y-61099000D01*
X115443000Y-61257750D01*
X115189000Y-61257750D01*
X115030250Y-61099000D01*
X114666000Y-61095928D01*
X114541518Y-61108188D01*
X114421820Y-61144498D01*
X114311506Y-61203463D01*
X114214815Y-61282815D01*
X114135463Y-61379506D01*
X114076498Y-61489820D01*
X114040188Y-61609518D01*
X114027928Y-61734000D01*
X112368494Y-61734000D01*
X112326537Y-61655506D01*
X112247185Y-61558815D01*
X112150494Y-61479463D01*
X112040180Y-61420498D01*
X111920482Y-61384188D01*
X111796000Y-61371928D01*
X111156750Y-61375000D01*
X110998000Y-61533750D01*
X110744000Y-61533750D01*
X110585250Y-61375000D01*
X109946000Y-61371928D01*
X109821518Y-61384188D01*
X109701820Y-61420498D01*
X109591506Y-61479463D01*
X109494815Y-61558815D01*
X109415463Y-61655506D01*
X109356498Y-61765820D01*
X109320188Y-61885518D01*
X109307928Y-62010000D01*
X107440330Y-62010000D01*
X107441072Y-61735000D01*
X107428812Y-61610518D01*
X107392502Y-61490820D01*
X107333537Y-61380506D01*
X107254185Y-61283815D01*
X107157494Y-61204463D01*
X107047180Y-61145498D01*
X106927482Y-61109188D01*
X106803000Y-61096928D01*
X106592662Y-61099944D01*
X106732606Y-60960000D01*
X119253000Y-60960000D01*
X119277776Y-60957560D01*
X119301601Y-60950333D01*
X119323557Y-60938597D01*
X119342803Y-60922803D01*
X120448606Y-59817000D01*
X122047000Y-59817000D01*
X122047000Y-59943750D01*
X122047000Y-59943750D01*
G37*
X122047000Y-59943750D02*
X122015250Y-59912000D01*
X120801000Y-59908928D01*
X120676518Y-59921188D01*
X120556820Y-59957498D01*
X120446506Y-60016463D01*
X120349815Y-60095815D01*
X120270463Y-60192506D01*
X120211498Y-60302820D01*
X120175188Y-60422518D01*
X120162928Y-60547000D01*
X120166000Y-61436250D01*
X120324750Y-61595000D01*
X122047000Y-61595000D01*
X122047000Y-61849000D01*
X120324750Y-61849000D01*
X120166000Y-62007750D01*
X120162928Y-62897000D01*
X120175188Y-63021482D01*
X120211498Y-63141180D01*
X120270463Y-63251494D01*
X120349815Y-63348185D01*
X120380052Y-63373000D01*
X116967000Y-63373000D01*
X116942224Y-63375440D01*
X116918399Y-63382667D01*
X116896443Y-63394403D01*
X116877197Y-63410197D01*
X116660394Y-63627000D01*
X116464936Y-63627000D01*
X116496537Y-63588494D01*
X116555502Y-63478180D01*
X116591812Y-63358482D01*
X116604072Y-63234000D01*
X116601000Y-62769750D01*
X116442250Y-62611000D01*
X115443000Y-62611000D01*
X115443000Y-62631000D01*
X115189000Y-62631000D01*
X115189000Y-62611000D01*
X114189750Y-62611000D01*
X114031000Y-62769750D01*
X114027928Y-63234000D01*
X114040188Y-63358482D01*
X114076498Y-63478180D01*
X114135463Y-63588494D01*
X114167064Y-63627000D01*
X112522000Y-63627000D01*
X112497224Y-63629440D01*
X112473399Y-63636667D01*
X112451443Y-63648403D01*
X112432197Y-63664197D01*
X112315822Y-63780572D01*
X112272250Y-63737000D01*
X110998000Y-63737000D01*
X110998000Y-63757000D01*
X110744000Y-63757000D01*
X110744000Y-63737000D01*
X109469750Y-63737000D01*
X109311000Y-63895750D01*
X109310441Y-64135000D01*
X107439859Y-64135000D01*
X107438000Y-63445750D01*
X107279250Y-63287000D01*
X106430000Y-63287000D01*
X106430000Y-63307000D01*
X106299000Y-63307000D01*
X106299000Y-63013000D01*
X106430000Y-63013000D01*
X106430000Y-63033000D01*
X107279250Y-63033000D01*
X107438000Y-62874250D01*
X107440330Y-62010000D01*
X109307928Y-62010000D01*
X109311000Y-63324250D01*
X109469750Y-63483000D01*
X110744000Y-63483000D01*
X110744000Y-61533750D01*
X110998000Y-61533750D01*
X110998000Y-63483000D01*
X112272250Y-63483000D01*
X112431000Y-63324250D01*
X112434072Y-62010000D01*
X112421812Y-61885518D01*
X112385502Y-61765820D01*
X112368494Y-61734000D01*
X114027928Y-61734000D01*
X114031000Y-62198250D01*
X114189750Y-62357000D01*
X115189000Y-62357000D01*
X115189000Y-61257750D01*
X115443000Y-61257750D01*
X115443000Y-62357000D01*
X116442250Y-62357000D01*
X116601000Y-62198250D01*
X116604072Y-61734000D01*
X116591812Y-61609518D01*
X116555502Y-61489820D01*
X116496537Y-61379506D01*
X116417185Y-61282815D01*
X116320494Y-61203463D01*
X116210180Y-61144498D01*
X116090482Y-61108188D01*
X115966000Y-61095928D01*
X115601750Y-61099000D01*
X115443000Y-61257750D01*
X115189000Y-61257750D01*
X115030250Y-61099000D01*
X114666000Y-61095928D01*
X114541518Y-61108188D01*
X114421820Y-61144498D01*
X114311506Y-61203463D01*
X114214815Y-61282815D01*
X114135463Y-61379506D01*
X114076498Y-61489820D01*
X114040188Y-61609518D01*
X114027928Y-61734000D01*
X112368494Y-61734000D01*
X112326537Y-61655506D01*
X112247185Y-61558815D01*
X112150494Y-61479463D01*
X112040180Y-61420498D01*
X111920482Y-61384188D01*
X111796000Y-61371928D01*
X111156750Y-61375000D01*
X110998000Y-61533750D01*
X110744000Y-61533750D01*
X110585250Y-61375000D01*
X109946000Y-61371928D01*
X109821518Y-61384188D01*
X109701820Y-61420498D01*
X109591506Y-61479463D01*
X109494815Y-61558815D01*
X109415463Y-61655506D01*
X109356498Y-61765820D01*
X109320188Y-61885518D01*
X109307928Y-62010000D01*
X107440330Y-62010000D01*
X107441072Y-61735000D01*
X107428812Y-61610518D01*
X107392502Y-61490820D01*
X107333537Y-61380506D01*
X107254185Y-61283815D01*
X107157494Y-61204463D01*
X107047180Y-61145498D01*
X106927482Y-61109188D01*
X106803000Y-61096928D01*
X106592662Y-61099944D01*
X106732606Y-60960000D01*
X119253000Y-60960000D01*
X119277776Y-60957560D01*
X119301601Y-60950333D01*
X119323557Y-60938597D01*
X119342803Y-60922803D01*
X120448606Y-59817000D01*
X122047000Y-59817000D01*
X122047000Y-59943750D01*
G36*
X137521000Y-65344000D02*
G01*
X137541000Y-65344000D01*
X137541000Y-65482928D01*
X137247000Y-65482928D01*
X137247000Y-65344000D01*
X137267000Y-65344000D01*
X137267000Y-65324000D01*
X137521000Y-65324000D01*
X137521000Y-65344000D01*
X137521000Y-65344000D01*
G37*
X137521000Y-65344000D02*
X137541000Y-65344000D01*
X137541000Y-65482928D01*
X137247000Y-65482928D01*
X137247000Y-65344000D01*
X137267000Y-65344000D01*
X137267000Y-65324000D01*
X137521000Y-65324000D01*
X137521000Y-65344000D01*
G36*
X138811000Y-61135735D02*
G01*
X138811000Y-61636750D01*
X138684000Y-61763750D01*
X138684000Y-62738000D01*
X138704000Y-62738000D01*
X138704000Y-62992000D01*
X138684000Y-62992000D01*
X138684000Y-63966250D01*
X138811000Y-64093250D01*
X138811000Y-64216665D01*
X138427795Y-64685027D01*
X138373494Y-64640463D01*
X138263180Y-64581498D01*
X138143482Y-64545188D01*
X138019000Y-64532928D01*
X137700797Y-64535809D01*
X138011803Y-64224803D01*
X138027597Y-64205557D01*
X138039333Y-64183601D01*
X138046560Y-64159776D01*
X138049000Y-64135000D01*
X138049000Y-64126471D01*
X138271250Y-64125000D01*
X138430000Y-63966250D01*
X138430000Y-62992000D01*
X138410000Y-62992000D01*
X138410000Y-62738000D01*
X138430000Y-62738000D01*
X138430000Y-61763750D01*
X138271250Y-61605000D01*
X138049000Y-61603529D01*
X138049000Y-60833000D01*
X138046560Y-60808224D01*
X138039333Y-60784399D01*
X138027597Y-60762443D01*
X138011803Y-60743197D01*
X137630803Y-60362197D01*
X137611557Y-60346403D01*
X137589601Y-60334667D01*
X137565776Y-60327440D01*
X137541000Y-60325000D01*
X136629565Y-60325000D01*
X136528335Y-60257360D01*
X136331878Y-60175985D01*
X136123321Y-60134500D01*
X135910679Y-60134500D01*
X135702122Y-60175985D01*
X135505665Y-60257360D01*
X135404435Y-60325000D01*
X125730000Y-60325000D01*
X125705224Y-60327440D01*
X125681399Y-60334667D01*
X125659443Y-60346403D01*
X125640197Y-60362197D01*
X124407396Y-61594998D01*
X124277252Y-61594998D01*
X124436000Y-61436250D01*
X124439072Y-60547000D01*
X124426812Y-60422518D01*
X124390502Y-60302820D01*
X124331537Y-60192506D01*
X124252185Y-60095815D01*
X124155494Y-60016463D01*
X124045180Y-59957498D01*
X124000683Y-59944000D01*
X137738439Y-59944000D01*
X138811000Y-61135735D01*
X138811000Y-61135735D01*
G37*
X138811000Y-61135735D02*
X138811000Y-61636750D01*
X138684000Y-61763750D01*
X138684000Y-62738000D01*
X138704000Y-62738000D01*
X138704000Y-62992000D01*
X138684000Y-62992000D01*
X138684000Y-63966250D01*
X138811000Y-64093250D01*
X138811000Y-64216665D01*
X138427795Y-64685027D01*
X138373494Y-64640463D01*
X138263180Y-64581498D01*
X138143482Y-64545188D01*
X138019000Y-64532928D01*
X137700797Y-64535809D01*
X138011803Y-64224803D01*
X138027597Y-64205557D01*
X138039333Y-64183601D01*
X138046560Y-64159776D01*
X138049000Y-64135000D01*
X138049000Y-64126471D01*
X138271250Y-64125000D01*
X138430000Y-63966250D01*
X138430000Y-62992000D01*
X138410000Y-62992000D01*
X138410000Y-62738000D01*
X138430000Y-62738000D01*
X138430000Y-61763750D01*
X138271250Y-61605000D01*
X138049000Y-61603529D01*
X138049000Y-60833000D01*
X138046560Y-60808224D01*
X138039333Y-60784399D01*
X138027597Y-60762443D01*
X138011803Y-60743197D01*
X137630803Y-60362197D01*
X137611557Y-60346403D01*
X137589601Y-60334667D01*
X137565776Y-60327440D01*
X137541000Y-60325000D01*
X136629565Y-60325000D01*
X136528335Y-60257360D01*
X136331878Y-60175985D01*
X136123321Y-60134500D01*
X135910679Y-60134500D01*
X135702122Y-60175985D01*
X135505665Y-60257360D01*
X135404435Y-60325000D01*
X125730000Y-60325000D01*
X125705224Y-60327440D01*
X125681399Y-60334667D01*
X125659443Y-60346403D01*
X125640197Y-60362197D01*
X124407396Y-61594998D01*
X124277252Y-61594998D01*
X124436000Y-61436250D01*
X124439072Y-60547000D01*
X124426812Y-60422518D01*
X124390502Y-60302820D01*
X124331537Y-60192506D01*
X124252185Y-60095815D01*
X124155494Y-60016463D01*
X124045180Y-59957498D01*
X124000683Y-59944000D01*
X137738439Y-59944000D01*
X138811000Y-61135735D01*
G36*
X122428000Y-61595000D02*
G01*
X122448000Y-61595000D01*
X122448000Y-61849000D01*
X122428000Y-61849000D01*
X122428000Y-61869000D01*
X122174000Y-61869000D01*
X122174000Y-61849000D01*
X122154000Y-61849000D01*
X122154000Y-61595000D01*
X122174000Y-61595000D01*
X122174000Y-61575000D01*
X122428000Y-61575000D01*
X122428000Y-61595000D01*
X122428000Y-61595000D01*
G37*
X122428000Y-61595000D02*
X122448000Y-61595000D01*
X122448000Y-61849000D01*
X122428000Y-61849000D01*
X122428000Y-61869000D01*
X122174000Y-61869000D01*
X122174000Y-61849000D01*
X122154000Y-61849000D01*
X122154000Y-61595000D01*
X122174000Y-61595000D01*
X122174000Y-61575000D01*
X122428000Y-61575000D01*
X122428000Y-61595000D01*
G36*
X122428002Y-60070748D02*
G01*
X122428002Y-59996604D01*
X122480606Y-59944000D01*
X122554750Y-59944000D01*
X122428002Y-60070748D01*
X122428002Y-60070748D01*
G37*
X122428002Y-60070748D02*
X122428002Y-59996604D01*
X122480606Y-59944000D01*
X122554750Y-59944000D01*
X122428002Y-60070748D01*
G36*
X145034000Y-69850000D02*
G01*
X141403606Y-69850000D01*
X140524606Y-68971000D01*
X141138928Y-68971000D01*
X141151188Y-69095482D01*
X141187498Y-69215180D01*
X141246463Y-69325494D01*
X141325815Y-69422185D01*
X141422506Y-69501537D01*
X141532820Y-69560502D01*
X141652518Y-69596812D01*
X141777000Y-69609072D01*
X142716250Y-69606000D01*
X142875000Y-69447250D01*
X142875000Y-66548000D01*
X143129000Y-66548000D01*
X143129000Y-69447250D01*
X143287750Y-69606000D01*
X144227000Y-69609072D01*
X144351482Y-69596812D01*
X144471180Y-69560502D01*
X144581494Y-69501537D01*
X144678185Y-69422185D01*
X144757537Y-69325494D01*
X144816502Y-69215180D01*
X144852812Y-69095482D01*
X144865072Y-68971000D01*
X144862000Y-66706750D01*
X144703250Y-66548000D01*
X143129000Y-66548000D01*
X142875000Y-66548000D01*
X141300750Y-66548000D01*
X141142000Y-66706750D01*
X141138928Y-68971000D01*
X140524606Y-68971000D01*
X138657072Y-67103466D01*
X138657072Y-67071000D01*
X138644812Y-66946518D01*
X138629488Y-66896000D01*
X138644812Y-66845482D01*
X138657072Y-66721000D01*
X138654000Y-66706750D01*
X138495250Y-66548000D01*
X138382678Y-66548000D01*
X138373494Y-66540463D01*
X138263180Y-66481498D01*
X138143482Y-66445188D01*
X138019000Y-66432928D01*
X137541000Y-66432928D01*
X137541000Y-66409072D01*
X138019000Y-66409072D01*
X138143482Y-66396812D01*
X138263180Y-66360502D01*
X138373494Y-66301537D01*
X138382678Y-66294000D01*
X138495250Y-66294000D01*
X138654000Y-66135250D01*
X138657072Y-66121000D01*
X138644812Y-65996518D01*
X138629488Y-65946000D01*
X138644812Y-65895482D01*
X138657072Y-65771000D01*
X138657072Y-65738534D01*
X140524606Y-63871000D01*
X141138928Y-63871000D01*
X141142000Y-66135250D01*
X141300750Y-66294000D01*
X142875000Y-66294000D01*
X142875000Y-63394750D01*
X143129000Y-63394750D01*
X143129000Y-66294000D01*
X144703250Y-66294000D01*
X144862000Y-66135250D01*
X144865072Y-63871000D01*
X144852812Y-63746518D01*
X144816502Y-63626820D01*
X144757537Y-63516506D01*
X144678185Y-63419815D01*
X144581494Y-63340463D01*
X144471180Y-63281498D01*
X144351482Y-63245188D01*
X144227000Y-63232928D01*
X143287750Y-63236000D01*
X143129000Y-63394750D01*
X142875000Y-63394750D01*
X142716250Y-63236000D01*
X141777000Y-63232928D01*
X141652518Y-63245188D01*
X141532820Y-63281498D01*
X141422506Y-63340463D01*
X141325815Y-63419815D01*
X141246463Y-63516506D01*
X141187498Y-63626820D01*
X141151188Y-63746518D01*
X141138928Y-63871000D01*
X140524606Y-63871000D01*
X141403606Y-62992000D01*
X145034000Y-62992000D01*
X145034000Y-69850000D01*
X145034000Y-69850000D01*
G37*
X145034000Y-69850000D02*
X141403606Y-69850000D01*
X140524606Y-68971000D01*
X141138928Y-68971000D01*
X141151188Y-69095482D01*
X141187498Y-69215180D01*
X141246463Y-69325494D01*
X141325815Y-69422185D01*
X141422506Y-69501537D01*
X141532820Y-69560502D01*
X141652518Y-69596812D01*
X141777000Y-69609072D01*
X142716250Y-69606000D01*
X142875000Y-69447250D01*
X142875000Y-66548000D01*
X143129000Y-66548000D01*
X143129000Y-69447250D01*
X143287750Y-69606000D01*
X144227000Y-69609072D01*
X144351482Y-69596812D01*
X144471180Y-69560502D01*
X144581494Y-69501537D01*
X144678185Y-69422185D01*
X144757537Y-69325494D01*
X144816502Y-69215180D01*
X144852812Y-69095482D01*
X144865072Y-68971000D01*
X144862000Y-66706750D01*
X144703250Y-66548000D01*
X143129000Y-66548000D01*
X142875000Y-66548000D01*
X141300750Y-66548000D01*
X141142000Y-66706750D01*
X141138928Y-68971000D01*
X140524606Y-68971000D01*
X138657072Y-67103466D01*
X138657072Y-67071000D01*
X138644812Y-66946518D01*
X138629488Y-66896000D01*
X138644812Y-66845482D01*
X138657072Y-66721000D01*
X138654000Y-66706750D01*
X138495250Y-66548000D01*
X138382678Y-66548000D01*
X138373494Y-66540463D01*
X138263180Y-66481498D01*
X138143482Y-66445188D01*
X138019000Y-66432928D01*
X137541000Y-66432928D01*
X137541000Y-66409072D01*
X138019000Y-66409072D01*
X138143482Y-66396812D01*
X138263180Y-66360502D01*
X138373494Y-66301537D01*
X138382678Y-66294000D01*
X138495250Y-66294000D01*
X138654000Y-66135250D01*
X138657072Y-66121000D01*
X138644812Y-65996518D01*
X138629488Y-65946000D01*
X138644812Y-65895482D01*
X138657072Y-65771000D01*
X138657072Y-65738534D01*
X140524606Y-63871000D01*
X141138928Y-63871000D01*
X141142000Y-66135250D01*
X141300750Y-66294000D01*
X142875000Y-66294000D01*
X142875000Y-63394750D01*
X143129000Y-63394750D01*
X143129000Y-66294000D01*
X144703250Y-66294000D01*
X144862000Y-66135250D01*
X144865072Y-63871000D01*
X144852812Y-63746518D01*
X144816502Y-63626820D01*
X144757537Y-63516506D01*
X144678185Y-63419815D01*
X144581494Y-63340463D01*
X144471180Y-63281498D01*
X144351482Y-63245188D01*
X144227000Y-63232928D01*
X143287750Y-63236000D01*
X143129000Y-63394750D01*
X142875000Y-63394750D01*
X142716250Y-63236000D01*
X141777000Y-63232928D01*
X141652518Y-63245188D01*
X141532820Y-63281498D01*
X141422506Y-63340463D01*
X141325815Y-63419815D01*
X141246463Y-63516506D01*
X141187498Y-63626820D01*
X141151188Y-63746518D01*
X141138928Y-63871000D01*
X140524606Y-63871000D01*
X141403606Y-62992000D01*
X145034000Y-62992000D01*
X145034000Y-69850000D01*
G36*
X153162000Y-60248155D02*
G01*
X153391890Y-60369476D01*
X153539099Y-60324825D01*
X153801920Y-60199641D01*
X154035269Y-60025588D01*
X154051000Y-60008136D01*
X154051000Y-63313161D01*
X153962506Y-63360463D01*
X153865815Y-63439815D01*
X153786463Y-63536506D01*
X153727498Y-63646820D01*
X153691188Y-63766518D01*
X153678928Y-63891000D01*
X153682000Y-64230250D01*
X153840750Y-64389000D01*
X154940000Y-64389000D01*
X154940000Y-64369000D01*
X155194000Y-64369000D01*
X155194000Y-64389000D01*
X155214000Y-64389000D01*
X155214000Y-64643000D01*
X155194000Y-64643000D01*
X155194000Y-65617250D01*
X155352750Y-65776000D01*
X155817000Y-65779072D01*
X155941482Y-65766812D01*
X156061180Y-65730502D01*
X156083000Y-65718839D01*
X156083000Y-66742161D01*
X156061180Y-66730498D01*
X155941482Y-66694188D01*
X155817000Y-66681928D01*
X155352750Y-66685000D01*
X155194000Y-66843750D01*
X155194000Y-67818000D01*
X155214000Y-67818000D01*
X155214000Y-68072000D01*
X155194000Y-68072000D01*
X155194000Y-68092000D01*
X154940000Y-68092000D01*
X154940000Y-68072000D01*
X153840750Y-68072000D01*
X153682000Y-68230750D01*
X153678928Y-68570000D01*
X153691188Y-68694482D01*
X153727498Y-68814180D01*
X153786463Y-68924494D01*
X153865815Y-69021185D01*
X153962506Y-69100537D01*
X154051000Y-69147839D01*
X154051000Y-72071864D01*
X154035269Y-72054412D01*
X153801920Y-71880359D01*
X153539099Y-71755175D01*
X153391890Y-71710524D01*
X153162000Y-71831845D01*
X153162000Y-73025000D01*
X152908000Y-73025000D01*
X152908000Y-71831845D01*
X152678110Y-71710524D01*
X152530901Y-71755175D01*
X152268080Y-71880359D01*
X152034731Y-72054412D01*
X152019000Y-72071864D01*
X152019000Y-69977000D01*
X152016560Y-69952224D01*
X152009333Y-69928399D01*
X151997597Y-69906443D01*
X151981803Y-69887197D01*
X151962557Y-69871403D01*
X151940601Y-69859667D01*
X151916776Y-69852440D01*
X151892000Y-69850000D01*
X148590000Y-69850000D01*
X148590000Y-68971000D01*
X148638928Y-68971000D01*
X148651188Y-69095482D01*
X148687498Y-69215180D01*
X148746463Y-69325494D01*
X148825815Y-69422185D01*
X148922506Y-69501537D01*
X149032820Y-69560502D01*
X149152518Y-69596812D01*
X149277000Y-69609072D01*
X150216250Y-69606000D01*
X150375000Y-69447250D01*
X150375000Y-66548000D01*
X150629000Y-66548000D01*
X150629000Y-69447250D01*
X150787750Y-69606000D01*
X151727000Y-69609072D01*
X151851482Y-69596812D01*
X151971180Y-69560502D01*
X152081494Y-69501537D01*
X152178185Y-69422185D01*
X152257537Y-69325494D01*
X152316502Y-69215180D01*
X152352812Y-69095482D01*
X152365072Y-68971000D01*
X152362833Y-67320000D01*
X153678928Y-67320000D01*
X153682000Y-67659250D01*
X153840750Y-67818000D01*
X154940000Y-67818000D01*
X154940000Y-66843750D01*
X154781250Y-66685000D01*
X154317000Y-66681928D01*
X154192518Y-66694188D01*
X154072820Y-66730498D01*
X153962506Y-66789463D01*
X153865815Y-66868815D01*
X153786463Y-66965506D01*
X153727498Y-67075820D01*
X153691188Y-67195518D01*
X153678928Y-67320000D01*
X152362833Y-67320000D01*
X152362000Y-66706750D01*
X152203250Y-66548000D01*
X150629000Y-66548000D01*
X150375000Y-66548000D01*
X148800750Y-66548000D01*
X148642000Y-66706750D01*
X148638928Y-68971000D01*
X148590000Y-68971000D01*
X148590000Y-63871000D01*
X148638928Y-63871000D01*
X148642000Y-66135250D01*
X148800750Y-66294000D01*
X150375000Y-66294000D01*
X150375000Y-63394750D01*
X150629000Y-63394750D01*
X150629000Y-66294000D01*
X152203250Y-66294000D01*
X152362000Y-66135250D01*
X152363348Y-65141000D01*
X153678928Y-65141000D01*
X153691188Y-65265482D01*
X153727498Y-65385180D01*
X153786463Y-65495494D01*
X153865815Y-65592185D01*
X153962506Y-65671537D01*
X154072820Y-65730502D01*
X154192518Y-65766812D01*
X154317000Y-65779072D01*
X154781250Y-65776000D01*
X154940000Y-65617250D01*
X154940000Y-64643000D01*
X153840750Y-64643000D01*
X153682000Y-64801750D01*
X153678928Y-65141000D01*
X152363348Y-65141000D01*
X152365072Y-63871000D01*
X152352812Y-63746518D01*
X152316502Y-63626820D01*
X152257537Y-63516506D01*
X152178185Y-63419815D01*
X152081494Y-63340463D01*
X151971180Y-63281498D01*
X151851482Y-63245188D01*
X151727000Y-63232928D01*
X150787750Y-63236000D01*
X150629000Y-63394750D01*
X150375000Y-63394750D01*
X150216250Y-63236000D01*
X149277000Y-63232928D01*
X149152518Y-63245188D01*
X149032820Y-63281498D01*
X148922506Y-63340463D01*
X148825815Y-63419815D01*
X148746463Y-63516506D01*
X148687498Y-63626820D01*
X148651188Y-63746518D01*
X148638928Y-63871000D01*
X148590000Y-63871000D01*
X148590000Y-62992000D01*
X151892000Y-62992000D01*
X151916776Y-62989560D01*
X151940601Y-62982333D01*
X151962557Y-62970597D01*
X151981803Y-62954803D01*
X151997597Y-62935557D01*
X152009333Y-62913601D01*
X152016560Y-62889776D01*
X152019000Y-62865000D01*
X152019000Y-60008136D01*
X152034731Y-60025588D01*
X152268080Y-60199641D01*
X152530901Y-60324825D01*
X152678110Y-60369476D01*
X152908000Y-60248155D01*
X152908000Y-59055000D01*
X153162000Y-59055000D01*
X153162000Y-60248155D01*
X153162000Y-60248155D01*
G37*
X153162000Y-60248155D02*
X153391890Y-60369476D01*
X153539099Y-60324825D01*
X153801920Y-60199641D01*
X154035269Y-60025588D01*
X154051000Y-60008136D01*
X154051000Y-63313161D01*
X153962506Y-63360463D01*
X153865815Y-63439815D01*
X153786463Y-63536506D01*
X153727498Y-63646820D01*
X153691188Y-63766518D01*
X153678928Y-63891000D01*
X153682000Y-64230250D01*
X153840750Y-64389000D01*
X154940000Y-64389000D01*
X154940000Y-64369000D01*
X155194000Y-64369000D01*
X155194000Y-64389000D01*
X155214000Y-64389000D01*
X155214000Y-64643000D01*
X155194000Y-64643000D01*
X155194000Y-65617250D01*
X155352750Y-65776000D01*
X155817000Y-65779072D01*
X155941482Y-65766812D01*
X156061180Y-65730502D01*
X156083000Y-65718839D01*
X156083000Y-66742161D01*
X156061180Y-66730498D01*
X155941482Y-66694188D01*
X155817000Y-66681928D01*
X155352750Y-66685000D01*
X155194000Y-66843750D01*
X155194000Y-67818000D01*
X155214000Y-67818000D01*
X155214000Y-68072000D01*
X155194000Y-68072000D01*
X155194000Y-68092000D01*
X154940000Y-68092000D01*
X154940000Y-68072000D01*
X153840750Y-68072000D01*
X153682000Y-68230750D01*
X153678928Y-68570000D01*
X153691188Y-68694482D01*
X153727498Y-68814180D01*
X153786463Y-68924494D01*
X153865815Y-69021185D01*
X153962506Y-69100537D01*
X154051000Y-69147839D01*
X154051000Y-72071864D01*
X154035269Y-72054412D01*
X153801920Y-71880359D01*
X153539099Y-71755175D01*
X153391890Y-71710524D01*
X153162000Y-71831845D01*
X153162000Y-73025000D01*
X152908000Y-73025000D01*
X152908000Y-71831845D01*
X152678110Y-71710524D01*
X152530901Y-71755175D01*
X152268080Y-71880359D01*
X152034731Y-72054412D01*
X152019000Y-72071864D01*
X152019000Y-69977000D01*
X152016560Y-69952224D01*
X152009333Y-69928399D01*
X151997597Y-69906443D01*
X151981803Y-69887197D01*
X151962557Y-69871403D01*
X151940601Y-69859667D01*
X151916776Y-69852440D01*
X151892000Y-69850000D01*
X148590000Y-69850000D01*
X148590000Y-68971000D01*
X148638928Y-68971000D01*
X148651188Y-69095482D01*
X148687498Y-69215180D01*
X148746463Y-69325494D01*
X148825815Y-69422185D01*
X148922506Y-69501537D01*
X149032820Y-69560502D01*
X149152518Y-69596812D01*
X149277000Y-69609072D01*
X150216250Y-69606000D01*
X150375000Y-69447250D01*
X150375000Y-66548000D01*
X150629000Y-66548000D01*
X150629000Y-69447250D01*
X150787750Y-69606000D01*
X151727000Y-69609072D01*
X151851482Y-69596812D01*
X151971180Y-69560502D01*
X152081494Y-69501537D01*
X152178185Y-69422185D01*
X152257537Y-69325494D01*
X152316502Y-69215180D01*
X152352812Y-69095482D01*
X152365072Y-68971000D01*
X152362833Y-67320000D01*
X153678928Y-67320000D01*
X153682000Y-67659250D01*
X153840750Y-67818000D01*
X154940000Y-67818000D01*
X154940000Y-66843750D01*
X154781250Y-66685000D01*
X154317000Y-66681928D01*
X154192518Y-66694188D01*
X154072820Y-66730498D01*
X153962506Y-66789463D01*
X153865815Y-66868815D01*
X153786463Y-66965506D01*
X153727498Y-67075820D01*
X153691188Y-67195518D01*
X153678928Y-67320000D01*
X152362833Y-67320000D01*
X152362000Y-66706750D01*
X152203250Y-66548000D01*
X150629000Y-66548000D01*
X150375000Y-66548000D01*
X148800750Y-66548000D01*
X148642000Y-66706750D01*
X148638928Y-68971000D01*
X148590000Y-68971000D01*
X148590000Y-63871000D01*
X148638928Y-63871000D01*
X148642000Y-66135250D01*
X148800750Y-66294000D01*
X150375000Y-66294000D01*
X150375000Y-63394750D01*
X150629000Y-63394750D01*
X150629000Y-66294000D01*
X152203250Y-66294000D01*
X152362000Y-66135250D01*
X152363348Y-65141000D01*
X153678928Y-65141000D01*
X153691188Y-65265482D01*
X153727498Y-65385180D01*
X153786463Y-65495494D01*
X153865815Y-65592185D01*
X153962506Y-65671537D01*
X154072820Y-65730502D01*
X154192518Y-65766812D01*
X154317000Y-65779072D01*
X154781250Y-65776000D01*
X154940000Y-65617250D01*
X154940000Y-64643000D01*
X153840750Y-64643000D01*
X153682000Y-64801750D01*
X153678928Y-65141000D01*
X152363348Y-65141000D01*
X152365072Y-63871000D01*
X152352812Y-63746518D01*
X152316502Y-63626820D01*
X152257537Y-63516506D01*
X152178185Y-63419815D01*
X152081494Y-63340463D01*
X151971180Y-63281498D01*
X151851482Y-63245188D01*
X151727000Y-63232928D01*
X150787750Y-63236000D01*
X150629000Y-63394750D01*
X150375000Y-63394750D01*
X150216250Y-63236000D01*
X149277000Y-63232928D01*
X149152518Y-63245188D01*
X149032820Y-63281498D01*
X148922506Y-63340463D01*
X148825815Y-63419815D01*
X148746463Y-63516506D01*
X148687498Y-63626820D01*
X148651188Y-63746518D01*
X148638928Y-63871000D01*
X148590000Y-63871000D01*
X148590000Y-62992000D01*
X151892000Y-62992000D01*
X151916776Y-62989560D01*
X151940601Y-62982333D01*
X151962557Y-62970597D01*
X151981803Y-62954803D01*
X151997597Y-62935557D01*
X152009333Y-62913601D01*
X152016560Y-62889776D01*
X152019000Y-62865000D01*
X152019000Y-60008136D01*
X152034731Y-60025588D01*
X152268080Y-60199641D01*
X152530901Y-60324825D01*
X152678110Y-60369476D01*
X152908000Y-60248155D01*
X152908000Y-59055000D01*
X153162000Y-59055000D01*
X153162000Y-60248155D01*
M02*
