G04 #@! TF.GenerationSoftware,KiCad,Pcbnew,(5.1.2)-2*
G04 #@! TF.CreationDate,2019-11-04T12:19:55+09:00*
G04 #@! TF.ProjectId,Kicad_sehd_mv,4b696361-645f-4736-9568-645f6d762e6b,1.0*
G04 #@! TF.SameCoordinates,Original*
G04 #@! TF.FileFunction,Legend,Top*
G04 #@! TF.FilePolarity,Positive*
%FSLAX46Y46*%
G04 Gerber Fmt 4.6, Leading zero omitted, Abs format (unit mm)*
G04 Created by KiCad (PCBNEW (5.1.2)-2) date 2019-11-04 12:19:55*
%MOMM*%
%LPD*%
G04 APERTURE LIST*
%ADD10C,0.304800*%
%ADD11C,0.120000*%
%ADD12C,0.200000*%
%ADD13C,0.250000*%
%ADD14C,0.254000*%
%ADD15C,0.150000*%
G04 APERTURE END LIST*
D10*
X69850000Y-68580000D02*
X64770000Y-68580000D01*
X64770000Y-58420000D02*
X64770000Y-73660000D01*
X64770000Y-73660000D02*
X69850000Y-73660000D01*
X69850000Y-73660000D02*
X69850000Y-58420000D01*
X69850000Y-58420000D02*
X64770000Y-58420000D01*
D11*
X137807000Y-62015000D02*
X136807000Y-62015000D01*
X136807000Y-63715000D02*
X137807000Y-63715000D01*
X156817000Y-63666000D02*
X155817000Y-63666000D01*
X155817000Y-65366000D02*
X156817000Y-65366000D01*
D12*
X113021000Y-62010000D02*
X113021000Y-67610000D01*
X108721000Y-64385000D02*
X108721000Y-67610000D01*
D11*
X134209000Y-68615000D02*
X134909000Y-68615000D01*
X134909000Y-69815000D02*
X134209000Y-69815000D01*
X76466000Y-74129000D02*
X77966000Y-74129000D01*
X76466000Y-74129000D02*
X76466000Y-70929000D01*
X77966000Y-70929000D02*
X77966000Y-74129000D01*
X116066000Y-68168000D02*
X116066000Y-71368000D01*
X114566000Y-71368000D02*
X114566000Y-68168000D01*
X114566000Y-71368000D02*
X116066000Y-71368000D01*
X160159000Y-70987000D02*
X161659000Y-70987000D01*
X160159000Y-70987000D02*
X160159000Y-67787000D01*
X161659000Y-67787000D02*
X161659000Y-70987000D01*
D12*
X136419000Y-67871000D02*
X135869000Y-67871000D01*
X135869000Y-67871000D02*
X135869000Y-64971000D01*
X135869000Y-64971000D02*
X136419000Y-64971000D01*
X136419000Y-64971000D02*
X136419000Y-67871000D01*
X138019000Y-68021000D02*
X136769000Y-68021000D01*
X100763000Y-66560000D02*
X100763000Y-64960000D01*
X100763000Y-64960000D02*
X107263000Y-64960000D01*
X107263000Y-64960000D02*
X107263000Y-66560000D01*
D13*
X107438000Y-62010000D02*
G75*
G03X107438000Y-62010000I-125000J0D01*
G01*
D12*
X94814000Y-62333000D02*
X93614000Y-62333000D01*
X93264000Y-59383000D02*
X93264000Y-62283000D01*
X92664000Y-59383000D02*
X93264000Y-59383000D01*
X92664000Y-62283000D02*
X92664000Y-59383000D01*
X93264000Y-62283000D02*
X92664000Y-62283000D01*
X94337000Y-67873000D02*
X94337000Y-69073000D01*
X91387000Y-69423000D02*
X94287000Y-69423000D01*
X91387000Y-70023000D02*
X91387000Y-69423000D01*
X94287000Y-70023000D02*
X91387000Y-70023000D01*
X94287000Y-69423000D02*
X94287000Y-70023000D01*
X83612000Y-63934000D02*
X83012000Y-63934000D01*
X83012000Y-63934000D02*
X83012000Y-61034000D01*
X83012000Y-61034000D02*
X83612000Y-61034000D01*
X83612000Y-61034000D02*
X83612000Y-63934000D01*
X85162000Y-63984000D02*
X83962000Y-63984000D01*
X83612000Y-69776000D02*
X83012000Y-69776000D01*
X83012000Y-69776000D02*
X83012000Y-66876000D01*
X83012000Y-66876000D02*
X83612000Y-66876000D01*
X83612000Y-66876000D02*
X83612000Y-69776000D01*
X85162000Y-69826000D02*
X83962000Y-69826000D01*
D11*
X122601000Y-58852000D02*
X122301000Y-59452000D01*
X122001000Y-58852000D02*
X122601000Y-58852000D01*
X122301000Y-59452000D02*
X122001000Y-58852000D01*
X117381000Y-67752000D02*
X117381000Y-59652000D01*
X124421000Y-67752000D02*
X117381000Y-67752000D01*
X124421000Y-66552000D02*
X124421000Y-67752000D01*
X126121000Y-66552000D02*
X124421000Y-66552000D01*
X126121000Y-60852000D02*
X126121000Y-66552000D01*
X124421000Y-60852000D02*
X126121000Y-60852000D01*
X124421000Y-59652000D02*
X124421000Y-60852000D01*
X117381000Y-59652000D02*
X124421000Y-59652000D01*
X156905000Y-60258000D02*
X156905000Y-57598000D01*
X151765000Y-60258000D02*
X156905000Y-60258000D01*
X151765000Y-57598000D02*
X156905000Y-57598000D01*
X151765000Y-60258000D02*
X151765000Y-57598000D01*
X150495000Y-60258000D02*
X149165000Y-60258000D01*
X149165000Y-60258000D02*
X149165000Y-58928000D01*
X149165000Y-74482000D02*
X149165000Y-73152000D01*
X150495000Y-74482000D02*
X149165000Y-74482000D01*
X151765000Y-74482000D02*
X151765000Y-71822000D01*
X151765000Y-71822000D02*
X156905000Y-71822000D01*
X151765000Y-74482000D02*
X156905000Y-74482000D01*
X156905000Y-74482000D02*
X156905000Y-71822000D01*
X122749000Y-72196000D02*
X122749000Y-70866000D01*
X124079000Y-72196000D02*
X122749000Y-72196000D01*
X125349000Y-72196000D02*
X125349000Y-69536000D01*
X125349000Y-69536000D02*
X127949000Y-69536000D01*
X125349000Y-72196000D02*
X127949000Y-72196000D01*
X127949000Y-72196000D02*
X127949000Y-69536000D01*
D12*
X151074000Y-62331000D02*
X142430000Y-62331000D01*
X142430000Y-70511000D02*
X151074000Y-70511000D01*
D11*
X74050000Y-73310000D02*
X74050000Y-72110000D01*
X75810000Y-72110000D02*
X75810000Y-73310000D01*
X129803000Y-71927000D02*
X129803000Y-70727000D01*
X131563000Y-70727000D02*
X131563000Y-71927000D01*
X130003000Y-64525000D02*
X131203000Y-64525000D01*
X131203000Y-66285000D02*
X130003000Y-66285000D01*
X131203000Y-64126000D02*
X130003000Y-64126000D01*
X130003000Y-62366000D02*
X131203000Y-62366000D01*
X75810000Y-65233000D02*
X75810000Y-66433000D01*
X74050000Y-66433000D02*
X74050000Y-65233000D01*
X76082000Y-66433000D02*
X76082000Y-65233000D01*
X77842000Y-65233000D02*
X77842000Y-66433000D01*
X77842000Y-59010000D02*
X77842000Y-60210000D01*
X76082000Y-60210000D02*
X76082000Y-59010000D01*
X74050000Y-60210000D02*
X74050000Y-59010000D01*
X75810000Y-59010000D02*
X75810000Y-60210000D01*
X116196000Y-63234000D02*
X116196000Y-64434000D01*
X114436000Y-64434000D02*
X114436000Y-63234000D01*
X89272000Y-60614000D02*
X89272000Y-61814000D01*
X87512000Y-61814000D02*
X87512000Y-60614000D01*
X89145000Y-69076000D02*
X89145000Y-70276000D01*
X87385000Y-70276000D02*
X87385000Y-69076000D01*
X99559000Y-58916000D02*
X99559000Y-60116000D01*
X97799000Y-60116000D02*
X97799000Y-58916000D01*
X98035000Y-71964000D02*
X98035000Y-73164000D01*
X96275000Y-73164000D02*
X96275000Y-71964000D01*
X160029000Y-64147000D02*
X160029000Y-62947000D01*
X161789000Y-62947000D02*
X161789000Y-64147000D01*
D12*
X142884000Y-60586000D02*
X142884000Y-57411000D01*
X142884000Y-57411000D02*
X140834000Y-57411000D01*
X140834000Y-57411000D02*
X140834000Y-60586000D01*
X140979000Y-74669000D02*
X140979000Y-71494000D01*
X138929000Y-74669000D02*
X140979000Y-74669000D01*
X138929000Y-71494000D02*
X138929000Y-74669000D01*
D11*
X155817000Y-68795000D02*
X156817000Y-68795000D01*
X156817000Y-67095000D02*
X155817000Y-67095000D01*
D14*
X66209333Y-56847619D02*
X66209333Y-57573333D01*
X66160952Y-57718476D01*
X66064190Y-57815238D01*
X65919047Y-57863619D01*
X65822285Y-57863619D01*
X67225333Y-57863619D02*
X66644761Y-57863619D01*
X66935047Y-57863619D02*
X66935047Y-56847619D01*
X66838285Y-56992761D01*
X66741523Y-57089523D01*
X66644761Y-57137904D01*
D15*
X70294666Y-71842380D02*
X70628000Y-72842380D01*
X70961333Y-71842380D01*
X71866095Y-72747142D02*
X71818476Y-72794761D01*
X71675619Y-72842380D01*
X71580380Y-72842380D01*
X71437523Y-72794761D01*
X71342285Y-72699523D01*
X71294666Y-72604285D01*
X71247047Y-72413809D01*
X71247047Y-72270952D01*
X71294666Y-72080476D01*
X71342285Y-71985238D01*
X71437523Y-71890000D01*
X71580380Y-71842380D01*
X71675619Y-71842380D01*
X71818476Y-71890000D01*
X71866095Y-71937619D01*
X72866095Y-72747142D02*
X72818476Y-72794761D01*
X72675619Y-72842380D01*
X72580380Y-72842380D01*
X72437523Y-72794761D01*
X72342285Y-72699523D01*
X72294666Y-72604285D01*
X72247047Y-72413809D01*
X72247047Y-72270952D01*
X72294666Y-72080476D01*
X72342285Y-71985238D01*
X72437523Y-71890000D01*
X72580380Y-71842380D01*
X72675619Y-71842380D01*
X72818476Y-71890000D01*
X72866095Y-71937619D01*
X70866095Y-69350000D02*
X70770857Y-69302380D01*
X70628000Y-69302380D01*
X70485142Y-69350000D01*
X70389904Y-69445238D01*
X70342285Y-69540476D01*
X70294666Y-69730952D01*
X70294666Y-69873809D01*
X70342285Y-70064285D01*
X70389904Y-70159523D01*
X70485142Y-70254761D01*
X70628000Y-70302380D01*
X70723238Y-70302380D01*
X70866095Y-70254761D01*
X70913714Y-70207142D01*
X70913714Y-69873809D01*
X70723238Y-69873809D01*
X71342285Y-70302380D02*
X71342285Y-69302380D01*
X71913714Y-70302380D01*
X71913714Y-69302380D01*
X72389904Y-70302380D02*
X72389904Y-69302380D01*
X72628000Y-69302380D01*
X72770857Y-69350000D01*
X72866095Y-69445238D01*
X72913714Y-69540476D01*
X72961333Y-69730952D01*
X72961333Y-69873809D01*
X72913714Y-70064285D01*
X72866095Y-70159523D01*
X72770857Y-70254761D01*
X72628000Y-70302380D01*
X72389904Y-70302380D01*
X71151714Y-60142380D02*
X70580285Y-60142380D01*
X70866000Y-60142380D02*
X70866000Y-59142380D01*
X70770761Y-59285238D01*
X70675523Y-59380476D01*
X70580285Y-59428095D01*
X137120333Y-61317142D02*
X137072714Y-61364761D01*
X136929857Y-61412380D01*
X136834619Y-61412380D01*
X136691761Y-61364761D01*
X136596523Y-61269523D01*
X136548904Y-61174285D01*
X136501285Y-60983809D01*
X136501285Y-60840952D01*
X136548904Y-60650476D01*
X136596523Y-60555238D01*
X136691761Y-60460000D01*
X136834619Y-60412380D01*
X136929857Y-60412380D01*
X137072714Y-60460000D01*
X137120333Y-60507619D01*
X138072714Y-61412380D02*
X137501285Y-61412380D01*
X137787000Y-61412380D02*
X137787000Y-60412380D01*
X137691761Y-60555238D01*
X137596523Y-60650476D01*
X137501285Y-60698095D01*
X156150333Y-63123142D02*
X156102714Y-63170761D01*
X155959857Y-63218380D01*
X155864619Y-63218380D01*
X155721761Y-63170761D01*
X155626523Y-63075523D01*
X155578904Y-62980285D01*
X155531285Y-62789809D01*
X155531285Y-62646952D01*
X155578904Y-62456476D01*
X155626523Y-62361238D01*
X155721761Y-62266000D01*
X155864619Y-62218380D01*
X155959857Y-62218380D01*
X156102714Y-62266000D01*
X156150333Y-62313619D01*
X156531285Y-62313619D02*
X156578904Y-62266000D01*
X156674142Y-62218380D01*
X156912238Y-62218380D01*
X157007476Y-62266000D01*
X157055095Y-62313619D01*
X157102714Y-62408857D01*
X157102714Y-62504095D01*
X157055095Y-62646952D01*
X156483666Y-63218380D01*
X157102714Y-63218380D01*
D14*
X110659333Y-71192571D02*
X110598857Y-71253047D01*
X110417428Y-71313523D01*
X110296476Y-71313523D01*
X110115047Y-71253047D01*
X109994095Y-71132095D01*
X109933619Y-71011142D01*
X109873142Y-70769238D01*
X109873142Y-70587809D01*
X109933619Y-70345904D01*
X109994095Y-70224952D01*
X110115047Y-70104000D01*
X110296476Y-70043523D01*
X110417428Y-70043523D01*
X110598857Y-70104000D01*
X110659333Y-70164476D01*
X111082666Y-70043523D02*
X111868857Y-70043523D01*
X111445523Y-70527333D01*
X111626952Y-70527333D01*
X111747904Y-70587809D01*
X111808380Y-70648285D01*
X111868857Y-70769238D01*
X111868857Y-71071619D01*
X111808380Y-71192571D01*
X111747904Y-71253047D01*
X111626952Y-71313523D01*
X111264095Y-71313523D01*
X111143142Y-71253047D01*
X111082666Y-71192571D01*
D15*
X134392333Y-71223142D02*
X134344714Y-71270761D01*
X134201857Y-71318380D01*
X134106619Y-71318380D01*
X133963761Y-71270761D01*
X133868523Y-71175523D01*
X133820904Y-71080285D01*
X133773285Y-70889809D01*
X133773285Y-70746952D01*
X133820904Y-70556476D01*
X133868523Y-70461238D01*
X133963761Y-70366000D01*
X134106619Y-70318380D01*
X134201857Y-70318380D01*
X134344714Y-70366000D01*
X134392333Y-70413619D01*
X135249476Y-70651714D02*
X135249476Y-71318380D01*
X135011380Y-70270761D02*
X134773285Y-70985047D01*
X135392333Y-70985047D01*
X76477904Y-75763380D02*
X76477904Y-74763380D01*
X76716000Y-74763380D01*
X76858857Y-74811000D01*
X76954095Y-74906238D01*
X77001714Y-75001476D01*
X77049333Y-75191952D01*
X77049333Y-75334809D01*
X77001714Y-75525285D01*
X76954095Y-75620523D01*
X76858857Y-75715761D01*
X76716000Y-75763380D01*
X76477904Y-75763380D01*
X78001714Y-75763380D02*
X77430285Y-75763380D01*
X77716000Y-75763380D02*
X77716000Y-74763380D01*
X77620761Y-74906238D01*
X77525523Y-75001476D01*
X77430285Y-75049095D01*
X114577904Y-73096380D02*
X114577904Y-72096380D01*
X114816000Y-72096380D01*
X114958857Y-72144000D01*
X115054095Y-72239238D01*
X115101714Y-72334476D01*
X115149333Y-72524952D01*
X115149333Y-72667809D01*
X115101714Y-72858285D01*
X115054095Y-72953523D01*
X114958857Y-73048761D01*
X114816000Y-73096380D01*
X114577904Y-73096380D01*
X115530285Y-72191619D02*
X115577904Y-72144000D01*
X115673142Y-72096380D01*
X115911238Y-72096380D01*
X116006476Y-72144000D01*
X116054095Y-72191619D01*
X116101714Y-72286857D01*
X116101714Y-72382095D01*
X116054095Y-72524952D01*
X115482666Y-73096380D01*
X116101714Y-73096380D01*
X163139380Y-69525095D02*
X162139380Y-69525095D01*
X162139380Y-69287000D01*
X162187000Y-69144142D01*
X162282238Y-69048904D01*
X162377476Y-69001285D01*
X162567952Y-68953666D01*
X162710809Y-68953666D01*
X162901285Y-69001285D01*
X162996523Y-69048904D01*
X163091761Y-69144142D01*
X163139380Y-69287000D01*
X163139380Y-69525095D01*
X162139380Y-68048904D02*
X162139380Y-68525095D01*
X162615571Y-68572714D01*
X162567952Y-68525095D01*
X162520333Y-68429857D01*
X162520333Y-68191761D01*
X162567952Y-68096523D01*
X162615571Y-68048904D01*
X162710809Y-68001285D01*
X162948904Y-68001285D01*
X163044142Y-68048904D01*
X163091761Y-68096523D01*
X163139380Y-68191761D01*
X163139380Y-68429857D01*
X163091761Y-68525095D01*
X163044142Y-68572714D01*
D14*
X140020523Y-67660761D02*
X138750523Y-67660761D01*
X139899571Y-66330285D02*
X139960047Y-66390761D01*
X140020523Y-66572190D01*
X140020523Y-66693142D01*
X139960047Y-66874571D01*
X139839095Y-66995523D01*
X139718142Y-67056000D01*
X139476238Y-67116476D01*
X139294809Y-67116476D01*
X139052904Y-67056000D01*
X138931952Y-66995523D01*
X138811000Y-66874571D01*
X138750523Y-66693142D01*
X138750523Y-66572190D01*
X138811000Y-66390761D01*
X138871476Y-66330285D01*
X140020523Y-65120761D02*
X140020523Y-65846476D01*
X140020523Y-65483619D02*
X138750523Y-65483619D01*
X138931952Y-65604571D01*
X139052904Y-65725523D01*
X139113380Y-65846476D01*
X99761523Y-68549761D02*
X98491523Y-68549761D01*
X99640571Y-67219285D02*
X99701047Y-67279761D01*
X99761523Y-67461190D01*
X99761523Y-67582142D01*
X99701047Y-67763571D01*
X99580095Y-67884523D01*
X99459142Y-67945000D01*
X99217238Y-68005476D01*
X99035809Y-68005476D01*
X98793904Y-67945000D01*
X98672952Y-67884523D01*
X98552000Y-67763571D01*
X98491523Y-67582142D01*
X98491523Y-67461190D01*
X98552000Y-67279761D01*
X98612476Y-67219285D01*
X98612476Y-66735476D02*
X98552000Y-66675000D01*
X98491523Y-66554047D01*
X98491523Y-66251666D01*
X98552000Y-66130714D01*
X98612476Y-66070238D01*
X98733428Y-66009761D01*
X98854380Y-66009761D01*
X99035809Y-66070238D01*
X99761523Y-66795952D01*
X99761523Y-66009761D01*
X91724238Y-58613523D02*
X91724238Y-57343523D01*
X93054714Y-58492571D02*
X92994238Y-58553047D01*
X92812809Y-58613523D01*
X92691857Y-58613523D01*
X92510428Y-58553047D01*
X92389476Y-58432095D01*
X92329000Y-58311142D01*
X92268523Y-58069238D01*
X92268523Y-57887809D01*
X92329000Y-57645904D01*
X92389476Y-57524952D01*
X92510428Y-57404000D01*
X92691857Y-57343523D01*
X92812809Y-57343523D01*
X92994238Y-57404000D01*
X93054714Y-57464476D01*
X93478047Y-57343523D02*
X94264238Y-57343523D01*
X93840904Y-57827333D01*
X94022333Y-57827333D01*
X94143285Y-57887809D01*
X94203761Y-57948285D01*
X94264238Y-58069238D01*
X94264238Y-58371619D01*
X94203761Y-58492571D01*
X94143285Y-58553047D01*
X94022333Y-58613523D01*
X93659476Y-58613523D01*
X93538523Y-58553047D01*
X93478047Y-58492571D01*
X91597238Y-73599523D02*
X91597238Y-72329523D01*
X92927714Y-73478571D02*
X92867238Y-73539047D01*
X92685809Y-73599523D01*
X92564857Y-73599523D01*
X92383428Y-73539047D01*
X92262476Y-73418095D01*
X92202000Y-73297142D01*
X92141523Y-73055238D01*
X92141523Y-72873809D01*
X92202000Y-72631904D01*
X92262476Y-72510952D01*
X92383428Y-72390000D01*
X92564857Y-72329523D01*
X92685809Y-72329523D01*
X92867238Y-72390000D01*
X92927714Y-72450476D01*
X94016285Y-72752857D02*
X94016285Y-73599523D01*
X93713904Y-72269047D02*
X93411523Y-73176190D01*
X94197714Y-73176190D01*
X82072238Y-60264523D02*
X82072238Y-58994523D01*
X83402714Y-60143571D02*
X83342238Y-60204047D01*
X83160809Y-60264523D01*
X83039857Y-60264523D01*
X82858428Y-60204047D01*
X82737476Y-60083095D01*
X82677000Y-59962142D01*
X82616523Y-59720238D01*
X82616523Y-59538809D01*
X82677000Y-59296904D01*
X82737476Y-59175952D01*
X82858428Y-59055000D01*
X83039857Y-58994523D01*
X83160809Y-58994523D01*
X83342238Y-59055000D01*
X83402714Y-59115476D01*
X84551761Y-58994523D02*
X83947000Y-58994523D01*
X83886523Y-59599285D01*
X83947000Y-59538809D01*
X84067952Y-59478333D01*
X84370333Y-59478333D01*
X84491285Y-59538809D01*
X84551761Y-59599285D01*
X84612238Y-59720238D01*
X84612238Y-60022619D01*
X84551761Y-60143571D01*
X84491285Y-60204047D01*
X84370333Y-60264523D01*
X84067952Y-60264523D01*
X83947000Y-60204047D01*
X83886523Y-60143571D01*
X82072238Y-71948523D02*
X82072238Y-70678523D01*
X83402714Y-71827571D02*
X83342238Y-71888047D01*
X83160809Y-71948523D01*
X83039857Y-71948523D01*
X82858428Y-71888047D01*
X82737476Y-71767095D01*
X82677000Y-71646142D01*
X82616523Y-71404238D01*
X82616523Y-71222809D01*
X82677000Y-70980904D01*
X82737476Y-70859952D01*
X82858428Y-70739000D01*
X83039857Y-70678523D01*
X83160809Y-70678523D01*
X83342238Y-70739000D01*
X83402714Y-70799476D01*
X84491285Y-70678523D02*
X84249380Y-70678523D01*
X84128428Y-70739000D01*
X84067952Y-70799476D01*
X83947000Y-70980904D01*
X83886523Y-71222809D01*
X83886523Y-71706619D01*
X83947000Y-71827571D01*
X84007476Y-71888047D01*
X84128428Y-71948523D01*
X84370333Y-71948523D01*
X84491285Y-71888047D01*
X84551761Y-71827571D01*
X84612238Y-71706619D01*
X84612238Y-71404238D01*
X84551761Y-71283285D01*
X84491285Y-71222809D01*
X84370333Y-71162333D01*
X84128428Y-71162333D01*
X84007476Y-71222809D01*
X83947000Y-71283285D01*
X83886523Y-71404238D01*
D15*
X120443666Y-57745380D02*
X120443666Y-58459666D01*
X120396047Y-58602523D01*
X120300809Y-58697761D01*
X120157952Y-58745380D01*
X120062714Y-58745380D01*
X120872238Y-57840619D02*
X120919857Y-57793000D01*
X121015095Y-57745380D01*
X121253190Y-57745380D01*
X121348428Y-57793000D01*
X121396047Y-57840619D01*
X121443666Y-57935857D01*
X121443666Y-58031095D01*
X121396047Y-58173952D01*
X120824619Y-58745380D01*
X121443666Y-58745380D01*
X147617380Y-59261333D02*
X148331666Y-59261333D01*
X148474523Y-59308952D01*
X148569761Y-59404190D01*
X148617380Y-59547047D01*
X148617380Y-59642285D01*
X147617380Y-58880380D02*
X147617380Y-58261333D01*
X147998333Y-58594666D01*
X147998333Y-58451809D01*
X148045952Y-58356571D01*
X148093571Y-58308952D01*
X148188809Y-58261333D01*
X148426904Y-58261333D01*
X148522142Y-58308952D01*
X148569761Y-58356571D01*
X148617380Y-58451809D01*
X148617380Y-58737523D01*
X148569761Y-58832761D01*
X148522142Y-58880380D01*
X147617380Y-73485333D02*
X148331666Y-73485333D01*
X148474523Y-73532952D01*
X148569761Y-73628190D01*
X148617380Y-73771047D01*
X148617380Y-73866285D01*
X147950714Y-72580571D02*
X148617380Y-72580571D01*
X147569761Y-72818666D02*
X148284047Y-73056761D01*
X148284047Y-72437714D01*
X121201380Y-71699333D02*
X121915666Y-71699333D01*
X122058523Y-71746952D01*
X122153761Y-71842190D01*
X122201380Y-71985047D01*
X122201380Y-72080285D01*
X122201380Y-71223142D02*
X121201380Y-71223142D01*
X121201380Y-70842190D01*
X121249000Y-70746952D01*
X121296619Y-70699333D01*
X121391857Y-70651714D01*
X121534714Y-70651714D01*
X121629952Y-70699333D01*
X121677571Y-70746952D01*
X121725190Y-70842190D01*
X121725190Y-71223142D01*
X122201380Y-69699333D02*
X122201380Y-70270761D01*
X122201380Y-69985047D02*
X121201380Y-69985047D01*
X121344238Y-70080285D01*
X121439476Y-70175523D01*
X121487095Y-70270761D01*
D14*
X143933333Y-72583523D02*
X143328571Y-72583523D01*
X143328571Y-71313523D01*
X145021904Y-72583523D02*
X144296190Y-72583523D01*
X144659047Y-72583523D02*
X144659047Y-71313523D01*
X144538095Y-71494952D01*
X144417142Y-71615904D01*
X144296190Y-71676380D01*
D15*
X74763333Y-75763380D02*
X74430000Y-75287190D01*
X74191904Y-75763380D02*
X74191904Y-74763380D01*
X74572857Y-74763380D01*
X74668095Y-74811000D01*
X74715714Y-74858619D01*
X74763333Y-74953857D01*
X74763333Y-75096714D01*
X74715714Y-75191952D01*
X74668095Y-75239571D01*
X74572857Y-75287190D01*
X74191904Y-75287190D01*
X75715714Y-75763380D02*
X75144285Y-75763380D01*
X75430000Y-75763380D02*
X75430000Y-74763380D01*
X75334761Y-74906238D01*
X75239523Y-75001476D01*
X75144285Y-75049095D01*
X132835380Y-71493666D02*
X132359190Y-71827000D01*
X132835380Y-72065095D02*
X131835380Y-72065095D01*
X131835380Y-71684142D01*
X131883000Y-71588904D01*
X131930619Y-71541285D01*
X132025857Y-71493666D01*
X132168714Y-71493666D01*
X132263952Y-71541285D01*
X132311571Y-71588904D01*
X132359190Y-71684142D01*
X132359190Y-72065095D01*
X131930619Y-71112714D02*
X131883000Y-71065095D01*
X131835380Y-70969857D01*
X131835380Y-70731761D01*
X131883000Y-70636523D01*
X131930619Y-70588904D01*
X132025857Y-70541285D01*
X132121095Y-70541285D01*
X132263952Y-70588904D01*
X132835380Y-71160333D01*
X132835380Y-70541285D01*
X130389333Y-62047380D02*
X130056000Y-61571190D01*
X129817904Y-62047380D02*
X129817904Y-61047380D01*
X130198857Y-61047380D01*
X130294095Y-61095000D01*
X130341714Y-61142619D01*
X130389333Y-61237857D01*
X130389333Y-61380714D01*
X130341714Y-61475952D01*
X130294095Y-61523571D01*
X130198857Y-61571190D01*
X129817904Y-61571190D01*
X130722666Y-61047380D02*
X131341714Y-61047380D01*
X131008380Y-61428333D01*
X131151238Y-61428333D01*
X131246476Y-61475952D01*
X131294095Y-61523571D01*
X131341714Y-61618809D01*
X131341714Y-61856904D01*
X131294095Y-61952142D01*
X131246476Y-61999761D01*
X131151238Y-62047380D01*
X130865523Y-62047380D01*
X130770285Y-61999761D01*
X130722666Y-61952142D01*
X130389333Y-67762380D02*
X130056000Y-67286190D01*
X129817904Y-67762380D02*
X129817904Y-66762380D01*
X130198857Y-66762380D01*
X130294095Y-66810000D01*
X130341714Y-66857619D01*
X130389333Y-66952857D01*
X130389333Y-67095714D01*
X130341714Y-67190952D01*
X130294095Y-67238571D01*
X130198857Y-67286190D01*
X129817904Y-67286190D01*
X131246476Y-67095714D02*
X131246476Y-67762380D01*
X131008380Y-66714761D02*
X130770285Y-67429047D01*
X131389333Y-67429047D01*
X73604380Y-65952666D02*
X73128190Y-66286000D01*
X73604380Y-66524095D02*
X72604380Y-66524095D01*
X72604380Y-66143142D01*
X72652000Y-66047904D01*
X72699619Y-66000285D01*
X72794857Y-65952666D01*
X72937714Y-65952666D01*
X73032952Y-66000285D01*
X73080571Y-66047904D01*
X73128190Y-66143142D01*
X73128190Y-66524095D01*
X72604380Y-65047904D02*
X72604380Y-65524095D01*
X73080571Y-65571714D01*
X73032952Y-65524095D01*
X72985333Y-65428857D01*
X72985333Y-65190761D01*
X73032952Y-65095523D01*
X73080571Y-65047904D01*
X73175809Y-65000285D01*
X73413904Y-65000285D01*
X73509142Y-65047904D01*
X73556761Y-65095523D01*
X73604380Y-65190761D01*
X73604380Y-65428857D01*
X73556761Y-65524095D01*
X73509142Y-65571714D01*
X79192380Y-65952666D02*
X78716190Y-66286000D01*
X79192380Y-66524095D02*
X78192380Y-66524095D01*
X78192380Y-66143142D01*
X78240000Y-66047904D01*
X78287619Y-66000285D01*
X78382857Y-65952666D01*
X78525714Y-65952666D01*
X78620952Y-66000285D01*
X78668571Y-66047904D01*
X78716190Y-66143142D01*
X78716190Y-66524095D01*
X78192380Y-65095523D02*
X78192380Y-65286000D01*
X78240000Y-65381238D01*
X78287619Y-65428857D01*
X78430476Y-65524095D01*
X78620952Y-65571714D01*
X79001904Y-65571714D01*
X79097142Y-65524095D01*
X79144761Y-65476476D01*
X79192380Y-65381238D01*
X79192380Y-65190761D01*
X79144761Y-65095523D01*
X79097142Y-65047904D01*
X79001904Y-65000285D01*
X78763809Y-65000285D01*
X78668571Y-65047904D01*
X78620952Y-65095523D01*
X78573333Y-65190761D01*
X78573333Y-65381238D01*
X78620952Y-65476476D01*
X78668571Y-65524095D01*
X78763809Y-65571714D01*
X79192380Y-59729666D02*
X78716190Y-60063000D01*
X79192380Y-60301095D02*
X78192380Y-60301095D01*
X78192380Y-59920142D01*
X78240000Y-59824904D01*
X78287619Y-59777285D01*
X78382857Y-59729666D01*
X78525714Y-59729666D01*
X78620952Y-59777285D01*
X78668571Y-59824904D01*
X78716190Y-59920142D01*
X78716190Y-60301095D01*
X78192380Y-59396333D02*
X78192380Y-58729666D01*
X79192380Y-59158238D01*
X73604380Y-59729666D02*
X73128190Y-60063000D01*
X73604380Y-60301095D02*
X72604380Y-60301095D01*
X72604380Y-59920142D01*
X72652000Y-59824904D01*
X72699619Y-59777285D01*
X72794857Y-59729666D01*
X72937714Y-59729666D01*
X73032952Y-59777285D01*
X73080571Y-59824904D01*
X73128190Y-59920142D01*
X73128190Y-60301095D01*
X73032952Y-59158238D02*
X72985333Y-59253476D01*
X72937714Y-59301095D01*
X72842476Y-59348714D01*
X72794857Y-59348714D01*
X72699619Y-59301095D01*
X72652000Y-59253476D01*
X72604380Y-59158238D01*
X72604380Y-58967761D01*
X72652000Y-58872523D01*
X72699619Y-58824904D01*
X72794857Y-58777285D01*
X72842476Y-58777285D01*
X72937714Y-58824904D01*
X72985333Y-58872523D01*
X73032952Y-58967761D01*
X73032952Y-59158238D01*
X73080571Y-59253476D01*
X73128190Y-59301095D01*
X73223428Y-59348714D01*
X73413904Y-59348714D01*
X73509142Y-59301095D01*
X73556761Y-59253476D01*
X73604380Y-59158238D01*
X73604380Y-58967761D01*
X73556761Y-58872523D01*
X73509142Y-58824904D01*
X73413904Y-58777285D01*
X73223428Y-58777285D01*
X73128190Y-58824904D01*
X73080571Y-58872523D01*
X73032952Y-58967761D01*
X115149333Y-60904380D02*
X114816000Y-60428190D01*
X114577904Y-60904380D02*
X114577904Y-59904380D01*
X114958857Y-59904380D01*
X115054095Y-59952000D01*
X115101714Y-59999619D01*
X115149333Y-60094857D01*
X115149333Y-60237714D01*
X115101714Y-60332952D01*
X115054095Y-60380571D01*
X114958857Y-60428190D01*
X114577904Y-60428190D01*
X115625523Y-60904380D02*
X115816000Y-60904380D01*
X115911238Y-60856761D01*
X115958857Y-60809142D01*
X116054095Y-60666285D01*
X116101714Y-60475809D01*
X116101714Y-60094857D01*
X116054095Y-59999619D01*
X116006476Y-59952000D01*
X115911238Y-59904380D01*
X115720761Y-59904380D01*
X115625523Y-59952000D01*
X115577904Y-59999619D01*
X115530285Y-60094857D01*
X115530285Y-60332952D01*
X115577904Y-60428190D01*
X115625523Y-60475809D01*
X115720761Y-60523428D01*
X115911238Y-60523428D01*
X116006476Y-60475809D01*
X116054095Y-60428190D01*
X116101714Y-60332952D01*
X87749142Y-58237380D02*
X87415809Y-57761190D01*
X87177714Y-58237380D02*
X87177714Y-57237380D01*
X87558666Y-57237380D01*
X87653904Y-57285000D01*
X87701523Y-57332619D01*
X87749142Y-57427857D01*
X87749142Y-57570714D01*
X87701523Y-57665952D01*
X87653904Y-57713571D01*
X87558666Y-57761190D01*
X87177714Y-57761190D01*
X88701523Y-58237380D02*
X88130095Y-58237380D01*
X88415809Y-58237380D02*
X88415809Y-57237380D01*
X88320571Y-57380238D01*
X88225333Y-57475476D01*
X88130095Y-57523095D01*
X89320571Y-57237380D02*
X89415809Y-57237380D01*
X89511047Y-57285000D01*
X89558666Y-57332619D01*
X89606285Y-57427857D01*
X89653904Y-57618333D01*
X89653904Y-57856428D01*
X89606285Y-58046904D01*
X89558666Y-58142142D01*
X89511047Y-58189761D01*
X89415809Y-58237380D01*
X89320571Y-58237380D01*
X89225333Y-58189761D01*
X89177714Y-58142142D01*
X89130095Y-58046904D01*
X89082476Y-57856428D01*
X89082476Y-57618333D01*
X89130095Y-57427857D01*
X89177714Y-57332619D01*
X89225333Y-57285000D01*
X89320571Y-57237380D01*
X87622142Y-73731380D02*
X87288809Y-73255190D01*
X87050714Y-73731380D02*
X87050714Y-72731380D01*
X87431666Y-72731380D01*
X87526904Y-72779000D01*
X87574523Y-72826619D01*
X87622142Y-72921857D01*
X87622142Y-73064714D01*
X87574523Y-73159952D01*
X87526904Y-73207571D01*
X87431666Y-73255190D01*
X87050714Y-73255190D01*
X88574523Y-73731380D02*
X88003095Y-73731380D01*
X88288809Y-73731380D02*
X88288809Y-72731380D01*
X88193571Y-72874238D01*
X88098333Y-72969476D01*
X88003095Y-73017095D01*
X89526904Y-73731380D02*
X88955476Y-73731380D01*
X89241190Y-73731380D02*
X89241190Y-72731380D01*
X89145952Y-72874238D01*
X89050714Y-72969476D01*
X88955476Y-73017095D01*
X100909380Y-60158857D02*
X100433190Y-60492190D01*
X100909380Y-60730285D02*
X99909380Y-60730285D01*
X99909380Y-60349333D01*
X99957000Y-60254095D01*
X100004619Y-60206476D01*
X100099857Y-60158857D01*
X100242714Y-60158857D01*
X100337952Y-60206476D01*
X100385571Y-60254095D01*
X100433190Y-60349333D01*
X100433190Y-60730285D01*
X100909380Y-59206476D02*
X100909380Y-59777904D01*
X100909380Y-59492190D02*
X99909380Y-59492190D01*
X100052238Y-59587428D01*
X100147476Y-59682666D01*
X100195095Y-59777904D01*
X100004619Y-58825523D02*
X99957000Y-58777904D01*
X99909380Y-58682666D01*
X99909380Y-58444571D01*
X99957000Y-58349333D01*
X100004619Y-58301714D01*
X100099857Y-58254095D01*
X100195095Y-58254095D01*
X100337952Y-58301714D01*
X100909380Y-58873142D01*
X100909380Y-58254095D01*
X99307380Y-73206857D02*
X98831190Y-73540190D01*
X99307380Y-73778285D02*
X98307380Y-73778285D01*
X98307380Y-73397333D01*
X98355000Y-73302095D01*
X98402619Y-73254476D01*
X98497857Y-73206857D01*
X98640714Y-73206857D01*
X98735952Y-73254476D01*
X98783571Y-73302095D01*
X98831190Y-73397333D01*
X98831190Y-73778285D01*
X99307380Y-72254476D02*
X99307380Y-72825904D01*
X99307380Y-72540190D02*
X98307380Y-72540190D01*
X98450238Y-72635428D01*
X98545476Y-72730666D01*
X98593095Y-72825904D01*
X98307380Y-71921142D02*
X98307380Y-71302095D01*
X98688333Y-71635428D01*
X98688333Y-71492571D01*
X98735952Y-71397333D01*
X98783571Y-71349714D01*
X98878809Y-71302095D01*
X99116904Y-71302095D01*
X99212142Y-71349714D01*
X99259761Y-71397333D01*
X99307380Y-71492571D01*
X99307380Y-71778285D01*
X99259761Y-71873523D01*
X99212142Y-71921142D01*
X163061380Y-64189857D02*
X162585190Y-64523190D01*
X163061380Y-64761285D02*
X162061380Y-64761285D01*
X162061380Y-64380333D01*
X162109000Y-64285095D01*
X162156619Y-64237476D01*
X162251857Y-64189857D01*
X162394714Y-64189857D01*
X162489952Y-64237476D01*
X162537571Y-64285095D01*
X162585190Y-64380333D01*
X162585190Y-64761285D01*
X163061380Y-63237476D02*
X163061380Y-63808904D01*
X163061380Y-63523190D02*
X162061380Y-63523190D01*
X162204238Y-63618428D01*
X162299476Y-63713666D01*
X162347095Y-63808904D01*
X162394714Y-62380333D02*
X163061380Y-62380333D01*
X162013761Y-62618428D02*
X162728047Y-62856523D01*
X162728047Y-62237476D01*
D14*
X139004523Y-60464095D02*
X139004523Y-59617428D01*
X140274523Y-60464095D01*
X140274523Y-59617428D01*
X139004523Y-59254571D02*
X139004523Y-58468380D01*
X139488333Y-58891714D01*
X139488333Y-58710285D01*
X139548809Y-58589333D01*
X139609285Y-58528857D01*
X139730238Y-58468380D01*
X140032619Y-58468380D01*
X140153571Y-58528857D01*
X140214047Y-58589333D01*
X140274523Y-58710285D01*
X140274523Y-59073142D01*
X140214047Y-59194095D01*
X140153571Y-59254571D01*
X136972523Y-73672095D02*
X136972523Y-72825428D01*
X138242523Y-73672095D01*
X138242523Y-72825428D01*
X137395857Y-71797333D02*
X138242523Y-71797333D01*
X136912047Y-72099714D02*
X137819190Y-72402095D01*
X137819190Y-71615904D01*
D15*
X156150333Y-70207142D02*
X156102714Y-70254761D01*
X155959857Y-70302380D01*
X155864619Y-70302380D01*
X155721761Y-70254761D01*
X155626523Y-70159523D01*
X155578904Y-70064285D01*
X155531285Y-69873809D01*
X155531285Y-69730952D01*
X155578904Y-69540476D01*
X155626523Y-69445238D01*
X155721761Y-69350000D01*
X155864619Y-69302380D01*
X155959857Y-69302380D01*
X156102714Y-69350000D01*
X156150333Y-69397619D01*
X157055095Y-69302380D02*
X156578904Y-69302380D01*
X156531285Y-69778571D01*
X156578904Y-69730952D01*
X156674142Y-69683333D01*
X156912238Y-69683333D01*
X157007476Y-69730952D01*
X157055095Y-69778571D01*
X157102714Y-69873809D01*
X157102714Y-70111904D01*
X157055095Y-70207142D01*
X157007476Y-70254761D01*
X156912238Y-70302380D01*
X156674142Y-70302380D01*
X156578904Y-70254761D01*
X156531285Y-70207142D01*
M02*
