M48
; DRILL file {KiCad (5.1.2)-2} date 2019/11/04 12:20:36
; FORMAT={-:-/ absolute / metric / decimal}
; #@! TF.CreationDate,2019-11-04T12:20:36+09:00
; #@! TF.GenerationSoftware,Kicad,Pcbnew,(5.1.2)-2
FMAT,2
METRIC
T1C0.635
T2C1.000
T3C1.016
T4C1.650
T5C2.200
%
G90
G05
T1
X72.009Y-57.785
X72.39Y-64.516
X78.867Y-73.279
X79.121Y-66.802
X79.502Y-59.563
X80.772Y-72.009
X81.026Y-59.69
X82.042Y-70.739
X82.062Y-64.877
X83.312Y-72.009
X83.439Y-59.055
X84.582Y-60.325
X86.233Y-61.722
X86.233Y-63.373
X86.233Y-67.31
X86.233Y-69.088
X90.551Y-68.453
X91.694Y-63.246
X95.23Y-70.973
X95.25Y-75.184
X96.012Y-57.277
X96.012Y-59.944
X96.012Y-61.849
X98.806Y-73.406
X99.695Y-69.85
X100.838Y-58.928
X104.013Y-60.452
X110.871Y-69.85
X113.571Y-70.518
X127.254Y-63.246
X129.286Y-67.31
X132.428Y-72.677
X136.017Y-61.214
X136.779Y-69.215
X137.795Y-71.501
X139.827Y-66.421
X139.954Y-58.801
X144.018Y-60.452
X152.997Y-70.65
X157.567Y-66.254
X157.567Y-69.683
X157.607Y-62.611
T2
X124.079Y-70.866
X126.619Y-70.866
X150.495Y-73.152
X153.035Y-73.152
X155.575Y-73.152
X150.495Y-58.928
X153.035Y-58.928
X155.575Y-58.928
T3
X66.04Y-59.69
X66.04Y-62.23
X66.04Y-64.77
X66.04Y-67.31
X66.04Y-69.85
X66.04Y-72.39
X68.58Y-59.69
X68.58Y-62.23
X68.58Y-64.77
X68.58Y-67.31
X68.58Y-69.85
X68.58Y-72.39
T4
X122.301Y-61.722
X122.301Y-65.682
T5
X161.417Y-58.42
X161.417Y-73.66
T0
M30
