G04 #@! TF.GenerationSoftware,KiCad,Pcbnew,(5.1.2)-2*
G04 #@! TF.CreationDate,2019-11-04T12:19:55+09:00*
G04 #@! TF.ProjectId,Kicad_sehd_mv,4b696361-645f-4736-9568-645f6d762e6b,1.0*
G04 #@! TF.SameCoordinates,Original*
G04 #@! TF.FileFunction,Soldermask,Bot*
G04 #@! TF.FilePolarity,Negative*
%FSLAX46Y46*%
G04 Gerber Fmt 4.6, Leading zero omitted, Abs format (unit mm)*
G04 Created by KiCad (PCBNEW (5.1.2)-2) date 2019-11-04 12:19:55*
%MOMM*%
%LPD*%
G04 APERTURE LIST*
%ADD10C,0.100000*%
G04 APERTURE END LIST*
D10*
G36*
X161641549Y-72531116D02*
G01*
X161752734Y-72553232D01*
X161900850Y-72614584D01*
X161931169Y-72627142D01*
X161962203Y-72639997D01*
X162150720Y-72765960D01*
X162311040Y-72926280D01*
X162434112Y-73110471D01*
X162437004Y-73114799D01*
X162523768Y-73324267D01*
X162558419Y-73498466D01*
X162568000Y-73546636D01*
X162568000Y-73773364D01*
X162523768Y-73995734D01*
X162437003Y-74205203D01*
X162311040Y-74393720D01*
X162150720Y-74554040D01*
X161962203Y-74680003D01*
X161752734Y-74766768D01*
X161641549Y-74788884D01*
X161530365Y-74811000D01*
X161303635Y-74811000D01*
X161192451Y-74788884D01*
X161081266Y-74766768D01*
X160871797Y-74680003D01*
X160683280Y-74554040D01*
X160522960Y-74393720D01*
X160396997Y-74205203D01*
X160310232Y-73995734D01*
X160266000Y-73773364D01*
X160266000Y-73546636D01*
X160275582Y-73498466D01*
X160310232Y-73324267D01*
X160396996Y-73114799D01*
X160399888Y-73110471D01*
X160522960Y-72926280D01*
X160683280Y-72765960D01*
X160871797Y-72639997D01*
X160902832Y-72627142D01*
X160933150Y-72614584D01*
X161081266Y-72553232D01*
X161192451Y-72531116D01*
X161303635Y-72509000D01*
X161530365Y-72509000D01*
X161641549Y-72531116D01*
X161641549Y-72531116D01*
G37*
G36*
X155685443Y-72257519D02*
G01*
X155751627Y-72264037D01*
X155921466Y-72315557D01*
X156077991Y-72399222D01*
X156113729Y-72428552D01*
X156215186Y-72511814D01*
X156298448Y-72613271D01*
X156327778Y-72649009D01*
X156411443Y-72805534D01*
X156462963Y-72975373D01*
X156480359Y-73152000D01*
X156462963Y-73328627D01*
X156411443Y-73498466D01*
X156327778Y-73654991D01*
X156298448Y-73690729D01*
X156215186Y-73792186D01*
X156113729Y-73875448D01*
X156077991Y-73904778D01*
X155921466Y-73988443D01*
X155751627Y-74039963D01*
X155685442Y-74046482D01*
X155619260Y-74053000D01*
X155530740Y-74053000D01*
X155464558Y-74046482D01*
X155398373Y-74039963D01*
X155228534Y-73988443D01*
X155072009Y-73904778D01*
X155036271Y-73875448D01*
X154934814Y-73792186D01*
X154851552Y-73690729D01*
X154822222Y-73654991D01*
X154738557Y-73498466D01*
X154687037Y-73328627D01*
X154669641Y-73152000D01*
X154687037Y-72975373D01*
X154738557Y-72805534D01*
X154822222Y-72649009D01*
X154851552Y-72613271D01*
X154934814Y-72511814D01*
X155036271Y-72428552D01*
X155072009Y-72399222D01*
X155228534Y-72315557D01*
X155398373Y-72264037D01*
X155464557Y-72257519D01*
X155530740Y-72251000D01*
X155619260Y-72251000D01*
X155685443Y-72257519D01*
X155685443Y-72257519D01*
G37*
G36*
X151396000Y-74053000D02*
G01*
X149594000Y-74053000D01*
X149594000Y-72251000D01*
X151396000Y-72251000D01*
X151396000Y-74053000D01*
X151396000Y-74053000D01*
G37*
G36*
X153145443Y-72257519D02*
G01*
X153211627Y-72264037D01*
X153381466Y-72315557D01*
X153537991Y-72399222D01*
X153573729Y-72428552D01*
X153675186Y-72511814D01*
X153758448Y-72613271D01*
X153787778Y-72649009D01*
X153871443Y-72805534D01*
X153922963Y-72975373D01*
X153940359Y-73152000D01*
X153922963Y-73328627D01*
X153871443Y-73498466D01*
X153787778Y-73654991D01*
X153758448Y-73690729D01*
X153675186Y-73792186D01*
X153573729Y-73875448D01*
X153537991Y-73904778D01*
X153381466Y-73988443D01*
X153211627Y-74039963D01*
X153145442Y-74046482D01*
X153079260Y-74053000D01*
X152990740Y-74053000D01*
X152924558Y-74046482D01*
X152858373Y-74039963D01*
X152688534Y-73988443D01*
X152532009Y-73904778D01*
X152496271Y-73875448D01*
X152394814Y-73792186D01*
X152311552Y-73690729D01*
X152282222Y-73654991D01*
X152198557Y-73498466D01*
X152147037Y-73328627D01*
X152129641Y-73152000D01*
X152147037Y-72975373D01*
X152198557Y-72805534D01*
X152282222Y-72649009D01*
X152311552Y-72613271D01*
X152394814Y-72511814D01*
X152496271Y-72428552D01*
X152532009Y-72399222D01*
X152688534Y-72315557D01*
X152858373Y-72264037D01*
X152924557Y-72257519D01*
X152990740Y-72251000D01*
X153079260Y-72251000D01*
X153145443Y-72257519D01*
X153145443Y-72257519D01*
G37*
G36*
X66277142Y-71608242D02*
G01*
X66425101Y-71669529D01*
X66558255Y-71758499D01*
X66671501Y-71871745D01*
X66760471Y-72004899D01*
X66821758Y-72152858D01*
X66853000Y-72309925D01*
X66853000Y-72470075D01*
X66821758Y-72627142D01*
X66760471Y-72775101D01*
X66671501Y-72908255D01*
X66558255Y-73021501D01*
X66425101Y-73110471D01*
X66277142Y-73171758D01*
X66120075Y-73203000D01*
X65959925Y-73203000D01*
X65802858Y-73171758D01*
X65654899Y-73110471D01*
X65521745Y-73021501D01*
X65408499Y-72908255D01*
X65319529Y-72775101D01*
X65258242Y-72627142D01*
X65227000Y-72470075D01*
X65227000Y-72309925D01*
X65258242Y-72152858D01*
X65319529Y-72004899D01*
X65408499Y-71871745D01*
X65521745Y-71758499D01*
X65654899Y-71669529D01*
X65802858Y-71608242D01*
X65959925Y-71577000D01*
X66120075Y-71577000D01*
X66277142Y-71608242D01*
X66277142Y-71608242D01*
G37*
G36*
X68817142Y-71608242D02*
G01*
X68965101Y-71669529D01*
X69098255Y-71758499D01*
X69211501Y-71871745D01*
X69300471Y-72004899D01*
X69361758Y-72152858D01*
X69393000Y-72309925D01*
X69393000Y-72470075D01*
X69361758Y-72627142D01*
X69300471Y-72775101D01*
X69211501Y-72908255D01*
X69098255Y-73021501D01*
X68965101Y-73110471D01*
X68817142Y-73171758D01*
X68660075Y-73203000D01*
X68499925Y-73203000D01*
X68342858Y-73171758D01*
X68194899Y-73110471D01*
X68061745Y-73021501D01*
X67948499Y-72908255D01*
X67859529Y-72775101D01*
X67798242Y-72627142D01*
X67767000Y-72470075D01*
X67767000Y-72309925D01*
X67798242Y-72152858D01*
X67859529Y-72004899D01*
X67948499Y-71871745D01*
X68061745Y-71758499D01*
X68194899Y-71669529D01*
X68342858Y-71608242D01*
X68499925Y-71577000D01*
X68660075Y-71577000D01*
X68817142Y-71608242D01*
X68817142Y-71608242D01*
G37*
G36*
X94275000Y-71774000D02*
G01*
X92923000Y-71774000D01*
X92923000Y-70172000D01*
X94275000Y-70172000D01*
X94275000Y-71774000D01*
X94275000Y-71774000D01*
G37*
G36*
X126729443Y-69971519D02*
G01*
X126795627Y-69978037D01*
X126965466Y-70029557D01*
X127121991Y-70113222D01*
X127157729Y-70142552D01*
X127259186Y-70225814D01*
X127342448Y-70327271D01*
X127371778Y-70363009D01*
X127455443Y-70519534D01*
X127506963Y-70689373D01*
X127524359Y-70866000D01*
X127506963Y-71042627D01*
X127455443Y-71212466D01*
X127371778Y-71368991D01*
X127342448Y-71404729D01*
X127259186Y-71506186D01*
X127157729Y-71589448D01*
X127121991Y-71618778D01*
X126965466Y-71702443D01*
X126795627Y-71753963D01*
X126749571Y-71758499D01*
X126663260Y-71767000D01*
X126574740Y-71767000D01*
X126488429Y-71758499D01*
X126442373Y-71753963D01*
X126272534Y-71702443D01*
X126116009Y-71618778D01*
X126080271Y-71589448D01*
X125978814Y-71506186D01*
X125895552Y-71404729D01*
X125866222Y-71368991D01*
X125782557Y-71212466D01*
X125731037Y-71042627D01*
X125713641Y-70866000D01*
X125731037Y-70689373D01*
X125782557Y-70519534D01*
X125866222Y-70363009D01*
X125895552Y-70327271D01*
X125978814Y-70225814D01*
X126080271Y-70142552D01*
X126116009Y-70113222D01*
X126272534Y-70029557D01*
X126442373Y-69978037D01*
X126508557Y-69971519D01*
X126574740Y-69965000D01*
X126663260Y-69965000D01*
X126729443Y-69971519D01*
X126729443Y-69971519D01*
G37*
G36*
X124980000Y-71767000D02*
G01*
X123178000Y-71767000D01*
X123178000Y-69965000D01*
X124980000Y-69965000D01*
X124980000Y-71767000D01*
X124980000Y-71767000D01*
G37*
G36*
X68817142Y-69068242D02*
G01*
X68965101Y-69129529D01*
X69098255Y-69218499D01*
X69211501Y-69331745D01*
X69300471Y-69464899D01*
X69361758Y-69612858D01*
X69393000Y-69769925D01*
X69393000Y-69930075D01*
X69361758Y-70087142D01*
X69300471Y-70235101D01*
X69211501Y-70368255D01*
X69098255Y-70481501D01*
X68965101Y-70570471D01*
X68817142Y-70631758D01*
X68660075Y-70663000D01*
X68499925Y-70663000D01*
X68342858Y-70631758D01*
X68194899Y-70570471D01*
X68061745Y-70481501D01*
X67948499Y-70368255D01*
X67859529Y-70235101D01*
X67798242Y-70087142D01*
X67767000Y-69930075D01*
X67767000Y-69769925D01*
X67798242Y-69612858D01*
X67859529Y-69464899D01*
X67948499Y-69331745D01*
X68061745Y-69218499D01*
X68194899Y-69129529D01*
X68342858Y-69068242D01*
X68499925Y-69037000D01*
X68660075Y-69037000D01*
X68817142Y-69068242D01*
X68817142Y-69068242D01*
G37*
G36*
X66277142Y-69068242D02*
G01*
X66425101Y-69129529D01*
X66558255Y-69218499D01*
X66671501Y-69331745D01*
X66760471Y-69464899D01*
X66821758Y-69612858D01*
X66853000Y-69769925D01*
X66853000Y-69930075D01*
X66821758Y-70087142D01*
X66760471Y-70235101D01*
X66671501Y-70368255D01*
X66558255Y-70481501D01*
X66425101Y-70570471D01*
X66277142Y-70631758D01*
X66120075Y-70663000D01*
X65959925Y-70663000D01*
X65802858Y-70631758D01*
X65654899Y-70570471D01*
X65521745Y-70481501D01*
X65408499Y-70368255D01*
X65319529Y-70235101D01*
X65258242Y-70087142D01*
X65227000Y-69930075D01*
X65227000Y-69769925D01*
X65258242Y-69612858D01*
X65319529Y-69464899D01*
X65408499Y-69331745D01*
X65521745Y-69218499D01*
X65654899Y-69129529D01*
X65802858Y-69068242D01*
X65959925Y-69037000D01*
X66120075Y-69037000D01*
X66277142Y-69068242D01*
X66277142Y-69068242D01*
G37*
G36*
X82883000Y-69891000D02*
G01*
X81281000Y-69891000D01*
X81281000Y-68539000D01*
X82883000Y-68539000D01*
X82883000Y-69891000D01*
X82883000Y-69891000D01*
G37*
G36*
X85383000Y-69891000D02*
G01*
X83781000Y-69891000D01*
X83781000Y-68539000D01*
X85383000Y-68539000D01*
X85383000Y-69891000D01*
X85383000Y-69891000D01*
G37*
G36*
X94275000Y-69274000D02*
G01*
X92923000Y-69274000D01*
X92923000Y-67672000D01*
X94275000Y-67672000D01*
X94275000Y-69274000D01*
X94275000Y-69274000D01*
G37*
G36*
X68817142Y-66528242D02*
G01*
X68965101Y-66589529D01*
X69098255Y-66678499D01*
X69211501Y-66791745D01*
X69300471Y-66924899D01*
X69361758Y-67072858D01*
X69393000Y-67229925D01*
X69393000Y-67390075D01*
X69361758Y-67547142D01*
X69300471Y-67695101D01*
X69211501Y-67828255D01*
X69098255Y-67941501D01*
X68965101Y-68030471D01*
X68817142Y-68091758D01*
X68660075Y-68123000D01*
X68499925Y-68123000D01*
X68342858Y-68091758D01*
X68194899Y-68030471D01*
X68061745Y-67941501D01*
X67948499Y-67828255D01*
X67859529Y-67695101D01*
X67798242Y-67547142D01*
X67767000Y-67390075D01*
X67767000Y-67229925D01*
X67798242Y-67072858D01*
X67859529Y-66924899D01*
X67948499Y-66791745D01*
X68061745Y-66678499D01*
X68194899Y-66589529D01*
X68342858Y-66528242D01*
X68499925Y-66497000D01*
X68660075Y-66497000D01*
X68817142Y-66528242D01*
X68817142Y-66528242D01*
G37*
G36*
X66277142Y-66528242D02*
G01*
X66425101Y-66589529D01*
X66558255Y-66678499D01*
X66671501Y-66791745D01*
X66760471Y-66924899D01*
X66821758Y-67072858D01*
X66853000Y-67229925D01*
X66853000Y-67390075D01*
X66821758Y-67547142D01*
X66760471Y-67695101D01*
X66671501Y-67828255D01*
X66558255Y-67941501D01*
X66425101Y-68030471D01*
X66277142Y-68091758D01*
X66120075Y-68123000D01*
X65959925Y-68123000D01*
X65802858Y-68091758D01*
X65654899Y-68030471D01*
X65521745Y-67941501D01*
X65408499Y-67828255D01*
X65319529Y-67695101D01*
X65258242Y-67547142D01*
X65227000Y-67390075D01*
X65227000Y-67229925D01*
X65258242Y-67072858D01*
X65319529Y-66924899D01*
X65408499Y-66791745D01*
X65521745Y-66678499D01*
X65654899Y-66589529D01*
X65802858Y-66528242D01*
X65959925Y-66497000D01*
X66120075Y-66497000D01*
X66277142Y-66528242D01*
X66277142Y-66528242D01*
G37*
G36*
X122866338Y-64473739D02*
G01*
X123097440Y-64543843D01*
X123310425Y-64657686D01*
X123497107Y-64810893D01*
X123650314Y-64997575D01*
X123764157Y-65210560D01*
X123834261Y-65441662D01*
X123857932Y-65682000D01*
X123834261Y-65922338D01*
X123764157Y-66153440D01*
X123650314Y-66366425D01*
X123497107Y-66553107D01*
X123310425Y-66706314D01*
X123097440Y-66820157D01*
X122866338Y-66890261D01*
X122686229Y-66908000D01*
X121915771Y-66908000D01*
X121735662Y-66890261D01*
X121504560Y-66820157D01*
X121291575Y-66706314D01*
X121104893Y-66553107D01*
X120951686Y-66366425D01*
X120837843Y-66153440D01*
X120767739Y-65922338D01*
X120744068Y-65682000D01*
X120767739Y-65441662D01*
X120837843Y-65210560D01*
X120951686Y-64997575D01*
X121104893Y-64810893D01*
X121291575Y-64657686D01*
X121504560Y-64543843D01*
X121735662Y-64473739D01*
X121915771Y-64456000D01*
X122686229Y-64456000D01*
X122866338Y-64473739D01*
X122866338Y-64473739D01*
G37*
G36*
X66277142Y-63988242D02*
G01*
X66425101Y-64049529D01*
X66558255Y-64138499D01*
X66671501Y-64251745D01*
X66760471Y-64384899D01*
X66821758Y-64532858D01*
X66853000Y-64689925D01*
X66853000Y-64850075D01*
X66821758Y-65007142D01*
X66760471Y-65155101D01*
X66671501Y-65288255D01*
X66558255Y-65401501D01*
X66425101Y-65490471D01*
X66277142Y-65551758D01*
X66120075Y-65583000D01*
X65959925Y-65583000D01*
X65802858Y-65551758D01*
X65654899Y-65490471D01*
X65521745Y-65401501D01*
X65408499Y-65288255D01*
X65319529Y-65155101D01*
X65258242Y-65007142D01*
X65227000Y-64850075D01*
X65227000Y-64689925D01*
X65258242Y-64532858D01*
X65319529Y-64384899D01*
X65408499Y-64251745D01*
X65521745Y-64138499D01*
X65654899Y-64049529D01*
X65802858Y-63988242D01*
X65959925Y-63957000D01*
X66120075Y-63957000D01*
X66277142Y-63988242D01*
X66277142Y-63988242D01*
G37*
G36*
X68817142Y-63988242D02*
G01*
X68965101Y-64049529D01*
X69098255Y-64138499D01*
X69211501Y-64251745D01*
X69300471Y-64384899D01*
X69361758Y-64532858D01*
X69393000Y-64689925D01*
X69393000Y-64850075D01*
X69361758Y-65007142D01*
X69300471Y-65155101D01*
X69211501Y-65288255D01*
X69098255Y-65401501D01*
X68965101Y-65490471D01*
X68817142Y-65551758D01*
X68660075Y-65583000D01*
X68499925Y-65583000D01*
X68342858Y-65551758D01*
X68194899Y-65490471D01*
X68061745Y-65401501D01*
X67948499Y-65288255D01*
X67859529Y-65155101D01*
X67798242Y-65007142D01*
X67767000Y-64850075D01*
X67767000Y-64689925D01*
X67798242Y-64532858D01*
X67859529Y-64384899D01*
X67948499Y-64251745D01*
X68061745Y-64138499D01*
X68194899Y-64049529D01*
X68342858Y-63988242D01*
X68499925Y-63957000D01*
X68660075Y-63957000D01*
X68817142Y-63988242D01*
X68817142Y-63988242D01*
G37*
G36*
X85343000Y-64049000D02*
G01*
X83741000Y-64049000D01*
X83741000Y-62697000D01*
X85343000Y-62697000D01*
X85343000Y-64049000D01*
X85343000Y-64049000D01*
G37*
G36*
X82843000Y-64049000D02*
G01*
X81241000Y-64049000D01*
X81241000Y-62697000D01*
X82843000Y-62697000D01*
X82843000Y-64049000D01*
X82843000Y-64049000D01*
G37*
G36*
X66277142Y-61448242D02*
G01*
X66425101Y-61509529D01*
X66558255Y-61598499D01*
X66671501Y-61711745D01*
X66760471Y-61844899D01*
X66821758Y-61992858D01*
X66853000Y-62149925D01*
X66853000Y-62310075D01*
X66821758Y-62467142D01*
X66760471Y-62615101D01*
X66671501Y-62748255D01*
X66558255Y-62861501D01*
X66425101Y-62950471D01*
X66277142Y-63011758D01*
X66120075Y-63043000D01*
X65959925Y-63043000D01*
X65802858Y-63011758D01*
X65654899Y-62950471D01*
X65521745Y-62861501D01*
X65408499Y-62748255D01*
X65319529Y-62615101D01*
X65258242Y-62467142D01*
X65227000Y-62310075D01*
X65227000Y-62149925D01*
X65258242Y-61992858D01*
X65319529Y-61844899D01*
X65408499Y-61711745D01*
X65521745Y-61598499D01*
X65654899Y-61509529D01*
X65802858Y-61448242D01*
X65959925Y-61417000D01*
X66120075Y-61417000D01*
X66277142Y-61448242D01*
X66277142Y-61448242D01*
G37*
G36*
X68817142Y-61448242D02*
G01*
X68965101Y-61509529D01*
X69098255Y-61598499D01*
X69211501Y-61711745D01*
X69300471Y-61844899D01*
X69361758Y-61992858D01*
X69393000Y-62149925D01*
X69393000Y-62310075D01*
X69361758Y-62467142D01*
X69300471Y-62615101D01*
X69211501Y-62748255D01*
X69098255Y-62861501D01*
X68965101Y-62950471D01*
X68817142Y-63011758D01*
X68660075Y-63043000D01*
X68499925Y-63043000D01*
X68342858Y-63011758D01*
X68194899Y-62950471D01*
X68061745Y-62861501D01*
X67948499Y-62748255D01*
X67859529Y-62615101D01*
X67798242Y-62467142D01*
X67767000Y-62310075D01*
X67767000Y-62149925D01*
X67798242Y-61992858D01*
X67859529Y-61844899D01*
X67948499Y-61711745D01*
X68061745Y-61598499D01*
X68194899Y-61509529D01*
X68342858Y-61448242D01*
X68499925Y-61417000D01*
X68660075Y-61417000D01*
X68817142Y-61448242D01*
X68817142Y-61448242D01*
G37*
G36*
X123852000Y-62948000D02*
G01*
X120750000Y-62948000D01*
X120750000Y-60496000D01*
X123852000Y-60496000D01*
X123852000Y-62948000D01*
X123852000Y-62948000D01*
G37*
G36*
X92495000Y-62398000D02*
G01*
X90893000Y-62398000D01*
X90893000Y-61046000D01*
X92495000Y-61046000D01*
X92495000Y-62398000D01*
X92495000Y-62398000D01*
G37*
G36*
X94995000Y-62398000D02*
G01*
X93393000Y-62398000D01*
X93393000Y-61046000D01*
X94995000Y-61046000D01*
X94995000Y-62398000D01*
X94995000Y-62398000D01*
G37*
G36*
X69393000Y-60503000D02*
G01*
X67767000Y-60503000D01*
X67767000Y-58877000D01*
X69393000Y-58877000D01*
X69393000Y-60503000D01*
X69393000Y-60503000D01*
G37*
G36*
X66277142Y-58908242D02*
G01*
X66425101Y-58969529D01*
X66558255Y-59058499D01*
X66671501Y-59171745D01*
X66760471Y-59304899D01*
X66821758Y-59452858D01*
X66853000Y-59609925D01*
X66853000Y-59770075D01*
X66821758Y-59927142D01*
X66760471Y-60075101D01*
X66671501Y-60208255D01*
X66558255Y-60321501D01*
X66425101Y-60410471D01*
X66277142Y-60471758D01*
X66120075Y-60503000D01*
X65959925Y-60503000D01*
X65802858Y-60471758D01*
X65654899Y-60410471D01*
X65521745Y-60321501D01*
X65408499Y-60208255D01*
X65319529Y-60075101D01*
X65258242Y-59927142D01*
X65227000Y-59770075D01*
X65227000Y-59609925D01*
X65258242Y-59452858D01*
X65319529Y-59304899D01*
X65408499Y-59171745D01*
X65521745Y-59058499D01*
X65654899Y-58969529D01*
X65802858Y-58908242D01*
X65959925Y-58877000D01*
X66120075Y-58877000D01*
X66277142Y-58908242D01*
X66277142Y-58908242D01*
G37*
G36*
X151396000Y-59829000D02*
G01*
X149594000Y-59829000D01*
X149594000Y-58027000D01*
X151396000Y-58027000D01*
X151396000Y-59829000D01*
X151396000Y-59829000D01*
G37*
G36*
X153145442Y-58033518D02*
G01*
X153211627Y-58040037D01*
X153381466Y-58091557D01*
X153537991Y-58175222D01*
X153573729Y-58204552D01*
X153675186Y-58287814D01*
X153758448Y-58389271D01*
X153787778Y-58425009D01*
X153871443Y-58581534D01*
X153922963Y-58751373D01*
X153940359Y-58928000D01*
X153922963Y-59104627D01*
X153871443Y-59274466D01*
X153787778Y-59430991D01*
X153780382Y-59440003D01*
X153675186Y-59568186D01*
X153573729Y-59651448D01*
X153537991Y-59680778D01*
X153381466Y-59764443D01*
X153211627Y-59815963D01*
X153145442Y-59822482D01*
X153079260Y-59829000D01*
X152990740Y-59829000D01*
X152924558Y-59822482D01*
X152858373Y-59815963D01*
X152688534Y-59764443D01*
X152532009Y-59680778D01*
X152496271Y-59651448D01*
X152394814Y-59568186D01*
X152289618Y-59440003D01*
X152282222Y-59430991D01*
X152198557Y-59274466D01*
X152147037Y-59104627D01*
X152129641Y-58928000D01*
X152147037Y-58751373D01*
X152198557Y-58581534D01*
X152282222Y-58425009D01*
X152311552Y-58389271D01*
X152394814Y-58287814D01*
X152496271Y-58204552D01*
X152532009Y-58175222D01*
X152688534Y-58091557D01*
X152858373Y-58040037D01*
X152924558Y-58033518D01*
X152990740Y-58027000D01*
X153079260Y-58027000D01*
X153145442Y-58033518D01*
X153145442Y-58033518D01*
G37*
G36*
X155685442Y-58033518D02*
G01*
X155751627Y-58040037D01*
X155921466Y-58091557D01*
X156077991Y-58175222D01*
X156113729Y-58204552D01*
X156215186Y-58287814D01*
X156298448Y-58389271D01*
X156327778Y-58425009D01*
X156411443Y-58581534D01*
X156462963Y-58751373D01*
X156480359Y-58928000D01*
X156462963Y-59104627D01*
X156411443Y-59274466D01*
X156327778Y-59430991D01*
X156320382Y-59440003D01*
X156215186Y-59568186D01*
X156113729Y-59651448D01*
X156077991Y-59680778D01*
X155921466Y-59764443D01*
X155751627Y-59815963D01*
X155685442Y-59822482D01*
X155619260Y-59829000D01*
X155530740Y-59829000D01*
X155464558Y-59822482D01*
X155398373Y-59815963D01*
X155228534Y-59764443D01*
X155072009Y-59680778D01*
X155036271Y-59651448D01*
X154934814Y-59568186D01*
X154829618Y-59440003D01*
X154822222Y-59430991D01*
X154738557Y-59274466D01*
X154687037Y-59104627D01*
X154669641Y-58928000D01*
X154687037Y-58751373D01*
X154738557Y-58581534D01*
X154822222Y-58425009D01*
X154851552Y-58389271D01*
X154934814Y-58287814D01*
X155036271Y-58204552D01*
X155072009Y-58175222D01*
X155228534Y-58091557D01*
X155398373Y-58040037D01*
X155464558Y-58033518D01*
X155530740Y-58027000D01*
X155619260Y-58027000D01*
X155685442Y-58033518D01*
X155685442Y-58033518D01*
G37*
G36*
X161641549Y-57291116D02*
G01*
X161752734Y-57313232D01*
X161962203Y-57399997D01*
X162150720Y-57525960D01*
X162311040Y-57686280D01*
X162437003Y-57874797D01*
X162505448Y-58040037D01*
X162523768Y-58084267D01*
X162568000Y-58306635D01*
X162568000Y-58533365D01*
X162545884Y-58644549D01*
X162523768Y-58755734D01*
X162437003Y-58965203D01*
X162311040Y-59153720D01*
X162150720Y-59314040D01*
X161962203Y-59440003D01*
X161962202Y-59440004D01*
X161962201Y-59440004D01*
X161900850Y-59465416D01*
X161752734Y-59526768D01*
X161641549Y-59548884D01*
X161530365Y-59571000D01*
X161303635Y-59571000D01*
X161192451Y-59548884D01*
X161081266Y-59526768D01*
X160933150Y-59465416D01*
X160871799Y-59440004D01*
X160871798Y-59440004D01*
X160871797Y-59440003D01*
X160683280Y-59314040D01*
X160522960Y-59153720D01*
X160396997Y-58965203D01*
X160310232Y-58755734D01*
X160288116Y-58644549D01*
X160266000Y-58533365D01*
X160266000Y-58306635D01*
X160310232Y-58084267D01*
X160328553Y-58040037D01*
X160396997Y-57874797D01*
X160522960Y-57686280D01*
X160683280Y-57525960D01*
X160871797Y-57399997D01*
X161081266Y-57313232D01*
X161192451Y-57291116D01*
X161303635Y-57269000D01*
X161530365Y-57269000D01*
X161641549Y-57291116D01*
X161641549Y-57291116D01*
G37*
M02*
