G04 #@! TF.GenerationSoftware,KiCad,Pcbnew,(5.1.2)-2*
G04 #@! TF.CreationDate,2019-11-04T12:19:55+09:00*
G04 #@! TF.ProjectId,Kicad_sehd_mv,4b696361-645f-4736-9568-645f6d762e6b,1.0*
G04 #@! TF.SameCoordinates,Original*
G04 #@! TF.FileFunction,Paste,Top*
G04 #@! TF.FilePolarity,Positive*
%FSLAX46Y46*%
G04 Gerber Fmt 4.6, Leading zero omitted, Abs format (unit mm)*
G04 Created by KiCad (PCBNEW (5.1.2)-2) date 2019-11-04 12:19:55*
%MOMM*%
%LPD*%
G04 APERTURE LIST*
%ADD10R,1.500000X1.250000*%
%ADD11R,1.850000X3.200000*%
%ADD12R,1.200000X0.750000*%
%ADD13R,1.300000X1.500000*%
%ADD14R,1.250000X0.600000*%
%ADD15R,1.000000X2.850000*%
%ADD16R,5.550000X5.950000*%
%ADD17R,1.200000X0.600000*%
%ADD18R,0.600000X1.200000*%
%ADD19R,2.450000X5.100000*%
%ADD20R,1.300000X0.700000*%
%ADD21R,1.500000X1.300000*%
%ADD22R,1.350000X1.050000*%
G04 APERTURE END LIST*
D10*
X136057000Y-62865000D03*
X138557000Y-62865000D03*
X155067000Y-64516000D03*
X157567000Y-64516000D03*
D11*
X110871000Y-63610000D03*
X110871000Y-67310000D03*
D12*
X133609000Y-69215000D03*
X135509000Y-69215000D03*
D13*
X77216000Y-70579000D03*
X77216000Y-73279000D03*
X115316000Y-70518000D03*
X115316000Y-67818000D03*
X160909000Y-67437000D03*
X160909000Y-70137000D03*
D14*
X137394000Y-67371000D03*
X137394000Y-66421000D03*
X137394000Y-65471000D03*
X134894000Y-65471000D03*
X134894000Y-66421000D03*
X134894000Y-67371000D03*
D15*
X106303000Y-63160000D03*
X104013000Y-63160000D03*
X101723000Y-63160000D03*
D16*
X104013000Y-69910000D03*
D17*
X91714000Y-61783000D03*
X91714000Y-59883000D03*
X94214000Y-59883000D03*
X94214000Y-60833000D03*
X94214000Y-61783000D03*
D18*
X93787000Y-70973000D03*
X91887000Y-70973000D03*
X91887000Y-68473000D03*
X92837000Y-68473000D03*
X93787000Y-68473000D03*
D17*
X84562000Y-63434000D03*
X84562000Y-62484000D03*
X84562000Y-61534000D03*
X82062000Y-61534000D03*
X82062000Y-63434000D03*
X84562000Y-69276000D03*
X84562000Y-68326000D03*
X84562000Y-67376000D03*
X82062000Y-67376000D03*
X82062000Y-69276000D03*
D19*
X143002000Y-66421000D03*
X150502000Y-66421000D03*
D20*
X74930000Y-71760000D03*
X74930000Y-73660000D03*
D13*
X130683000Y-69977000D03*
X130683000Y-72677000D03*
D21*
X131953000Y-65405000D03*
X129253000Y-65405000D03*
X129253000Y-63246000D03*
X131953000Y-63246000D03*
D13*
X74930000Y-67183000D03*
X74930000Y-64483000D03*
X76962000Y-64483000D03*
X76962000Y-67183000D03*
X76962000Y-60960000D03*
X76962000Y-58260000D03*
X74930000Y-58260000D03*
X74930000Y-60960000D03*
X115316000Y-65184000D03*
X115316000Y-62484000D03*
X88392000Y-62564000D03*
X88392000Y-59864000D03*
X88265000Y-71026000D03*
X88265000Y-68326000D03*
X98679000Y-60866000D03*
X98679000Y-58166000D03*
X97155000Y-73914000D03*
X97155000Y-71214000D03*
X160909000Y-62197000D03*
X160909000Y-64897000D03*
D22*
X141859000Y-58286000D03*
X141859000Y-60586000D03*
X139954000Y-71494000D03*
X139954000Y-73794000D03*
D10*
X157567000Y-67945000D03*
X155067000Y-67945000D03*
M02*
